<svg width="37" height="127" fill="none" xmlns="http://www.w3.org/2000/svg"><path d="M36.986 107.79V94.816H31.55v12.974l-11.366 11.726L5.852 107.79V94.816H.416v12.974l19.768 19.211 16.802-19.211Z" fill="#5E5E5E"/><path d="M36.57 74.122V61.148h-5.435v12.974L19.769 85.85 5.437 74.121V61.148H.001v12.974L19.77 93.333l16.802-19.21Z" fill="#949191"/><path d="M36.57 45.9V32.926h-5.435V45.9L19.769 57.626 5.437 45.9V32.926H.001V45.9L19.77 65.11 36.57 45.9Z" fill="#ADA8A8"/><path d="M36.57 12.974V0h-5.437v12.974L19.767 24.7 5.436 12.974V0H0v12.974l19.767 19.21 16.802-19.21Z" fill="#D1CCCC"/></svg>