<svg width="34" height="36" fill="none" xmlns="http://www.w3.org/2000/svg"><path d="m27.236 3.064-1.62-2.7A.75.75 0 0 0 24.973 0h-2.605a.375.375 0 0 0-.307.59l2.608 3.726a4.85 4.85 0 0 1 2.567-1.252ZM33.616 0h-2.605a.75.75 0 0 0-.643.364l-1.62 2.7c.985.154 1.871.6 2.568 1.252L33.924.59a.375.375 0 0 0-.307-.59Zm-5.624 3.75a4.125 4.125 0 1 0 0 8.25 4.125 4.125 0 0 0 0-8.25Zm2.169 3.686-.89.866.21 1.224a.27.27 0 0 1-.39.283l-1.099-.577-1.099.577a.269.269 0 0 1-.39-.283l.21-1.224-.889-.866a.27.27 0 0 1 .149-.46l1.229-.178.549-1.114c.05-.1.145-.15.24-.15.097 0 .193.05.243.15l.549 1.114 1.229.179a.27.27 0 0 1 .149.459Z" fill="#fff"/><path d="m5.256 28.019-.318.598.438.517c2.31 2.73 5.765 4.479 9.624 4.479 3.86 0 7.315-1.75 9.624-4.48l.438-.516-.318-.598c-1.3-2.447-3.852-4.148-6.84-4.148-.256 0-.5.042-.721.11l-.01.003-.009.003a6.981 6.981 0 0 1-2.164.368c-.738 0-1.455-.14-2.166-.37l-.008-.002-.009-.002a2.479 2.479 0 0 0-.72-.11c-2.989 0-5.542 1.701-6.841 4.148ZM1 21C1 13.266 7.266 7 15 7s14 6.266 14 14-6.266 14-14 14S1 28.734 1 21Zm20.323-3.871a6.323 6.323 0 1 0-12.646 0 6.323 6.323 0 0 0 12.646 0Z" stroke="#fff" stroke-width="2"/></svg>