<svg width="30" height="30" fill="none" xmlns="http://www.w3.org/2000/svg"><path d="m5.256 22.019-.318.598.438.517c2.31 2.73 5.765 4.479 9.624 4.479 3.86 0 7.315-1.75 9.624-4.48l.438-.516-.318-.598c-1.3-2.447-3.852-4.148-6.84-4.148-.256 0-.5.042-.721.11l-.01.003-.009.003a6.981 6.981 0 0 1-2.164.368c-.738 0-1.455-.14-2.166-.37l-.008-.002-.009-.002a2.482 2.482 0 0 0-.72-.11c-2.989 0-5.542 1.701-6.841 4.148ZM1 15C1 7.266 7.266 1 15 1s14 6.266 14 14-6.266 14-14 14S1 22.734 1 15Zm20.323-3.871a6.323 6.323 0 1 0-12.646 0 6.323 6.323 0 0 0 12.646 0Z" stroke="#fff" stroke-width="2"/></svg>