<svg width="23" height="105" viewBox="0 0 23 105" fill="none" xmlns="http://www.w3.org/2000/svg">
<path fill-rule="evenodd" clip-rule="evenodd" d="M3.74293 0H0V3.51429L0.255859 3.18802L23 28.0139V23.9118L3.74293 0ZM0 16.5702V9.88541L23 34.9905V41.6753L0 16.5702ZM0 23.5468V29.5488L23 54.6539V47.9406L22.6994 48.3239L0 23.5468ZM0 43.7061V36.5254L22.6985 61.3014L23 60.9169V68.8112L0 43.7061ZM0 50.6827V57.8373L0.948242 56.6282L23 80.6982V75.0742L22.6985 75.4587L0 50.6827ZM0 69.6622V62.5698L23 87.6749V94.7673L0 69.6622ZM0 76.6388V82.3739L20.7289 105H23V101.028L22.6975 101.414L0 76.6388ZM0 94.9984V89.3506L14.3372 105H9.16292L0 94.9984ZM0 101.975V105H2.77127L0 101.975ZM23 16.477V9.89259L14.8975 0H9.73046L23 16.477Z" fill="#F0F0F0"/>
</svg>
