<svg width="40" height="34" viewBox="0 0 40 34" fill="none" xmlns="http://www.w3.org/2000/svg">
<mask id="mask0_2781_5027" style="mask-type:alpha" maskUnits="userSpaceOnUse" x="0" y="0" width="40" height="34">
<path d="M27.1429 8.5C27.1429 7.09104 26.3903 5.73978 25.0508 4.7435C23.7112 3.74721 21.8944 3.1875 20 3.1875C18.1056 3.1875 16.2888 3.74721 14.9492 4.7435C13.6097 5.73978 12.8571 7.09104 12.8571 8.5C12.8571 9.90896 13.6097 11.2602 14.9492 12.2565C16.2888 13.2528 18.1056 13.8125 20 13.8125C21.8944 13.8125 23.7112 13.2528 25.0508 12.2565C26.3903 11.2602 27.1429 9.90896 27.1429 8.5ZM8.57143 8.5C8.57143 6.24566 9.77551 4.08365 11.9188 2.48959C14.0621 0.895533 16.969 0 20 0C23.031 0 25.9379 0.895533 28.0812 2.48959C30.2245 4.08365 31.4286 6.24566 31.4286 8.5C31.4286 10.7543 30.2245 12.9163 28.0812 14.5104C25.9379 16.1045 23.031 17 20 17C16.969 17 14.0621 16.1045 11.9188 14.5104C9.77551 12.9163 8.57143 10.7543 8.57143 8.5ZM4.40179 30.8125H35.5982C34.8036 26.609 29.9464 23.375 24.0804 23.375H15.9196C10.0536 23.375 5.19643 26.609 4.40179 30.8125ZM0 32.0277C0 25.4867 7.125 20.1875 15.9196 20.1875H24.0804C32.875 20.1875 40 25.4867 40 32.0277C40 33.1168 38.8125 34 37.3482 34H2.65179C1.1875 34 0 33.1168 0 32.0277Z" fill="#CECECE"/>
</mask>
<g mask="url(#mask0_2781_5027)">
<rect x="-7.14258" width="52.8571" height="35.0968" fill="#0DACDE"/>
</g>
</svg>
