<svg width="72" height="64" viewBox="0 0 72 64" fill="none" xmlns="http://www.w3.org/2000/svg">
<rect x="1" y="1" width="69.8022" height="61.0989" rx="9" stroke="#0DACDE" stroke-width="2"/>
<mask id="mask0_1991_4404" style="mask-type:alpha" maskUnits="userSpaceOnUse" x="20" y="13" width="32" height="34">
<path d="M41.3422 21.486C41.3422 20.0884 40.7691 18.7481 39.749 17.7599C38.7289 16.7716 37.3453 16.2164 35.9026 16.2164C34.46 16.2164 33.0764 16.7716 32.0563 17.7599C31.0362 18.7481 30.4631 20.0884 30.4631 21.486C30.4631 22.8836 31.0362 24.2239 32.0563 25.2122C33.0764 26.2004 34.46 26.7556 35.9026 26.7556C37.3453 26.7556 38.7289 26.2004 39.749 25.2122C40.7691 24.2239 41.3422 22.8836 41.3422 21.486ZM27.1993 21.486C27.1993 19.2499 28.1163 17.1053 29.7485 15.5242C31.3807 13.943 33.5944 13.0547 35.9026 13.0547C38.2109 13.0547 40.4246 13.943 42.0568 15.5242C43.689 17.1053 44.6059 19.2499 44.6059 21.486C44.6059 23.7221 43.689 25.8667 42.0568 27.4478C40.4246 29.029 38.2109 29.9173 35.9026 29.9173C33.5944 29.9173 31.3807 29.029 29.7485 27.4478C28.1163 25.8667 27.1993 23.7221 27.1993 21.486ZM24.024 43.6182H47.7813C47.1761 39.4487 43.4772 36.2408 39.01 36.2408H32.7953C28.3281 36.2408 24.6292 39.4487 24.024 43.6182ZM20.6719 44.8236C20.6719 38.3355 26.0978 33.0791 32.7953 33.0791H39.01C45.7075 33.0791 51.1334 38.3355 51.1334 44.8236C51.1334 45.9039 50.2291 46.78 49.114 46.78H22.6913C21.5762 46.78 20.6719 45.9039 20.6719 44.8236Z" fill="#CECECE"/>
</mask>
<g mask="url(#mask0_1991_4404)">
<rect x="15.2324" y="13.0547" width="40.2527" height="34.8132" fill="#0DACDE"/>
</g>
</svg>
