<svg width="32" height="26" viewBox="0 0 32 26" fill="none" xmlns="http://www.w3.org/2000/svg">
<mask id="mask0_2192_4289" style="mask-type:alpha" maskUnits="userSpaceOnUse" x="0" y="0" width="32" height="26">
<rect x="0.923828" width="30.2314" height="25.4129" fill="#D9D9D9"/>
</mask>
<g mask="url(#mask0_2192_4289)">
<path d="M27.5363 0H4.11732C3.27035 0 2.45808 0.282206 1.85918 0.784535C1.26028 1.28687 0.923828 1.96817 0.923828 2.67857L0.923828 22.3214C0.923828 23.0318 1.26028 23.7131 1.85918 24.2155C2.45808 24.7178 3.27035 25 4.11732 25H13.2487V16.5006H9.05725V12.5H13.2487V9.45089C13.2487 5.9827 15.7104 4.06696 19.4807 4.06696C21.2863 4.06696 23.1745 4.33705 23.1745 4.33705V7.74107H21.0941C19.0442 7.74107 18.4049 8.80804 18.4049 9.90234V12.5H22.9809L22.249 16.5006H18.4049V25H27.5363C28.3832 25 29.1955 24.7178 29.7944 24.2155C30.3933 23.7131 30.7298 23.0318 30.7298 22.3214V2.67857C30.7298 1.96817 30.3933 1.28687 29.7944 0.784535C29.1955 0.282206 28.3832 0 27.5363 0Z" fill="#01C1FD"/>
</g>
</svg>
