<svg width="34" height="26" viewBox="0 0 34 26" fill="none" xmlns="http://www.w3.org/2000/svg">
<path d="M16.9455 0.179688C19.1686 0.179688 21.2512 0.513668 23.1932 1.18163C25.1352 1.84959 26.8345 2.75538 28.291 3.89901C29.7475 5.04264 30.8974 6.38362 31.7406 7.92196C32.5839 9.46029 33.0055 11.1099 33.0055 12.8709C33.0055 14.6319 32.5839 16.2816 31.7406 17.8199C30.8974 19.3582 29.7475 20.7043 28.291 21.858C26.8345 23.0118 25.1352 23.9226 23.1932 24.5906C21.2512 25.2586 19.1686 25.5925 16.9455 25.5925C14.7224 25.5925 12.6398 25.2586 10.6978 24.5906C8.75579 23.9226 7.06291 23.0118 5.61917 21.858C4.17543 20.7043 3.03194 19.3582 2.1887 17.8199C1.34545 16.2816 0.923828 14.6319 0.923828 12.8709C0.923828 11.1099 1.34545 9.46029 2.1887 7.92196C3.03194 6.38362 4.17543 5.04264 5.61917 3.89901C7.06291 2.75538 8.75579 1.84959 10.6978 1.18163C12.6398 0.513668 14.7224 0.179688 16.9455 0.179688ZM16.4472 20.9472C17.2138 20.9472 17.9293 20.8561 18.5937 20.6739C19.258 20.4918 19.8394 20.2489 20.3376 19.9452C20.8359 19.6416 21.232 19.2874 21.5258 18.8826C21.8197 18.4778 21.9666 18.0426 21.9666 17.577C21.9666 17.1317 21.8197 16.7066 21.5258 16.3018C21.232 15.897 20.8359 15.5428 20.3376 15.2392C19.8394 14.9355 19.258 14.6926 18.5937 14.5105C17.9293 14.3283 17.2138 14.2372 16.4472 14.2372C16.3705 14.2372 16.2939 14.2423 16.2172 14.2524C16.1406 14.2625 16.0767 14.2676 16.0256 14.2676C15.8978 14.0247 15.8339 13.7818 15.8339 13.5389C15.8339 13.3972 15.8467 13.2403 15.8723 13.0683C15.8978 12.8962 15.9362 12.8102 15.9873 12.8102H16.1406C16.7794 12.8102 17.3735 12.7141 17.9229 12.5218C18.4723 12.3295 18.9578 12.0714 19.3794 11.7475C19.801 11.4237 20.1332 11.0442 20.376 10.609C20.6187 10.1738 20.7401 9.7133 20.7401 9.22751C20.7401 9.00486 20.6826 8.75691 20.5676 8.48365C20.4526 8.21039 20.3057 8.01304 20.1268 7.89159L21.7367 7.19327V4.82505L18.4403 6.25205C17.6993 5.84723 16.8944 5.64482 16.0256 5.64482C15.3868 5.64482 14.7927 5.74096 14.2433 5.93326C13.6939 6.12555 13.2148 6.38362 12.8059 6.70748C12.3971 7.03134 12.0777 7.41086 11.8477 7.84605C11.6177 8.28124 11.5027 8.74172 11.5027 9.22751C11.5027 9.79427 11.656 10.3155 11.9627 10.7911C12.2693 11.2668 12.6782 11.6666 13.1892 11.9904C12.9081 12.4965 12.7676 13.0126 12.7676 13.5389C12.7676 13.7818 12.7995 14.0196 12.8634 14.2524C12.9273 14.4852 13.0231 14.7129 13.1509 14.9355C12.4865 15.2392 11.9499 15.6237 11.5411 16.0893C11.1322 16.5548 10.9278 17.0507 10.9278 17.577C10.9278 18.0426 11.0747 18.4778 11.3686 18.8826C11.6624 19.2874 12.0585 19.6416 12.5568 19.9452C13.0551 20.2489 13.6364 20.4918 14.3008 20.6739C14.9651 20.8561 15.6806 20.9472 16.4472 20.9472ZM16.4472 16.3018C17.1371 16.3018 17.7185 16.4283 18.1912 16.6813C18.6639 16.9344 18.9003 17.2329 18.9003 17.577C18.9003 17.9414 18.6639 18.25 18.1912 18.5031C17.7185 18.7561 17.1371 18.8826 16.4472 18.8826C15.7828 18.8826 15.2079 18.7561 14.7224 18.5031C14.2369 18.25 13.9941 17.9414 13.9941 17.577C13.9941 17.2329 14.2369 16.9344 14.7224 16.6813C15.2079 16.4283 15.7828 16.3018 16.4472 16.3018ZM16.1406 10.8974C15.5529 10.8974 15.0482 10.7355 14.6266 10.4116C14.2049 10.0878 13.9941 9.69306 13.9941 9.22751C13.9941 8.76197 14.2049 8.36726 14.6266 8.0434C15.0482 7.71954 15.5529 7.55761 16.1406 7.55761C16.7283 7.55761 17.233 7.71954 17.6546 8.0434C18.0762 8.36726 18.287 8.76197 18.287 9.22751C18.287 9.69306 18.0762 10.0878 17.6546 10.4116C17.233 10.7355 16.7283 10.8974 16.1406 10.8974Z" fill="white"/>
</svg>
