<svg width="54" height="48" viewBox="0 0 54 48" fill="none" xmlns="http://www.w3.org/2000/svg">
<path d="M31.16 25.8203L29.309 22.0652C28.4248 20.3022 25.5681 20.2969 24.6893 22.0723L22.84 25.8203L18.71 26.4244C17.7307 26.5653 16.9347 27.2381 16.6264 28.1769C16.3218 29.1156 16.5718 30.1301 17.2799 30.817L20.2722 33.7319L19.5642 37.8498C19.1978 39.9809 21.4627 41.5537 23.3014 40.5657L27.0018 38.623L30.6986 40.5657C32.5126 41.515 34.811 40.0144 34.4394 37.8515L33.7314 33.7337L36.7237 30.8188C37.4317 30.1301 37.6818 29.1156 37.3771 28.1786C37.0689 27.2381 36.2728 26.5671 35.2971 26.4262L31.16 25.8203ZM30.5066 32.6875L31.3361 37.5116L27 35.2325L22.6551 37.568L23.4934 32.6875L19.9868 29.2689L24.8319 28.5626L27 24.1682L29.1681 28.5626L34.0132 29.2689L30.5066 32.6875ZM52.4971 0H37.6994C36.6462 0 35.6687 0.55304 35.1262 1.45657L27 15.0008L18.8738 1.45657C18.3313 0.55304 17.3556 0 16.3006 0H1.50289C0.289415 0 -0.422116 1.36675 0.273564 2.36011L13.7856 21.6619C11.732 24.413 10.5009 27.8105 10.5009 31.5004C10.5009 40.5991 17.9033 48 27 48C36.0967 48 43.4991 40.5974 43.4991 31.5004C43.4991 27.8105 42.268 24.413 40.2144 21.6619L53.7264 2.36011C54.4221 1.36675 53.7106 0 52.4971 0ZM4.38424 2.99945H16.3024L23.7012 15.3319C20.7054 15.9431 18.016 17.3803 15.8462 19.3758L4.38424 2.99945ZM40.4997 31.5004C40.4997 38.9559 34.4552 45.0006 27 45.0006C19.5448 45.0006 13.5003 38.9559 13.5003 31.5004C13.5003 24.0449 19.5448 18.0002 27 18.0002C34.4552 18.0002 40.4997 24.0449 40.4997 31.5004ZM38.1538 19.3775C35.9857 17.382 33.2946 15.9448 30.2988 15.3337L37.6976 3.00121H49.6158L38.1538 19.3775Z" fill="#6096FF"/>
</svg>
