<svg width="40" height="38" viewBox="0 0 40 38" fill="none" xmlns="http://www.w3.org/2000/svg">
<mask id="mask0_2781_5119" style="mask-type:alpha" maskUnits="userSpaceOnUse" x="0" y="0" width="40" height="38">
<rect width="40" height="38" fill="#5C0D0D"/>
</mask>
<g mask="url(#mask0_2781_5119)">
<path d="M21.9994 21.6325L20.6283 18.6597C19.9734 17.264 17.8573 17.2598 17.2063 18.6653L15.8365 21.6325L12.7772 22.1107C12.0518 22.2223 11.4622 22.7549 11.2339 23.4981C11.0082 24.2413 11.1934 25.0444 11.7179 25.5882L13.9344 27.8958L13.4099 31.1558C13.1386 32.843 14.8163 34.0881 16.1783 33.3059L18.9193 31.7679L21.6576 33.3059C23.0014 34.0574 24.7039 32.8695 24.4286 31.1572L23.9042 27.8972L26.1207 25.5896C26.6451 25.0444 26.8304 24.2413 26.6047 23.4995C26.3764 22.7549 25.7867 22.2237 25.064 22.1121L21.9994 21.6325ZM21.5154 27.069L22.1299 30.8881L18.918 29.0838L15.6995 30.9327L16.3205 27.069L13.723 24.3626L17.312 23.8034L18.918 20.3246L20.5239 23.8034L24.1129 24.3626L21.5154 27.069ZM37.8047 1.19141H26.8434C26.0633 1.19141 25.3392 1.62923 24.9374 2.34453L18.918 13.067L12.8985 2.34453C12.4967 1.62923 11.774 1.19141 10.9925 1.19141H0.0312219C-0.86765 1.19141 -1.39471 2.27342 -0.879391 3.05982L9.12953 18.3404C7.60836 20.5184 6.69644 23.2081 6.69644 26.1292C6.69644 33.3324 12.1797 39.1914 18.918 39.1914C25.6562 39.1914 31.1395 33.331 31.1395 26.1292C31.1395 23.2081 30.2276 20.5184 28.7064 18.3404L38.7153 3.05982C39.2306 2.27342 38.7036 1.19141 37.8047 1.19141ZM2.16555 3.56597H10.9938L16.4744 13.3292C14.2553 13.813 12.2632 14.9508 10.6559 16.5306L2.16555 3.56597ZM28.9178 26.1292C28.9178 32.0315 24.4404 36.8168 18.918 36.8168C13.3956 36.8168 8.91818 32.0315 8.91818 26.1292C8.91818 20.227 13.3956 15.4416 18.918 15.4416C24.4404 15.4416 28.9178 20.227 28.9178 26.1292ZM27.18 16.532C25.5741 14.9522 23.5806 13.8144 21.3615 13.3305L26.8421 3.56737H35.6704L27.18 16.532Z" fill="#0DACDE"/>
</g>
</svg>
