<svg width="39" height="35" viewBox="0 0 39 35" fill="none" xmlns="http://www.w3.org/2000/svg">
<path d="M22.3524 18.5214L21.0246 15.8278C20.3904 14.5632 18.3411 14.5594 17.7107 15.8329L16.3841 18.5214L13.4215 18.9547C12.719 19.0558 12.148 19.5384 11.9269 20.2118C11.7083 20.8852 11.8877 21.6129 12.3956 22.1056L14.5421 24.1966L14.0342 27.1504C13.7714 28.6791 15.3962 29.8073 16.7151 29.0985L19.3695 27.705L22.0214 29.0985C23.3227 29.7795 24.9714 28.7031 24.7049 27.1517L24.197 24.1978L26.3435 22.1069C26.8514 21.6129 27.0308 20.8852 26.8122 20.2131C26.5911 19.5384 26.0201 19.0571 25.3201 18.956L22.3524 18.5214ZM21.8837 23.4474L22.4788 26.9078L19.3683 25.273L16.2515 26.9482L16.8529 23.4474L14.3374 20.9951L17.813 20.4885L19.3683 17.3363L20.9235 20.4885L24.3991 20.9951L21.8837 23.4474ZM37.6585 0H27.0434C26.2879 0 25.5867 0.396707 25.1976 1.04483L19.3683 10.7603L13.539 1.04483C13.1498 0.396707 12.4499 0 11.6931 0H1.07809C0.20761 0 -0.302802 0.980396 0.19624 1.69295L9.88902 15.5385C8.4159 17.5119 7.53278 19.949 7.53278 22.5958C7.53278 29.1226 12.8428 34.4313 19.3683 34.4313C25.8937 34.4313 31.2038 29.1213 31.2038 22.5958C31.2038 19.949 30.3207 17.5119 28.8475 15.5385L38.5403 1.69295C39.0394 0.980396 38.529 0 37.6585 0ZM3.14501 2.15156H11.6944L17.0019 10.9979C14.8529 11.4363 12.9237 12.4672 11.3672 13.8986L3.14501 2.15156ZM29.0522 22.5958C29.0522 27.9438 24.7162 32.2798 19.3683 32.2798C14.0203 32.2798 9.68435 27.9438 9.68435 22.5958C9.68435 17.2479 14.0203 12.9119 19.3683 12.9119C24.7162 12.9119 29.0522 17.2479 29.0522 22.5958ZM27.3694 13.8999C25.8141 12.4685 23.8837 11.4375 21.7346 10.9991L27.0422 2.15283H35.5916L27.3694 13.8999Z" fill="#01C1FD"/>
</svg>
