<svg width="30" height="26" viewBox="0 0 30 26" fill="none" xmlns="http://www.w3.org/2000/svg">
<path d="M18.1031 10.1602V14.1278C18.1031 14.2282 18.01 14.3064 17.8902 14.3064H17.1318C17.0586 14.3064 16.992 14.2729 16.9588 14.2338L14.7899 11.7785V14.1334C14.7899 14.2338 14.6967 14.3119 14.577 14.3119H13.8185C13.6988 14.3119 13.6056 14.2338 13.6056 14.1334V10.1657C13.6056 10.0653 13.6988 9.98717 13.8185 9.98717H14.5703C14.6368 9.98717 14.71 10.0151 14.7433 10.0653L16.9122 12.5206V10.1657C16.9122 10.0653 17.0053 9.98717 17.1251 9.98717H17.8836C18.0033 9.98159 18.1031 10.0653 18.1031 10.1602ZM12.6476 9.98159H11.8891C11.7694 9.98159 11.6762 10.0597 11.6762 10.1602V14.1278C11.6762 14.2282 11.7694 14.3064 11.8891 14.3064H12.6476C12.7673 14.3064 12.8605 14.2282 12.8605 14.1278V10.1602C12.8605 10.0653 12.7673 9.98159 12.6476 9.98159ZM10.818 13.3075H8.74884V10.1602C8.74884 10.0597 8.6557 9.98159 8.53594 9.98159H7.77749C7.65773 9.98159 7.56459 10.0597 7.56459 10.1602V14.1278C7.56459 14.178 7.58455 14.2171 7.62447 14.2506C7.66439 14.2785 7.71096 14.3008 7.77084 14.3008H10.8113C10.9311 14.3008 11.0242 14.2227 11.0242 14.1222V13.486C11.0242 13.3912 10.9311 13.3075 10.818 13.3075ZM22.095 9.98159H19.0545C18.9414 9.98159 18.8416 10.0597 18.8416 10.1602V14.1278C18.8416 14.2227 18.9347 14.3064 19.0545 14.3064H22.095C22.2147 14.3064 22.3079 14.2282 22.3079 14.1278V13.4916C22.3079 13.3912 22.2147 13.3131 22.095 13.3131H20.0259V12.6434H22.095C22.2147 12.6434 22.3079 12.5653 22.3079 12.4648V11.8231C22.3079 11.7227 22.2147 11.6445 22.095 11.6445H20.0259V10.9749H22.095C22.2147 10.9749 22.3079 10.8968 22.3079 10.7963V10.1602C22.3012 10.0653 22.2081 9.98159 22.095 9.98159ZM29.8059 5.10994V21.0307C29.7993 23.5307 27.3576 25.5563 24.3703 25.5508H5.38903C2.40844 25.5452 -0.00663939 23.4916 1.37131e-05 20.9916V5.07088C0.00666682 2.57088 2.45501 0.545212 5.4356 0.550793H24.4169C27.3975 0.556373 29.8126 2.60436 29.8059 5.10994ZM25.7076 11.9515C25.7076 7.87779 20.8375 4.56307 14.8564 4.56307C8.87525 4.56307 4.00518 7.87779 4.00518 11.9515C4.00518 15.601 7.86398 18.659 13.08 19.2394C14.3508 19.4682 14.2044 19.8588 13.9183 21.293C13.8717 21.5218 13.6988 22.1914 14.8564 21.784C16.014 21.3767 21.1037 18.6981 23.3857 16.4994C24.9558 15.0485 25.7076 13.5809 25.7076 11.9515Z" fill="white"/>
</svg>
