<svg width="72" height="64" viewBox="0 0 72 64" fill="none" xmlns="http://www.w3.org/2000/svg">
<rect x="1" y="1" width="69.8022" height="61.0989" rx="9" stroke="#0DACDE" stroke-width="2"/>
<mask id="mask0_1991_4446" style="mask-type:alpha" maskUnits="userSpaceOnUse" x="15" y="15" width="41" height="36">
<rect x="15.2305" y="15.2305" width="40.2527" height="34.8132" fill="#5C0D0D"/>
</mask>
<g mask="url(#mask0_1991_4446)">
<path d="M37.3699 35.0471L35.9901 32.3237C35.331 31.045 33.2016 31.0412 32.5465 32.3288L31.168 35.0471L28.0894 35.4853C27.3594 35.5875 26.766 36.0754 26.5363 36.7563C26.3092 37.4371 26.4956 38.1729 27.0233 38.6711L29.2539 40.7852L28.7261 43.7718C28.453 45.3175 30.1414 46.4582 31.512 45.7416L34.2703 44.3326L37.0259 45.7416C38.3782 46.4301 40.0914 45.3417 39.8144 43.7731L39.2867 40.7865L41.5172 38.6724C42.0449 38.1729 42.2314 37.4371 42.0042 36.7576C41.7745 36.0754 41.1811 35.5887 40.4538 35.4865L37.3699 35.0471ZM36.8828 40.0277L37.5012 43.5265L34.269 41.8736L31.0302 43.5674L31.6551 40.0277L29.0412 37.5483L32.6528 37.036L34.269 33.8489L35.8851 37.036L39.4967 37.5483L36.8828 40.0277ZM53.275 16.3203H42.2445C41.4594 16.3203 40.7308 16.7214 40.3264 17.3767L34.269 27.2L28.2115 17.3767C27.8071 16.7214 27.0798 16.3203 26.2934 16.3203H15.2629C14.3583 16.3203 13.8279 17.3116 14.3465 18.032L24.4187 32.0311C22.8879 34.0265 21.9702 36.4906 21.9702 39.1667C21.9702 45.7658 27.4881 51.1335 34.269 51.1335C41.0498 51.1335 46.5677 45.7646 46.5677 39.1667C46.5677 36.4906 45.65 34.0265 44.1192 32.0311L54.1914 18.032C54.71 17.3116 54.1796 16.3203 53.275 16.3203ZM17.4107 18.4957H26.2947L31.81 27.4401C29.5768 27.8834 27.5721 28.9258 25.9547 30.3731L17.4107 18.4957ZM44.3319 39.1667C44.3319 44.574 39.8262 48.9581 34.269 48.9581C28.7117 48.9581 24.206 44.574 24.206 39.1667C24.206 33.7595 28.7117 29.3754 34.269 29.3754C39.8262 29.3754 44.3319 33.7595 44.3319 39.1667ZM42.5832 30.3743C40.9671 28.927 38.9611 27.8847 36.7279 27.4414L42.2432 18.497H51.1272L42.5832 30.3743Z" fill="#0DACDE"/>
</g>
</svg>
