<svg width="72" height="64" viewBox="0 0 72 64" fill="none" xmlns="http://www.w3.org/2000/svg">
<rect x="1" y="1" width="69.8022" height="61.0989" rx="9" stroke="#0DACDE" stroke-width="2"/>
<path d="M20.7928 17.4005C20.1779 17.4005 19.6747 17.89 19.6747 18.4884V40.2466C19.6747 40.845 20.1779 41.3345 20.7928 41.3345H52.1005C52.7155 41.3345 53.2187 40.845 53.2187 40.2466V18.4884C53.2187 17.89 52.7155 17.4005 52.1005 17.4005H20.7928ZM16.3203 18.4884C16.3203 16.0882 18.326 14.1367 20.7928 14.1367H52.1005C54.5674 14.1367 56.5731 16.0882 56.5731 18.4884V40.2466C56.5731 42.6468 54.5674 44.5983 52.1005 44.5983H20.7928C18.326 44.5983 16.3203 42.6468 16.3203 40.2466V18.4884ZM23.0291 22.84C23.0291 22.263 23.2647 21.7095 23.6841 21.3015C24.1035 20.8934 24.6723 20.6642 25.2654 20.6642C25.8585 20.6642 26.4273 20.8934 26.8466 21.3015C27.266 21.7095 27.5016 22.263 27.5016 22.84C27.5016 23.4171 27.266 23.9705 26.8466 24.3786C26.4273 24.7866 25.8585 25.0158 25.2654 25.0158C24.6723 25.0158 24.1035 24.7866 23.6841 24.3786C23.2647 23.9705 23.0291 23.4171 23.0291 22.84ZM30.297 22.84C30.297 21.9357 31.0447 21.2081 31.9742 21.2081H47.628C48.5575 21.2081 49.3052 21.9357 49.3052 22.84C49.3052 23.7443 48.5575 24.4719 47.628 24.4719H31.9742C31.0447 24.4719 30.297 23.7443 30.297 22.84ZM30.297 29.3675C30.297 28.4632 31.0447 27.7356 31.9742 27.7356H47.628C48.5575 27.7356 49.3052 28.4632 49.3052 29.3675C49.3052 30.2718 48.5575 30.9994 47.628 30.9994H31.9742C31.0447 30.9994 30.297 30.2718 30.297 29.3675ZM30.297 35.895C30.297 34.9906 31.0447 34.2631 31.9742 34.2631H47.628C48.5575 34.2631 49.3052 34.9906 49.3052 35.895C49.3052 36.7993 48.5575 37.5268 47.628 37.5268H31.9742C31.0447 37.5268 30.297 36.7993 30.297 35.895ZM25.2654 31.5433C24.6723 31.5433 24.1035 31.3141 23.6841 30.906C23.2647 30.498 23.0291 29.9446 23.0291 29.3675C23.0291 28.7904 23.2647 28.237 23.6841 27.8289C24.1035 27.4209 24.6723 27.1917 25.2654 27.1917C25.8585 27.1917 26.4273 27.4209 26.8466 27.8289C27.266 28.237 27.5016 28.7904 27.5016 29.3675C27.5016 29.9446 27.266 30.498 26.8466 30.906C26.4273 31.3141 25.8585 31.5433 25.2654 31.5433ZM23.0291 35.895C23.0291 35.3179 23.2647 34.7645 23.6841 34.3564C24.1035 33.9484 24.6723 33.7191 25.2654 33.7191C25.8585 33.7191 26.4273 33.9484 26.8466 34.3564C27.266 34.7645 27.5016 35.3179 27.5016 35.895C27.5016 36.472 27.266 37.0255 26.8466 37.4335C26.4273 37.8415 25.8585 38.0708 25.2654 38.0708C24.6723 38.0708 24.1035 37.8415 23.6841 37.4335C23.2647 37.0255 23.0291 36.472 23.0291 35.895Z" fill="#0DACDE"/>
</svg>
