<svg width="40" height="34" viewBox="0 0 40 34" fill="none" xmlns="http://www.w3.org/2000/svg">
<path d="M4.44439 7.4375C3.83328 7.4375 3.33329 7.91562 3.33329 8.5V29.75C3.33329 30.3344 3.83328 30.8125 4.44439 30.8125H35.5551C36.1662 30.8125 36.6662 30.3344 36.6662 29.75V8.5C36.6662 7.91562 36.1662 7.4375 35.5551 7.4375H4.44439ZM0 8.5C0 6.15586 1.99303 4.25 4.44439 4.25H35.5551C38.0064 4.25 39.9995 6.15586 39.9995 8.5V29.75C39.9995 32.0941 38.0064 34 35.5551 34H4.44439C1.99303 34 0 32.0941 0 29.75V8.5ZM6.66658 12.75C6.66658 12.1864 6.9007 11.6459 7.31744 11.2474C7.73418 10.8489 8.29941 10.625 8.88877 10.625C9.47813 10.625 10.0434 10.8489 10.4601 11.2474C10.8768 11.6459 11.111 12.1864 11.111 12.75C11.111 13.3136 10.8768 13.8541 10.4601 14.2526C10.0434 14.6511 9.47813 14.875 8.88877 14.875C8.29941 14.875 7.73418 14.6511 7.31744 14.2526C6.9007 13.8541 6.66658 13.3136 6.66658 12.75ZM13.8887 12.75C13.8887 11.8668 14.6317 11.1562 15.5553 11.1562H31.1107C32.0343 11.1562 32.7773 11.8668 32.7773 12.75C32.7773 13.6332 32.0343 14.3437 31.1107 14.3437H15.5553C14.6317 14.3437 13.8887 13.6332 13.8887 12.75ZM13.8887 19.125C13.8887 18.2418 14.6317 17.5312 15.5553 17.5312H31.1107C32.0343 17.5312 32.7773 18.2418 32.7773 19.125C32.7773 20.0082 32.0343 20.7187 31.1107 20.7187H15.5553C14.6317 20.7187 13.8887 20.0082 13.8887 19.125ZM13.8887 25.5C13.8887 24.6168 14.6317 23.9062 15.5553 23.9062H31.1107C32.0343 23.9062 32.7773 24.6168 32.7773 25.5C32.7773 26.3832 32.0343 27.0937 31.1107 27.0937H15.5553C14.6317 27.0937 13.8887 26.3832 13.8887 25.5ZM8.88877 21.25C8.29941 21.25 7.73418 21.0261 7.31744 20.6276C6.9007 20.2291 6.66658 19.6886 6.66658 19.125C6.66658 18.5614 6.9007 18.0209 7.31744 17.6224C7.73418 17.2239 8.29941 17 8.88877 17C9.47813 17 10.0434 17.2239 10.4601 17.6224C10.8768 18.0209 11.111 18.5614 11.111 19.125C11.111 19.6886 10.8768 20.2291 10.4601 20.6276C10.0434 21.0261 9.47813 21.25 8.88877 21.25ZM6.66658 25.5C6.66658 24.9364 6.9007 24.3959 7.31744 23.9974C7.73418 23.5989 8.29941 23.375 8.88877 23.375C9.47813 23.375 10.0434 23.5989 10.4601 23.9974C10.8768 24.3959 11.111 24.9364 11.111 25.5C11.111 26.0636 10.8768 26.6041 10.4601 27.0026C10.0434 27.4011 9.47813 27.625 8.88877 27.625C8.29941 27.625 7.73418 27.4011 7.31744 27.0026C6.9007 26.6041 6.66658 26.0636 6.66658 25.5Z" fill="#0DACDE"/>
</svg>
