<svg width="72" height="64" viewBox="0 0 72 64" fill="none" xmlns="http://www.w3.org/2000/svg">
<rect x="1" y="1" width="69.8022" height="61.0989" rx="9" stroke="#0DACDE" stroke-width="2"/>
<path d="M33.1128 46.9757L32.9269 46.8041L19.8975 34.6606C17.6143 32.5334 16.3203 29.5479 16.3203 26.4206V26.1743C16.3203 20.9198 20.0388 16.4117 25.1851 15.4265C28.1152 14.8592 31.1123 15.5384 33.4995 17.2252C34.1689 17.7029 34.7936 18.2552 35.3588 18.8896C35.6711 18.5314 36.0058 18.203 36.3628 17.897C36.6379 17.6581 36.9205 17.4342 37.218 17.2252C39.6052 15.5384 42.6023 14.8592 45.5325 15.419C50.6788 16.4042 54.3972 20.9198 54.3972 26.1743V26.4206C54.3972 29.5479 53.1032 32.5334 50.8201 34.6606L37.7906 46.8041L37.6047 46.9757C36.9949 47.543 36.1917 47.8639 35.3588 47.8639C34.5258 47.8639 33.7227 47.5504 33.1128 46.9757ZM34.1019 22.8529C34.0722 22.8305 34.0499 22.8007 34.0276 22.7708L32.7038 21.278L32.6964 21.2706C30.9784 19.3375 28.383 18.4567 25.8544 18.9419C22.3888 19.6062 19.89 22.6364 19.89 26.1743V26.4206C19.89 28.5477 20.775 30.5853 22.3293 32.0333L35.3588 44.1768L48.3882 32.0333C49.9425 30.5853 50.8275 28.5477 50.8275 26.4206V26.1743C50.8275 22.6439 48.3287 19.6062 44.8706 18.9419C42.342 18.4567 39.7391 19.3449 38.0286 21.2706C38.0286 21.2706 38.0286 21.2706 38.0212 21.278C38.0137 21.2855 38.0212 21.278 38.0137 21.2855L36.69 22.7783C36.6677 22.8081 36.6379 22.8305 36.6156 22.8604C36.2809 23.1962 35.8273 23.3828 35.3588 23.3828C34.8902 23.3828 34.4366 23.1962 34.1019 22.8604V22.8529Z" fill="#0DACDE"/>
</svg>
