<svg width="40" height="34" viewBox="0 0 40 34" fill="none" xmlns="http://www.w3.org/2000/svg">
<path d="M16.6868 33.1326L16.502 32.9649L3.55462 21.105C1.28587 19.0276 0 16.1118 0 13.0575V12.817C0 7.68524 3.69503 3.28244 8.80896 2.32023C11.7206 1.76624 14.6988 2.42958 17.071 4.07698C17.7362 4.5435 18.3569 5.08292 18.9186 5.70252C19.2289 5.35263 19.5615 5.03189 19.9162 4.73303C20.1897 4.49977 20.4705 4.28109 20.7661 4.07698C23.1383 2.42958 26.1165 1.76624 29.0282 2.31295C34.1421 3.27515 37.8371 7.68524 37.8371 12.817V13.0575C37.8371 16.1118 36.5513 19.0276 34.2825 21.105L21.3351 32.9649L21.1504 33.1326C20.5444 33.6866 19.7463 34 18.9186 34C18.0909 34 17.2928 33.6938 16.6868 33.1326ZM17.6696 9.5732C17.6401 9.55133 17.6179 9.52217 17.5957 9.49301L16.2803 8.03513L16.2729 8.02784C14.5658 6.13988 11.9867 5.27973 9.47406 5.75355C6.03029 6.4023 3.54723 9.3618 3.54723 12.817V13.0575C3.54723 15.135 4.42665 17.125 5.97117 18.5392L18.9186 30.399L31.866 18.5392C33.4105 17.125 34.2899 15.135 34.2899 13.0575V12.817C34.2899 9.36909 31.8068 6.4023 28.3705 5.75355C25.8578 5.27973 23.2713 6.14717 21.5716 8.02784C21.5716 8.02784 21.5716 8.02784 21.5642 8.03513C21.5568 8.04242 21.5642 8.03513 21.5568 8.04242L20.2414 9.5003C20.2192 9.52946 20.1897 9.55133 20.1675 9.58049C19.8349 9.90851 19.3841 10.0907 18.9186 10.0907C18.453 10.0907 18.0022 9.90851 17.6696 9.58049V9.5732Z" fill="#0DACDE"/>
</svg>
