<svg width="221" height="164" viewBox="0 0 221 164" fill="none" xmlns="http://www.w3.org/2000/svg">
<path opacity="0.7" d="M63.8806 13.5744L36.8311 1L31.5048 12.4576L58.5544 25.0321L71.8663 60.3543L33.3757 79.1955L6.3261 66.621L0.999834 78.0787L28.0494 90.6531L87.4719 67.6088L63.8806 13.5744Z" fill="#0DF2F2" stroke="#424040"/>
<path opacity="0.7" d="M120.102 39.7092L93.0527 27.1348L87.7265 38.5924L114.776 51.1668L128.088 86.4891L89.5974 105.33L62.5478 92.7558L57.2215 104.213L84.2711 116.788L143.694 93.7435L120.102 39.7092Z" fill="#0DF2F2" stroke="#424040"/>
<path opacity="0.7" d="M179.952 67.5334L152.902 54.959L147.576 66.4166L174.626 78.991L187.938 114.313L149.447 133.154L122.397 120.58L117.071 132.038L144.121 144.612L203.543 121.568L179.952 67.5334Z" fill="#0DF2F2" stroke="#424040"/>
</svg>
