{
  "accessors": [
    {
      "bufferView": 2,
      "componentType": 5126,
      "count": 24466,
      "max": [
        0.3646370768547058,
        2.3033759593963623,
        0.36065056920051575
      ],
      "min": [
        -0.3646365702152252,
        0.6824764013290405,
        -0.3512682616710663
      ],
      "type": "VEC3"
    },
    {
      "bufferView": 2,
      "byteOffset": 293592,
      "componentType": 5126,
      "count": 24466,
      "max": [
        1.0,
        1.0,
        1.0
      ],
      "min": [
        -1.0,
        -0.9999979138374329,
        -1.0
      ],
      "type": "VEC3"
    },
    {
      "bufferView": 1,
      "componentType": 5126,
      "count": 24466,
      "max": [
        0.9942153692245483,
        -0.005559980869293213
      ],
      "min": [
        0.005717217922210693,
        -0.9948124885559082
      ],
      "type": "VEC2"
    },
    {
      "bufferView": 1,
      "byteOffset": 195728,
      "componentType": 5126,
      "count": 24466,
      "max": [
        0.9942153692245483,
        -0.005559980869293213
      ],
      "min": [
        0.005717217922210693,
        -0.9948124885559082
      ],
      "type": "VEC2"
    },
    {
      "bufferView": 1,
      "byteOffset": 391456,
      "componentType": 5126,
      "count": 24466,
      "max": [
        0.9942153692245483,
        -0.005559980869293213
      ],
      "min": [
        0.005717217922210693,
        -0.9948124885559082
      ],
      "type": "VEC2"
    },
    {
      "bufferView": 1,
      "byteOffset": 587184,
      "componentType": 5126,
      "count": 24466,
      "max": [
        0.9942153692245483,
        -0.005559980869293213
      ],
      "min": [
        0.005717217922210693,
        -0.9948124885559082
      ],
      "type": "VEC2"
    },
    {
      "bufferView": 1,
      "byteOffset": 782912,
      "componentType": 5126,
      "count": 24466,
      "max": [
        0.9942153692245483,
        -0.005559980869293213
      ],
      "min": [
        0.005717217922210693,
        -0.9948124885559082
      ],
      "type": "VEC2"
    },
    {
      "bufferView": 1,
      "byteOffset": 978640,
      "componentType": 5126,
      "count": 24466,
      "max": [
        0.9942153692245483,
        -0.005559980869293213
      ],
      "min": [
        0.005717217922210693,
        -0.9948124885559082
      ],
      "type": "VEC2"
    },
    {
      "bufferView": 1,
      "byteOffset": 1174368,
      "componentType": 5126,
      "count": 24466,
      "max": [
        0.9942153692245483,
        -0.005559980869293213
      ],
      "min": [
        0.005717217922210693,
        -0.9948124885559082
      ],
      "type": "VEC2"
    },
    {
      "bufferView": 1,
      "byteOffset": 1370096,
      "componentType": 5126,
      "count": 24466,
      "max": [
        0.9942153692245483,
        -0.005559980869293213
      ],
      "min": [
        0.005717217922210693,
        -0.9948124885559082
      ],
      "type": "VEC2"
    },
    {
      "bufferView": 1,
      "byteOffset": 1565824,
      "componentType": 5126,
      "count": 24466,
      "max": [
        0.9942153692245483,
        -0.005559980869293213
      ],
      "min": [
        0.005717217922210693,
        -0.9948124885559082
      ],
      "type": "VEC2"
    },
    {
      "bufferView": 1,
      "byteOffset": 1761552,
      "componentType": 5126,
      "count": 24466,
      "max": [
        0.9942153692245483,
        -0.005559980869293213
      ],
      "min": [
        0.005717217922210693,
        -0.9948124885559082
      ],
      "type": "VEC2"
    },
    {
      "bufferView": 0,
      "componentType": 5125,
      "count": 113700,
      "type": "SCALAR"
    },
    {
      "bufferView": 2,
      "byteOffset": 587184,
      "componentType": 5126,
      "count": 8,
      "max": [
        0.20735405385494232,
        1.5137633085250854,
        0.1901155561208725
      ],
      "min": [
        -0.20735369622707367,
        1.5033856630325317,
        0.1789611577987671
      ],
      "type": "VEC3"
    },
    {
      "bufferView": 2,
      "byteOffset": 587280,
      "componentType": 5126,
      "count": 8,
      "max": [
        0.6169265508651733,
        -0.6977692246437073,
        -0.21173371374607086
      ],
      "min": [
        -0.6169357895851135,
        -0.8611477613449097,
        -0.5102260708808899
      ],
      "type": "VEC3"
    },
    {
      "bufferView": 1,
      "byteOffset": 1957280,
      "componentType": 5126,
      "count": 8,
      "max": [
        -0.0,
        -1.0
      ],
      "min": [
        -0.0,
        -1.0
      ],
      "type": "VEC2"
    },
    {
      "bufferView": 1,
      "byteOffset": 1957344,
      "componentType": 5126,
      "count": 8,
      "max": [
        -0.0,
        -1.0
      ],
      "min": [
        -0.0,
        -1.0
      ],
      "type": "VEC2"
    },
    {
      "bufferView": 1,
      "byteOffset": 1957408,
      "componentType": 5126,
      "count": 8,
      "max": [
        -0.0,
        -1.0
      ],
      "min": [
        -0.0,
        -1.0
      ],
      "type": "VEC2"
    },
    {
      "bufferView": 1,
      "byteOffset": 1957472,
      "componentType": 5126,
      "count": 8,
      "max": [
        -0.0,
        -1.0
      ],
      "min": [
        -0.0,
        -1.0
      ],
      "type": "VEC2"
    },
    {
      "bufferView": 1,
      "byteOffset": 1957536,
      "componentType": 5126,
      "count": 8,
      "max": [
        -0.0,
        -1.0
      ],
      "min": [
        -0.0,
        -1.0
      ],
      "type": "VEC2"
    },
    {
      "bufferView": 1,
      "byteOffset": 1957600,
      "componentType": 5126,
      "count": 8,
      "max": [
        -0.0,
        -1.0
      ],
      "min": [
        -0.0,
        -1.0
      ],
      "type": "VEC2"
    },
    {
      "bufferView": 1,
      "byteOffset": 1957664,
      "componentType": 5126,
      "count": 8,
      "max": [
        -0.0,
        -1.0
      ],
      "min": [
        -0.0,
        -1.0
      ],
      "type": "VEC2"
    },
    {
      "bufferView": 1,
      "byteOffset": 1957728,
      "componentType": 5126,
      "count": 8,
      "max": [
        -0.0,
        -1.0
      ],
      "min": [
        -0.0,
        -1.0
      ],
      "type": "VEC2"
    },
    {
      "bufferView": 1,
      "byteOffset": 1957792,
      "componentType": 5126,
      "count": 8,
      "max": [
        -0.0,
        -1.0
      ],
      "min": [
        -0.0,
        -1.0
      ],
      "type": "VEC2"
    },
    {
      "bufferView": 1,
      "byteOffset": 1957856,
      "componentType": 5126,
      "count": 8,
      "max": [
        -0.0,
        -1.0
      ],
      "min": [
        -0.0,
        -1.0
      ],
      "type": "VEC2"
    },
    {
      "bufferView": 0,
      "byteOffset": 454800,
      "componentType": 5125,
      "count": 12,
      "type": "SCALAR"
    },
    {
      "bufferView": 2,
      "byteOffset": 587376,
      "componentType": 5126,
      "count": 12116,
      "max": [
        1.3097013235092163,
        2.376150369644165,
        0.32458680868148804
      ],
      "min": [
        -1.3097013235092163,
        0.004691154230386019,
        -0.1670350283384323
      ],
      "type": "VEC3"
    },
    {
      "bufferView": 2,
      "byteOffset": 732768,
      "componentType": 5126,
      "count": 12116,
      "max": [
        0.999992311000824,
        0.9999578595161438,
        0.9999818205833435
      ],
      "min": [
        -0.999992311000824,
        -0.9999937415122986,
        -0.999995768070221
      ],
      "type": "VEC3"
    },
    {
      "bufferView": 1,
      "byteOffset": 1957920,
      "componentType": 5126,
      "count": 12116,
      "max": [
        0.9936777353286743,
        -0.005131244659423828
      ],
      "min": [
        0.006072282791137695,
        -0.9949402809143066
      ],
      "type": "VEC2"
    },
    {
      "bufferView": 1,
      "byteOffset": 2054848,
      "componentType": 5126,
      "count": 12116,
      "max": [
        0.9936777353286743,
        -0.005131244659423828
      ],
      "min": [
        0.006072282791137695,
        -0.9949402809143066
      ],
      "type": "VEC2"
    },
    {
      "bufferView": 1,
      "byteOffset": 2151776,
      "componentType": 5126,
      "count": 12116,
      "max": [
        0.9936777353286743,
        -0.005131244659423828
      ],
      "min": [
        0.006072282791137695,
        -0.9949402809143066
      ],
      "type": "VEC2"
    },
    {
      "bufferView": 1,
      "byteOffset": 2248704,
      "componentType": 5126,
      "count": 12116,
      "max": [
        0.9936777353286743,
        -0.005131244659423828
      ],
      "min": [
        0.006072282791137695,
        -0.9949402809143066
      ],
      "type": "VEC2"
    },
    {
      "bufferView": 1,
      "byteOffset": 2345632,
      "componentType": 5126,
      "count": 12116,
      "max": [
        0.9936777353286743,
        -0.005131244659423828
      ],
      "min": [
        0.006072282791137695,
        -0.9949402809143066
      ],
      "type": "VEC2"
    },
    {
      "bufferView": 1,
      "byteOffset": 2442560,
      "componentType": 5126,
      "count": 12116,
      "max": [
        0.9936777353286743,
        -0.005131244659423828
      ],
      "min": [
        0.006072282791137695,
        -0.9949402809143066
      ],
      "type": "VEC2"
    },
    {
      "bufferView": 1,
      "byteOffset": 2539488,
      "componentType": 5126,
      "count": 12116,
      "max": [
        0.9936777353286743,
        -0.005131244659423828
      ],
      "min": [
        0.006072282791137695,
        -0.9949402809143066
      ],
      "type": "VEC2"
    },
    {
      "bufferView": 1,
      "byteOffset": 2636416,
      "componentType": 5126,
      "count": 12116,
      "max": [
        0.9936777353286743,
        -0.005131244659423828
      ],
      "min": [
        0.006072282791137695,
        -0.9949402809143066
      ],
      "type": "VEC2"
    },
    {
      "bufferView": 1,
      "byteOffset": 2733344,
      "componentType": 5126,
      "count": 12116,
      "max": [
        0.9936777353286743,
        -0.005131244659423828
      ],
      "min": [
        0.006072282791137695,
        -0.9949402809143066
      ],
      "type": "VEC2"
    },
    {
      "bufferView": 1,
      "byteOffset": 2830272,
      "componentType": 5126,
      "count": 12116,
      "max": [
        0.9936777353286743,
        -0.005131244659423828
      ],
      "min": [
        0.006072282791137695,
        -0.9949402809143066
      ],
      "type": "VEC2"
    },
    {
      "bufferView": 0,
      "byteOffset": 454848,
      "componentType": 5125,
      "count": 61224,
      "type": "SCALAR"
    },
    {
      "bufferView": 2,
      "byteOffset": 878160,
      "componentType": 5126,
      "count": 168,
      "max": [
        0.1686030924320221,
        2.36712908744812,
        0.2164282202720642
      ],
      "min": [
        -0.1686030924320221,
        2.0529427528381348,
        0.049908339977264404
      ],
      "type": "VEC3"
    },
    {
      "bufferView": 2,
      "byteOffset": 880176,
      "componentType": 5126,
      "count": 168,
      "max": [
        1.0,
        0.9748716354370117,
        0.9952481985092163
      ],
      "min": [
        -1.0,
        -0.6007970571517944,
        -0.04305654391646385
      ],
      "type": "VEC3"
    },
    {
      "bufferView": 1,
      "byteOffset": 2927200,
      "componentType": 5126,
      "count": 168,
      "max": [
        1.0,
        1.0
      ],
      "min": [
        0.0,
        0.0
      ],
      "type": "VEC2"
    },
    {
      "bufferView": 1,
      "byteOffset": 2928544,
      "componentType": 5126,
      "count": 168,
      "max": [
        1.0,
        1.0
      ],
      "min": [
        0.0,
        0.0
      ],
      "type": "VEC2"
    },
    {
      "bufferView": 1,
      "byteOffset": 2929888,
      "componentType": 5126,
      "count": 168,
      "max": [
        1.0,
        1.0
      ],
      "min": [
        0.0,
        0.0
      ],
      "type": "VEC2"
    },
    {
      "bufferView": 1,
      "byteOffset": 2931232,
      "componentType": 5126,
      "count": 168,
      "max": [
        1.0,
        1.0
      ],
      "min": [
        0.0,
        0.0
      ],
      "type": "VEC2"
    },
    {
      "bufferView": 1,
      "byteOffset": 2932576,
      "componentType": 5126,
      "count": 168,
      "max": [
        1.0,
        1.0
      ],
      "min": [
        0.0,
        0.0
      ],
      "type": "VEC2"
    },
    {
      "bufferView": 1,
      "byteOffset": 2933920,
      "componentType": 5126,
      "count": 168,
      "max": [
        1.0,
        1.0
      ],
      "min": [
        0.0,
        0.0
      ],
      "type": "VEC2"
    },
    {
      "bufferView": 1,
      "byteOffset": 2935264,
      "componentType": 5126,
      "count": 168,
      "max": [
        1.0,
        1.0
      ],
      "min": [
        0.0,
        0.0
      ],
      "type": "VEC2"
    },
    {
      "bufferView": 1,
      "byteOffset": 2936608,
      "componentType": 5126,
      "count": 168,
      "max": [
        1.0,
        1.0
      ],
      "min": [
        0.0,
        0.0
      ],
      "type": "VEC2"
    },
    {
      "bufferView": 1,
      "byteOffset": 2937952,
      "componentType": 5126,
      "count": 168,
      "max": [
        1.0,
        1.0
      ],
      "min": [
        0.0,
        0.0
      ],
      "type": "VEC2"
    },
    {
      "bufferView": 1,
      "byteOffset": 2939296,
      "componentType": 5126,
      "count": 168,
      "max": [
        1.0,
        1.0
      ],
      "min": [
        0.0,
        0.0
      ],
      "type": "VEC2"
    },
    {
      "bufferView": 0,
      "byteOffset": 699744,
      "componentType": 5125,
      "count": 570,
      "type": "SCALAR"
    },
    {
      "bufferView": 2,
      "byteOffset": 882192,
      "componentType": 5126,
      "count": 164,
      "max": [
        0.16851487755775452,
        2.36712908744812,
        0.17928211390972137
      ],
      "min": [
        -0.16851487755775452,
        2.0529427528381348,
        0.04973142594099045
      ],
      "type": "VEC3"
    },
    {
      "bufferView": 2,
      "byteOffset": 884160,
      "componentType": 5126,
      "count": 164,
      "max": [
        0.0,
        0.16934959590435028,
        -0.6880172491073608
      ],
      "min": [
        0.0,
        -0.7256943583488464,
        -0.9973504543304443
      ],
      "type": "VEC3"
    },
    {
      "bufferView": 1,
      "byteOffset": 2940640,
      "componentType": 5126,
      "count": 164,
      "max": [
        0.99853515625,
        0.9086416959762573
      ],
      "min": [
        0.0,
        0.0
      ],
      "type": "VEC2"
    },
    {
      "bufferView": 1,
      "byteOffset": 2941952,
      "componentType": 5126,
      "count": 164,
      "max": [
        0.99853515625,
        0.9086416959762573
      ],
      "min": [
        0.0,
        0.0
      ],
      "type": "VEC2"
    },
    {
      "bufferView": 1,
      "byteOffset": 2943264,
      "componentType": 5126,
      "count": 164,
      "max": [
        0.99853515625,
        0.9086416959762573
      ],
      "min": [
        0.0,
        0.0
      ],
      "type": "VEC2"
    },
    {
      "bufferView": 1,
      "byteOffset": 2944576,
      "componentType": 5126,
      "count": 164,
      "max": [
        0.99853515625,
        0.9086416959762573
      ],
      "min": [
        0.0,
        0.0
      ],
      "type": "VEC2"
    },
    {
      "bufferView": 1,
      "byteOffset": 2945888,
      "componentType": 5126,
      "count": 164,
      "max": [
        0.99853515625,
        0.9086416959762573
      ],
      "min": [
        0.0,
        0.0
      ],
      "type": "VEC2"
    },
    {
      "bufferView": 1,
      "byteOffset": 2947200,
      "componentType": 5126,
      "count": 164,
      "max": [
        0.99853515625,
        0.9086416959762573
      ],
      "min": [
        0.0,
        0.0
      ],
      "type": "VEC2"
    },
    {
      "bufferView": 1,
      "byteOffset": 2948512,
      "componentType": 5126,
      "count": 164,
      "max": [
        0.99853515625,
        0.9086416959762573
      ],
      "min": [
        0.0,
        0.0
      ],
      "type": "VEC2"
    },
    {
      "bufferView": 1,
      "byteOffset": 2949824,
      "componentType": 5126,
      "count": 164,
      "max": [
        0.99853515625,
        0.9086416959762573
      ],
      "min": [
        0.0,
        0.0
      ],
      "type": "VEC2"
    },
    {
      "bufferView": 1,
      "byteOffset": 2951136,
      "componentType": 5126,
      "count": 164,
      "max": [
        0.99853515625,
        0.9086416959762573
      ],
      "min": [
        0.0,
        0.0
      ],
      "type": "VEC2"
    },
    {
      "bufferView": 1,
      "byteOffset": 2952448,
      "componentType": 5126,
      "count": 164,
      "max": [
        0.99853515625,
        0.9086416959762573
      ],
      "min": [
        0.0,
        0.0
      ],
      "type": "VEC2"
    },
    {
      "bufferView": 0,
      "byteOffset": 702024,
      "componentType": 5125,
      "count": 756,
      "type": "SCALAR"
    }
  ],
  "asset": {
    "extras": {
      "author": "miladaslani1991 (https://sketchfab.com/miladaslani1991)",
      "license": "CC-BY-4.0 (http://creativecommons.org/licenses/by/4.0/)",
      "source": "https://sketchfab.com/3d-models/astronaut-106ecb96bb1c41e78db35131c7d96752",
      "title": "astronaut"
    },
    "generator": "Sketchfab-14.17.0",
    "version": "2.0"
  },
  "bufferViews": [
    {
      "buffer": 0,
      "byteLength": 705048,
      "name": "floatBufferViews",
      "target": 34963
    },
    {
      "buffer": 0,
      "byteLength": 2953760,
      "byteOffset": 705048,
      "byteStride": 8,
      "name": "floatBufferViews",
      "target": 34962
    },
    {
      "buffer": 0,
      "byteLength": 886128,
      "byteOffset": 3658808,
      "byteStride": 12,
      "name": "floatBufferViews",
      "target": 34962
    }
  ],
  "buffers": [
    {
      "byteLength": 4544936,
      "uri": "scene.bin"
    }
  ],
  "images": [
    {
      "uri": "textures/gltf_material_0_baseColor.png"
    },
    {
      "uri": "textures/gltf_material_2_baseColor.png"
    }
  ],
  "materials": [
    {
      "doubleSided": true,
      "name": "gltf_material_0",
      "pbrMetallicRoughness": {
        "baseColorTexture": {
          "index": 0
        },
        "metallicFactor": 0.0,
        "roughnessFactor": 0.9367544467966324
      }
    },
    {
      "doubleSided": true,
      "name": "gltf_material_1",
      "pbrMetallicRoughness": {
        "baseColorFactor": [
          0.2,
          0.301961,
          0.4,
          1.0
        ],
        "metallicFactor": 0.0,
        "roughnessFactor": 0.9367544467966324
      }
    },
    {
      "doubleSided": true,
      "name": "gltf_material_2",
      "pbrMetallicRoughness": {
        "baseColorTexture": {
          "index": 1
        },
        "metallicFactor": 0.0,
        "roughnessFactor": 0.9367544467966324
      }
    },
    {
      "doubleSided": true,
      "name": "Material_2",
      "pbrMetallicRoughness": {
        "baseColorFactor": [
          0.980392,
          0.980392,
          0.980392,
          1.0
        ],
        "metallicFactor": 0.0,
        "roughnessFactor": 0.7885257473118872
      }
    }
  ],
  "meshes": [
    {
      "name": "Mesh_gltf_material #0_0",
      "primitives": [
        {
          "attributes": {
            "NORMAL": 1,
            "POSITION": 0,
            "TEXCOORD_0": 2,
            "TEXCOORD_1": 3,
            "TEXCOORD_2": 4,
            "TEXCOORD_3": 5,
            "TEXCOORD_4": 6,
            "TEXCOORD_5": 7,
            "TEXCOORD_6": 8,
            "TEXCOORD_7": 9,
            "TEXCOORD_8": 10,
            "TEXCOORD_9": 11
          },
          "indices": 12,
          "material": 0,
          "mode": 4
        }
      ]
    },
    {
      "name": "Mesh_2_gltf_material #1_0",
      "primitives": [
        {
          "attributes": {
            "NORMAL": 14,
            "POSITION": 13,
            "TEXCOORD_0": 15,
            "TEXCOORD_1": 16,
            "TEXCOORD_2": 17,
            "TEXCOORD_3": 18,
            "TEXCOORD_4": 19,
            "TEXCOORD_5": 20,
            "TEXCOORD_6": 21,
            "TEXCOORD_7": 22,
            "TEXCOORD_8": 23,
            "TEXCOORD_9": 24
          },
          "indices": 25,
          "material": 1,
          "mode": 4
        }
      ]
    },
    {
      "name": "Mesh_3_gltf_material #2_0",
      "primitives": [
        {
          "attributes": {
            "NORMAL": 27,
            "POSITION": 26,
            "TEXCOORD_0": 28,
            "TEXCOORD_1": 29,
            "TEXCOORD_2": 30,
            "TEXCOORD_3": 31,
            "TEXCOORD_4": 32,
            "TEXCOORD_5": 33,
            "TEXCOORD_6": 34,
            "TEXCOORD_7": 35,
            "TEXCOORD_8": 36,
            "TEXCOORD_9": 37
          },
          "indices": 38,
          "material": 2,
          "mode": 4
        }
      ]
    },
    {
      "name": "Object_1_Material_2_0",
      "primitives": [
        {
          "attributes": {
            "NORMAL": 40,
            "POSITION": 39,
            "TEXCOORD_0": 41,
            "TEXCOORD_1": 42,
            "TEXCOORD_2": 43,
            "TEXCOORD_3": 44,
            "TEXCOORD_4": 45,
            "TEXCOORD_5": 46,
            "TEXCOORD_6": 47,
            "TEXCOORD_7": 48,
            "TEXCOORD_8": 49,
            "TEXCOORD_9": 50
          },
          "indices": 51,
          "material": 3,
          "mode": 4
        }
      ]
    },
    {
      "name": "Object_3_Material_2_0",
      "primitives": [
        {
          "attributes": {
            "NORMAL": 53,
            "POSITION": 52,
            "TEXCOORD_0": 54,
            "TEXCOORD_1": 55,
            "TEXCOORD_2": 56,
            "TEXCOORD_3": 57,
            "TEXCOORD_4": 58,
            "TEXCOORD_5": 59,
            "TEXCOORD_6": 60,
            "TEXCOORD_7": 61,
            "TEXCOORD_8": 62,
            "TEXCOORD_9": 63
          },
          "indices": 64,
          "material": 3,
          "mode": 4
        }
      ]
    }
  ],
  "nodes": [
    {
      "children": [
        1
      ],
      "matrix": [
        1.0,
        0.0,
        0.0,
        0.0,
        0.0,
        2.220446049250313e-16,
        -1.0,
        0.0,
        0.0,
        1.0,
        2.220446049250313e-16,
        0.0,
        0.0,
        0.0,
        0.0,
        1.0
      ],
      "name": "Sketchfab_model"
    },
    {
      "children": [
        2
      ],
      "matrix": [
        1.0,
        0.0,
        0.0,
        0.0,
        0.0,
        0.0,
        1.0,
        0.0,
        0.0,
        -1.0,
        0.0,
        0.0,
        0.0,
        0.0,
        0.0,
        1.0
      ],
      "name": "adam fazai.fbx"
    },
    {
      "children": [
        3
      ],
      "name": "RootNode"
    },
    {
      "children": [
        4,
        15,
        17
      ],
      "name": "Default"
    },
    {
      "children": [
        5
      ],
      "name": "Walking astronaut"
    },
    {
      "children": [
        6
      ],
      "name": "RootNode.0"
    },
    {
      "children": [
        7
      ],
      "name": "geo.1"
    },
    {
      "children": [
        8
      ],
      "name": "astronaut.2"
    },
    {
      "children": [
        9,
        11,
        13
      ],
      "name": "Group"
    },
    {
      "children": [
        10
      ],
      "name": "Mesh"
    },
    {
      "mesh": 0,
      "name": "Mesh_gltf_material #0_0"
    },
    {
      "children": [
        12
      ],
      "name": "Mesh_2"
    },
    {
      "mesh": 1,
      "name": "Mesh_2_gltf_material #1_0"
    },
    {
      "children": [
        14
      ],
      "name": "Mesh_3"
    },
    {
      "mesh": 2,
      "name": "Mesh_3_gltf_material #2_0"
    },
    {
      "children": [
        16
      ],
      "name": "Object_1"
    },
    {
      "mesh": 3,
      "name": "Object_1_Material_2_0"
    },
    {
      "children": [
        18
      ],
      "name": "Object_3"
    },
    {
      "mesh": 4,
      "name": "Object_3_Material_2_0"
    }
  ],
  "samplers": [
    {
      "magFilter": 9729,
      "minFilter": 9987,
      "wrapS": 10497,
      "wrapT": 10497
    }
  ],
  "scene": 0,
  "scenes": [
    {
      "name": "Sketchfab_Scene",
      "nodes": [
        0
      ]
    }
  ],
  "textures": [
    {
      "sampler": 0,
      "source": 0
    },
    {
      "sampler": 0,
      "source": 1
    }
  ]
}
