<svg width="1790" height="418" viewBox="0 0 1790 418" fill="none" xmlns="http://www.w3.org/2000/svg">
<path opacity="0.5" fill-rule="evenodd" clip-rule="evenodd" d="M1788.25 410.59C1788.85 412.491 1789.43 414.394 1789.99 416.302L1788.56 416.727L1787.12 417.151C1786.56 415.263 1785.98 413.379 1785.39 411.498L1786.82 411.044L1788.25 410.59ZM1784.96 405.383L1786.38 404.901C1785.74 403.009 1785.07 401.12 1784.39 399.235L1782.98 399.745L1781.57 400.255C1782.25 402.121 1782.9 403.991 1783.54 405.865L1784.96 405.383ZM1780.11 388.079C1780.86 389.924 1781.59 391.772 1782.3 393.624L1780.9 394.161L1779.5 394.699C1778.8 392.864 1778.08 391.034 1777.33 389.207L1778.72 388.643L1780.11 388.079ZM1775.4 377.06C1776.22 378.889 1777.03 380.722 1777.81 382.558L1776.44 383.148L1775.06 383.738C1774.28 381.918 1773.48 380.103 1772.67 378.291L1774.03 377.676L1775.4 377.06ZM1771.53 372.235L1772.88 371.594C1772.04 369.806 1771.18 368.022 1770.3 366.242L1768.95 366.906L1767.61 367.571C1768.48 369.335 1769.33 371.103 1770.17 372.875L1771.53 372.235ZM1766.27 361.601L1767.61 360.913C1766.69 359.141 1765.76 357.373 1764.81 355.609L1763.49 356.32L1762.17 357.031C1763.11 358.78 1764.03 360.533 1764.94 362.29L1766.27 361.601ZM1760.6 351.063L1761.91 350.329C1760.94 348.598 1759.95 346.87 1758.94 345.147L1757.65 345.903L1756.35 346.658C1757.35 348.367 1758.33 350.08 1759.29 351.796L1760.6 351.063ZM1754.62 340.805L1755.9 340.029C1754.87 338.326 1753.83 336.628 1752.76 334.934L1751.49 335.731L1750.22 336.529C1751.28 338.209 1752.31 339.893 1753.34 341.581L1754.62 340.805ZM1748.27 330.682L1749.53 329.865C1748.44 328.185 1747.33 326.508 1746.2 324.836L1744.96 325.673L1743.71 326.51C1744.83 328.169 1745.93 329.832 1747.01 331.499L1748.27 330.682ZM1741.63 320.793L1742.86 319.938C1741.73 318.309 1740.58 316.684 1739.42 315.064L1738.2 315.938L1736.98 316.811C1738.13 318.42 1739.27 320.032 1740.39 321.649L1741.63 320.793ZM1734.69 311.106L1735.89 310.215C1734.7 308.603 1733.5 306.995 1732.27 305.391L1731.08 306.3L1729.89 307.209C1731.1 308.801 1732.3 310.397 1733.48 311.998L1734.69 311.106ZM1727.43 301.579L1728.61 300.654C1727.39 299.1 1726.16 297.55 1724.92 296.004L1723.75 296.946L1722.58 297.887C1723.82 299.422 1725.04 300.962 1726.25 302.505L1727.43 301.579ZM1719.98 292.337L1721.14 291.38C1719.86 289.842 1718.57 288.309 1717.27 286.78L1716.13 287.753L1714.99 288.725C1716.28 290.244 1717.56 291.767 1718.83 293.294L1719.98 292.337ZM1712.19 283.194L1713.32 282.206C1712.02 280.716 1710.7 279.229 1709.37 277.747L1708.26 278.749L1707.14 279.751C1708.46 281.223 1709.77 282.7 1711.06 284.181L1712.19 283.194ZM1701.3 268.971C1702.67 270.425 1704.03 271.884 1705.38 273.347L1704.27 274.362L1703.17 275.378C1701.83 273.924 1700.48 272.474 1699.12 271.029L1700.21 270L1701.3 268.971ZM1696.07 265.662L1697.15 264.62C1695.75 263.174 1694.34 261.732 1692.92 260.295L1691.86 261.35L1690.79 262.405C1692.2 263.834 1693.6 265.267 1694.99 266.704L1696.07 265.662ZM1687.67 257.162L1688.72 256.095C1687.31 254.705 1685.9 253.32 1684.47 251.939L1683.42 253.018L1682.38 254.096C1683.8 255.47 1685.21 256.847 1686.61 258.229L1687.67 257.162ZM1679.11 248.898L1680.14 247.808C1678.69 246.435 1677.22 245.066 1675.75 243.701L1674.73 244.803L1673.71 245.905C1675.18 247.262 1676.64 248.623 1678.08 249.988L1679.11 248.898ZM1670.28 240.733L1671.28 239.62C1669.82 238.295 1668.34 236.973 1666.85 235.656L1665.86 236.779L1664.86 237.902C1666.34 239.212 1667.81 240.527 1669.27 241.846L1670.28 240.733ZM1661.4 232.871L1662.38 231.738C1660.88 230.436 1659.37 229.138 1657.84 227.845L1656.87 228.988L1655.9 230.131C1657.42 231.418 1658.92 232.709 1660.41 234.004L1661.4 232.871ZM1652.29 225.129L1653.25 223.976C1651.7 222.691 1650.15 221.41 1648.58 220.133L1647.63 221.295L1646.69 222.457C1648.24 223.728 1649.79 225.003 1651.33 226.282L1652.29 225.129ZM1643 217.551L1643.94 216.38C1642.4 215.147 1640.84 213.918 1639.28 212.692L1638.36 213.872L1637.43 215.052C1638.99 216.272 1640.53 217.495 1642.06 218.723L1643 217.551ZM1633.66 210.217L1634.57 209.029C1632.99 207.812 1631.4 206.599 1629.8 205.39L1628.89 206.586L1627.99 207.783C1629.58 208.987 1631.17 210.194 1632.74 211.406L1633.66 210.217ZM1624.08 202.98L1624.97 201.775C1623.36 200.584 1621.75 199.397 1620.12 198.214L1619.24 199.427L1618.36 200.64C1619.97 201.818 1621.58 202.999 1623.18 204.185L1624.08 202.98ZM1614.44 195.968L1615.31 194.747C1613.7 193.595 1612.08 192.448 1610.45 191.304L1609.59 192.532L1608.73 193.76C1610.35 194.898 1611.96 196.041 1613.57 197.188L1614.44 195.968ZM1604.68 189.12L1605.53 187.885C1603.89 186.749 1602.23 185.617 1600.56 184.49L1599.72 185.732L1598.88 186.974C1600.54 188.097 1602.19 189.224 1603.83 190.355L1604.68 189.12ZM1594.71 182.368L1595.54 181.119C1593.89 180.025 1592.24 178.934 1590.58 177.847L1589.76 179.102L1588.94 180.358C1590.59 181.441 1592.24 182.527 1593.88 183.617L1594.71 182.368ZM1580.55 171.406C1582.24 172.471 1583.92 173.541 1585.59 174.614L1584.78 175.876L1583.97 177.138C1582.3 176.069 1580.63 175.004 1578.95 173.942L1579.75 172.674L1580.55 171.406ZM1574.67 169.495L1575.47 168.221C1573.76 167.163 1572.05 166.11 1570.33 165.06L1569.55 166.341L1568.77 167.621C1570.48 168.667 1572.19 169.716 1573.88 170.77L1574.67 169.495ZM1564.4 163.225L1565.17 161.939C1563.48 160.924 1561.79 159.914 1560.08 158.908L1559.32 160.199L1558.55 161.491C1560.25 162.494 1561.95 163.501 1563.63 164.511L1564.4 163.225ZM1554.19 157.197L1554.94 155.9C1553.22 154.901 1551.49 153.906 1549.76 152.915L1549.01 154.218L1548.27 155.521C1550 156.508 1551.72 157.499 1553.44 158.494L1554.19 157.197ZM1543.8 151.262L1544.53 149.955C1542.78 148.972 1541.02 147.993 1539.26 147.018L1538.53 148.33L1537.81 149.643C1539.57 150.615 1541.32 151.591 1543.06 152.57L1543.8 151.262ZM1533.28 145.452L1534 144.134C1532.26 143.191 1530.52 142.253 1528.77 141.318L1528.07 142.64L1527.36 143.963C1529.1 144.895 1530.84 145.831 1532.56 146.77L1533.28 145.452ZM1522.81 139.852L1523.51 138.525C1521.75 137.597 1519.98 136.674 1518.2 135.754L1517.51 137.086L1516.82 138.418C1518.59 139.335 1520.36 140.255 1522.11 141.179L1522.81 139.852ZM1512.18 134.344L1512.86 133.008C1511.07 132.096 1509.27 131.188 1507.47 130.284L1506.8 131.625L1506.13 132.966C1507.92 133.867 1509.71 134.772 1511.49 135.681L1512.18 134.344ZM1501.44 128.961L1502.11 127.616C1500.33 126.742 1498.56 125.871 1496.77 125.005L1496.12 126.354L1495.46 127.703C1497.24 128.567 1499.01 129.435 1500.78 130.306L1501.44 128.961ZM1490.76 123.77L1491.4 122.416C1489.61 121.558 1487.81 120.702 1486 119.851L1485.36 121.208L1484.72 122.565C1486.52 123.414 1488.32 124.267 1490.11 125.123L1490.76 123.77ZM1475.07 114.79C1476.9 115.625 1478.73 116.465 1480.55 117.309L1479.92 118.67L1479.29 120.031C1477.48 119.19 1475.65 118.353 1473.83 117.519L1474.45 116.154L1475.07 114.79ZM1464.18 109.902C1465.99 110.703 1467.8 111.508 1469.6 112.317L1468.99 113.685L1468.37 115.054C1466.58 114.247 1464.78 113.445 1462.97 112.646L1463.57 111.274L1464.18 109.902ZM1458.12 108.885L1458.72 107.51C1456.9 106.716 1455.07 105.926 1453.23 105.14L1452.64 106.519L1452.05 107.898C1453.88 108.682 1455.71 109.469 1457.53 110.261L1458.12 108.885ZM1447.12 104.175L1447.7 102.793C1445.86 102.015 1444 101.24 1442.14 100.469L1441.57 101.855L1440.99 103.24C1442.85 104.009 1444.7 104.781 1446.54 105.558L1447.12 104.175ZM1431.07 95.9495C1432.91 96.688 1434.74 97.4303 1436.57 98.1763L1436 99.5651L1435.44 100.954C1433.61 100.21 1431.79 99.4698 1429.95 98.7332L1430.51 97.3413L1431.07 95.9495ZM1424.99 95.1397L1425.54 93.7448C1423.69 93.0136 1421.84 92.2861 1419.98 91.5624L1419.43 92.9603L1418.89 94.3582C1420.74 95.0799 1422.59 95.8054 1424.44 96.5346L1424.99 95.1397ZM1413.85 90.8033L1414.38 89.4026C1412.51 88.6864 1410.64 87.9739 1408.76 87.2653L1408.23 88.6689L1407.7 90.0725C1409.57 90.7793 1411.44 91.4898 1413.31 92.2041L1413.85 90.8033ZM1402.58 86.557L1403.1 85.1507C1401.24 84.4615 1399.38 83.7761 1397.51 83.0943L1397 84.5034L1396.48 85.9125C1398.35 86.5925 1400.2 87.2761 1402.06 87.9634L1402.58 86.557ZM1391.41 82.4811L1391.92 81.0694C1390.05 80.3981 1388.18 79.7305 1386.3 79.0666L1385.8 80.4809L1385.3 81.8952C1387.17 82.5574 1389.04 83.2233 1390.9 83.8928L1391.41 82.4811ZM1380.15 78.5028L1380.65 77.086C1378.76 76.4295 1376.87 75.7767 1374.97 75.1277L1374.48 76.5469L1374 77.9662C1375.89 78.6136 1377.78 79.2648 1379.66 79.9196L1380.15 78.5028ZM1368.78 74.6134L1369.26 73.1917C1367.37 72.5538 1365.46 71.9196 1363.56 71.2892L1363.09 72.7132L1362.62 74.1373C1364.52 74.7662 1366.41 75.3988 1368.31 76.0351L1368.78 74.6134ZM1357.45 70.8633L1357.92 69.437C1356.03 68.8232 1354.14 68.2131 1352.25 67.6066L1351.79 69.0352L1351.33 70.4637C1353.22 71.0687 1355.11 71.6774 1356.99 72.2897L1357.45 70.8633ZM1340.83 64.0116C1342.74 64.6034 1344.65 65.199 1346.55 65.7981L1346.1 67.2289L1345.65 68.6596C1343.75 68.0619 1341.85 67.4679 1339.94 66.8775L1340.38 65.4446L1340.83 64.0116ZM1334.64 63.6824L1335.08 62.2473C1333.16 61.6629 1331.23 61.0822 1329.3 60.5053L1328.87 61.9424L1328.44 63.3795C1330.37 63.9551 1332.29 64.5344 1334.21 65.1174L1334.64 63.6824ZM1323.15 60.2457L1323.58 58.8066C1321.68 58.2482 1319.77 57.6933 1317.87 57.1421L1317.45 58.5832L1317.03 60.0242C1318.94 60.5741 1320.84 61.1277 1322.73 61.6848L1323.15 60.2457ZM1311.72 56.9423L1312.13 55.4994C1310.22 54.9554 1308.3 54.415 1306.37 53.8783L1305.97 55.3231L1305.57 56.7679C1307.49 57.3034 1309.4 57.8425 1311.31 58.3852L1311.72 56.9423ZM1300.2 53.7258L1300.59 52.2792C1298.66 51.7498 1296.73 51.2241 1294.79 50.702L1294.4 52.1505L1294.01 53.5989C1295.94 54.1198 1297.87 54.6443 1299.8 55.1725L1300.2 53.7258ZM1288.57 50.5971L1288.96 49.147C1287.04 48.6404 1285.12 48.1375 1283.2 47.6381L1282.82 49.09L1282.44 50.5419C1284.36 51.0401 1286.28 51.5419 1288.19 52.0473L1288.57 50.5971ZM1277.06 47.6087L1277.43 46.1552C1275.51 45.6644 1273.58 45.1773 1271.64 44.6938L1271.28 46.1489L1270.92 47.604C1272.85 48.0865 1274.77 48.5726 1276.69 49.0622L1277.06 47.6087ZM1265.48 44.7107L1265.84 43.254C1263.9 42.7777 1261.95 42.305 1260.01 41.8359L1259.65 43.2942L1259.3 44.7525C1261.25 45.2205 1263.18 45.6922 1265.12 46.1674L1265.48 44.7107ZM1253.81 41.8995L1254.15 40.4397C1252.2 39.9779 1250.24 39.5198 1248.28 39.0654L1247.94 40.5267L1247.6 41.988C1249.56 42.4414 1251.51 42.8985 1253.46 43.3593L1253.81 41.8995ZM1242.15 39.1981L1242.48 37.7354C1240.55 37.2961 1238.61 36.8604 1236.67 36.4283L1236.35 37.8924L1236.02 39.3565C1237.96 39.7878 1239.89 40.2225 1241.82 40.6608L1242.15 39.1981ZM1230.52 36.6081L1230.84 35.1426C1228.9 34.7176 1226.94 34.2962 1224.99 33.8785L1224.68 35.3453L1224.36 36.8121C1226.31 37.229 1228.26 37.6495 1230.2 38.0736L1230.52 36.6081ZM1218.81 34.104L1219.12 32.6359C1217.16 32.2253 1215.2 31.8183 1213.23 31.415L1212.93 32.8844L1212.63 34.3538C1214.59 34.7563 1216.55 35.1624 1218.51 35.5721L1218.81 34.104ZM1207.03 31.6865L1207.32 30.2159C1205.38 29.8258 1203.43 29.4393 1201.48 29.0564L1201.19 30.5282L1200.91 32.0001C1202.85 32.3823 1204.79 32.768 1206.73 33.1572L1207.03 31.6865ZM1195.35 29.3931L1195.64 27.9201C1193.69 27.5448 1191.73 27.1732 1189.77 26.8051L1189.5 28.2793L1189.22 29.7534C1191.17 30.1208 1193.12 30.4917 1195.07 30.8661L1195.35 29.3931ZM1183.62 27.1868L1183.89 25.7115C1181.92 25.3505 1179.96 24.9931 1177.99 24.6394L1177.72 26.1157L1177.46 27.5921C1179.42 27.9452 1181.39 28.3018 1183.35 28.6621L1183.62 27.1868ZM1171.81 25.0663L1172.07 23.5888C1170.09 23.2422 1168.11 22.8992 1166.13 22.5599L1165.88 24.0384L1165.63 25.5169C1167.6 25.8555 1169.58 26.1978 1171.55 26.5437L1171.81 25.0663ZM1160 23.0441L1160.25 21.5646C1158.29 21.2377 1156.33 20.9144 1154.37 20.5946L1154.13 22.075L1153.89 23.5555C1155.85 23.8746 1157.8 24.1973 1159.75 24.5235L1160 23.0441ZM1148.24 21.1272L1148.48 19.6458C1146.51 19.3331 1144.54 19.0239 1142.57 18.7183L1142.34 20.2006L1142.11 21.6829C1144.08 21.9879 1146.05 22.2965 1148.01 22.6086L1148.24 21.1272ZM1136.42 19.2953L1136.65 17.8121C1134.67 17.5136 1132.69 17.2187 1130.7 16.9274L1130.49 18.4115L1130.27 19.8956C1132.25 20.1863 1134.22 20.4806 1136.2 20.7785L1136.42 19.2953ZM1124.53 17.5491L1124.75 16.0642C1122.77 15.7821 1120.79 15.5036 1118.81 15.2286L1118.61 16.7143L1118.4 18.2001C1120.38 18.4745 1122.35 18.7525 1124.32 19.0341L1124.53 17.5491ZM1112.72 15.9074L1112.92 14.4209C1110.95 14.1551 1108.98 13.8929 1107 13.6342L1106.81 15.1215L1106.61 16.6088C1108.58 16.867 1110.55 17.1287 1112.51 17.3939L1112.72 15.9074ZM1100.88 14.3568L1101.07 12.8688C1099.1 12.6172 1097.11 12.3692 1095.13 12.1247L1094.95 13.6134L1094.76 15.1021C1096.74 15.3462 1098.72 15.5937 1100.7 15.8449L1100.88 14.3568ZM1088.99 12.8913L1089.17 11.4018C1087.18 11.1645 1085.19 10.9307 1083.2 10.7004L1083.03 12.1905L1082.85 13.6806C1084.84 13.9104 1086.83 14.1438 1088.82 14.3807L1088.99 12.8913ZM1077.05 11.5121L1077.22 10.0214C1075.25 9.80152 1073.28 9.58518 1071.3 9.37234L1071.14 10.8637L1070.98 12.3551C1072.95 12.5675 1074.92 12.7834 1076.89 13.0028L1077.05 11.5121ZM1065.22 10.2363L1065.38 8.74437C1063.4 8.53856 1061.42 8.33627 1059.43 8.13751L1059.28 9.63003L1059.13 11.1226C1061.11 11.3209 1063.09 11.5229 1065.07 11.7283L1065.22 10.2363ZM1053.33 9.04489L1053.48 7.55181C1051.49 7.36012 1049.5 7.17197 1047.51 6.98738L1047.37 8.48098L1047.23 9.97458C1049.22 10.1588 1051.21 10.3466 1053.19 10.538L1053.33 9.04489ZM1041.39 7.93838L1041.53 6.44428C1039.53 6.2668 1037.53 6.09289 1035.53 5.92256L1035.4 7.41715L1035.27 8.91174C1037.27 9.08176 1039.27 9.25534 1041.26 9.43249L1041.39 7.93838ZM1029.45 6.92134L1029.57 5.42628C1027.59 5.2653 1025.61 5.10782 1023.63 4.95384L1023.51 6.44934L1023.4 7.94483C1025.38 8.09852 1027.35 8.25572 1029.33 8.41639L1029.45 6.92134ZM1017.57 5.99834L1017.68 4.50243C1015.69 4.35547 1013.71 4.21203 1011.72 4.07213L1011.61 5.56843L1011.51 7.06474C1013.49 7.20439 1015.48 7.34756 1017.46 7.49425L1017.57 5.99834ZM1005.64 5.15968L1005.74 3.66299C1003.75 3.53015 1001.75 3.40085 999.753 3.2751L999.658 4.77214L999.564 6.26918C1001.56 6.3947 1003.55 6.52376 1005.54 6.65636L1005.64 5.15968ZM993.664 4.4059L993.753 2.90853C991.751 2.7899 989.747 2.67484 987.742 2.56335L987.659 4.06104L987.575 5.55873C989.577 5.67001 991.577 5.78486 993.576 5.90328L993.664 4.4059ZM981.719 3.74165L981.797 2.24367C979.814 2.14061 977.828 2.04105 975.841 1.945L975.769 3.44325L975.697 4.9415C977.68 5.03738 979.661 5.13676 981.641 5.23963L981.719 3.74165ZM969.808 3.16586L969.875 1.66736C967.884 1.57833 965.892 1.49282 963.897 1.41084L963.836 2.90957L963.774 4.4083C965.765 4.49014 967.754 4.5755 969.741 4.66436L969.808 3.16586ZM957.853 2.67444L957.909 1.17549C955.911 1.10058 953.912 1.02921 951.91 0.961387L951.859 2.46053L951.809 3.95967C953.806 4.02736 955.802 4.09861 957.797 4.17338L957.853 2.67444ZM945.855 2.26791L945.901 0.7686C943.903 0.708117 941.904 0.651173 939.903 0.597778L939.863 2.09724L939.823 3.59671C941.82 3.65001 943.816 3.70685 945.81 3.76723L945.855 2.26791ZM933.912 1.94907L933.947 0.449469C931.96 0.403527 929.972 0.361083 927.982 0.322149L927.952 1.82186L927.923 3.32157C929.91 3.36044 931.894 3.40281 933.878 3.44867L933.912 1.94907ZM921.982 1.71569L922.006 0.215883C920.013 0.183977 918.018 0.155592 916.021 0.130737L916.003 1.63062L915.984 3.1305C917.977 3.15531 919.969 3.18365 921.958 3.2155L921.982 1.71569ZM910.014 1.56672L910.027 0.0667778C908.027 0.0489962 906.026 0.0347566 904.023 0.02407L904.015 1.52405L904.007 3.02403C906.006 3.03469 908.004 3.04891 910 3.06666L910.014 1.56672ZM898.007 1.50268L898.01 0.0026802C897.006 0.000893859 896.002 0 894.997 0C893.993 0 892.99 0.000892356 891.987 0.0026757L891.99 1.50267L891.992 3.00267C892.994 3.00089 893.995 3 894.997 3C896 3 897.002 3.00089 898.004 3.00268L898.007 1.50268ZM885.982 1.52404L885.974 0.0240569C883.971 0.0347405 881.969 0.048977 879.97 0.0667555L879.983 1.5667L879.996 3.06664C881.993 3.04889 883.99 3.03468 885.99 3.02401L885.982 1.52404ZM873.994 1.63059L873.975 0.130707C871.979 0.155558 869.984 0.183941 867.99 0.215844L868.014 1.71565L868.038 3.21546C870.028 3.18361 872.02 3.15528 874.013 3.13047L873.994 1.63059ZM862.044 1.82182L862.015 0.322103C860.025 0.361035 858.036 0.403476 856.049 0.449416L856.084 1.94901L856.119 3.44861C858.102 3.40276 860.087 3.36039 862.074 3.32153L862.044 1.82182ZM844.096 0.768529C846.094 0.70805 848.093 0.651109 850.094 0.597717L850.134 2.09718L850.174 3.59665C848.176 3.64995 846.181 3.70678 844.187 3.76716L844.141 2.26784L844.096 0.768529ZM838.137 2.46045L838.086 0.96131C836.085 1.02913 834.085 1.10049 832.087 1.1754L832.144 2.67435L832.2 4.1733C834.194 4.09852 836.19 4.02728 838.188 3.95959L838.137 2.46045ZM826.161 2.90948L826.099 1.41075C824.105 1.49273 822.112 1.57823 820.122 1.66726L820.189 3.16577L820.256 4.66427C822.243 4.5754 824.232 4.49005 826.222 4.40821L826.161 2.90948ZM814.227 3.44314L814.155 1.94489C812.168 2.04094 810.183 2.1405 808.2 2.24356L808.277 3.74154L808.355 5.23952C810.335 5.13665 812.316 5.03727 814.3 4.94139L814.227 3.44314ZM802.338 4.06092L802.255 2.56323C800.249 2.67472 798.245 2.78978 796.243 2.90841L796.332 4.40578L796.421 5.90316C798.419 5.78474 800.419 5.66989 802.421 5.55861L802.338 4.06092ZM790.338 4.77201L790.244 3.27497C788.246 3.40072 786.25 3.53002 784.256 3.66286L784.356 5.15954L784.456 6.65622C786.446 6.52362 788.438 6.39456 790.432 6.26905L790.338 4.77201ZM778.386 5.56829L778.281 4.07198C776.291 4.21189 774.303 4.35533 772.317 4.50229L772.428 5.9982L772.538 7.49411C774.521 7.34742 776.505 7.20425 778.491 7.0646L778.386 5.56829ZM766.482 6.44919L766.366 4.95369C764.384 5.10767 762.404 5.26516 760.427 5.42613L760.549 6.92119L760.67 8.41624C762.644 8.25556 764.62 8.09837 766.598 7.94468L766.482 6.44919ZM754.594 7.41699L754.467 5.9224C752.466 6.09273 750.467 6.26663 748.471 6.44411L748.604 7.93821L748.737 9.43232C750.729 9.25518 752.724 9.0816 754.721 8.91159L754.594 7.41699ZM742.627 8.48081L742.488 6.98721C740.496 7.17181 738.506 7.35995 736.519 7.55164L736.663 9.04472L736.807 10.5378C738.791 10.3465 740.777 10.1587 742.765 9.97441L742.627 8.48081ZM730.713 9.62985L730.563 8.13733C728.58 8.33609 726.599 8.53839 724.62 8.7442L724.776 10.2361L724.931 11.7281C726.906 11.5227 728.883 11.3208 730.862 11.1224L730.713 9.62985ZM718.852 10.8635L718.692 9.37216C716.718 9.585 714.746 9.80133 712.777 10.0212L712.943 11.5119L713.109 13.0026C715.075 12.7832 717.043 12.5673 719.013 12.3549L718.852 10.8635ZM706.969 12.1903L706.797 10.7002C704.803 10.9305 702.812 11.1643 700.824 11.4016L701.001 12.8911L701.179 14.3805C703.164 14.1436 705.151 13.9102 707.141 13.6804L706.969 12.1903ZM695.049 13.6132L694.865 12.1245C692.882 12.369 690.901 12.617 688.922 12.8686L689.111 14.3566L689.3 15.8447C691.275 15.5935 693.253 15.346 695.232 15.1019L695.049 13.6132ZM683.188 15.1213L682.993 13.6341C681.02 13.8927 679.048 14.1549 677.08 14.4207L677.28 15.9072L677.481 17.3937C679.446 17.1285 681.413 16.8668 683.383 16.6086L683.188 15.1213ZM671.388 16.7141L671.181 15.2284C669.202 15.5034 667.225 15.7819 665.25 16.064L665.462 17.5489L665.675 19.0339C667.645 18.7523 669.618 18.4743 671.594 18.1999L671.388 16.7141ZM659.51 18.4113L659.292 16.9272C657.309 17.2185 655.328 17.5134 653.351 17.8119L653.574 19.2951L653.798 20.7783C655.772 20.4804 657.749 20.1861 659.728 19.8954L659.51 18.4113ZM647.655 20.2004L647.425 18.7181C645.453 19.0237 643.483 19.3329 641.516 19.6456L641.751 21.127L641.987 22.6084C643.95 22.2963 645.916 21.9877 647.884 21.6827L647.655 20.2004ZM635.865 22.0748L635.623 20.5944C633.662 20.9142 631.703 21.2375 629.747 21.5644L629.995 23.0439L630.242 24.5233C632.194 24.1971 634.149 23.8744 636.106 23.5553L635.865 22.0748ZM624.117 24.0382L623.864 22.5597C621.882 22.899 619.903 23.242 617.927 23.5886L618.186 25.0661L618.445 26.5435C620.417 26.1976 622.392 25.8553 624.37 25.5167L624.117 24.0382ZM612.273 26.1156L612.008 24.6392C610.038 24.993 608.07 25.3503 606.106 25.7113L606.378 27.1866L606.649 28.6619C608.609 28.3017 610.572 27.945 612.538 27.5919L612.273 26.1156ZM600.5 28.2791L600.223 26.8049C598.265 27.173 596.31 27.5447 594.358 27.9199L594.641 29.3929L594.924 30.8659C596.872 30.4915 598.823 30.1206 600.777 29.7532L600.5 28.2791ZM588.8 30.528L588.511 29.0562C586.562 29.4391 584.616 29.8257 582.673 30.2157L582.968 31.6864L583.263 33.157C585.202 32.7678 587.144 32.3821 589.089 31.9999L588.8 30.528ZM577.065 32.8842L576.764 31.4148C574.797 31.8181 572.834 32.2251 570.874 32.6357L571.181 34.1038L571.489 35.572C573.445 35.1622 575.404 34.7561 577.366 34.3536L577.065 32.8842ZM565.317 35.3451L565.004 33.8783C563.05 34.2961 561.1 34.7175 559.153 35.1424L559.473 36.6079L559.793 38.0734C561.736 37.6493 563.682 37.2288 565.631 36.8119L565.317 35.3451ZM553.649 37.8922L553.323 36.4281C551.383 36.8603 549.446 37.296 547.513 37.7352L547.845 39.198L548.177 40.6607C550.107 40.2224 552.039 39.7876 553.975 39.3564L553.649 37.8922ZM535.842 40.4395C537.797 39.9778 539.754 39.5197 541.716 39.0652L542.054 40.5265L542.393 41.9878C540.436 42.4413 538.482 42.8984 536.532 43.3591L536.187 41.8993L535.842 40.4395ZM530.341 43.294L529.99 41.8358C528.043 42.3048 526.099 42.7775 524.159 43.2538L524.517 44.7105L524.874 46.1673C526.81 45.692 528.749 45.2204 530.692 44.7523L530.341 43.294ZM518.714 46.1487L518.35 44.6936C516.417 45.1771 514.488 45.6643 512.563 46.155L512.933 47.6086L513.304 49.0621C515.225 48.5724 517.15 48.0864 519.078 47.6039L518.714 46.1487ZM507.174 49.0899L506.797 47.638C504.874 48.1374 502.954 48.6403 501.038 49.1468L501.421 50.597L501.805 52.0472C503.716 51.5418 505.632 51.04 507.551 50.5418L507.174 49.0899ZM495.599 52.1504L495.209 50.7019C493.269 51.224 491.334 51.7497 489.403 52.2791L489.799 53.7257L490.196 55.1724C492.123 54.6442 494.054 54.1197 495.988 53.5988L495.599 52.1504ZM484.024 55.323L483.621 53.8782C481.697 54.4149 479.778 54.9553 477.862 55.4993L478.272 56.9422L478.682 58.3851C480.593 57.8424 482.508 57.3033 484.427 56.7679L484.024 55.323ZM472.545 58.5831L472.128 57.142C470.221 57.6933 468.317 58.2481 466.418 58.8065L466.841 60.2456L467.264 61.6847C469.159 61.1276 471.058 60.5741 472.961 60.0241L472.545 58.5831ZM461.12 61.9423L460.69 60.5052C458.761 61.0822 456.836 61.6629 454.916 62.2473L455.352 63.6823L455.789 65.1173C457.705 64.5343 459.625 63.955 461.55 63.3794L461.12 61.9423ZM449.611 65.4445L449.167 64.0116C447.255 64.6034 445.348 65.1989 443.445 65.798L443.895 67.2288L444.346 68.6596C446.244 68.0619 448.147 67.4678 450.054 66.8774L449.611 65.4445ZM438.206 69.0351L437.748 67.6065C435.854 68.213 433.964 68.8232 432.078 69.4369L432.542 70.8633L433.007 72.2896C434.888 71.6774 436.773 71.0687 438.663 70.4637L438.206 69.0351ZM426.906 72.7132L426.435 71.2891C424.529 71.9196 422.629 72.5538 420.732 73.1917L421.211 74.6134L421.689 76.0351C423.58 75.3988 425.476 74.7662 427.377 74.1373L426.906 72.7132ZM415.511 76.5469L415.026 75.1276C413.128 75.7767 411.235 76.4295 409.347 77.086L409.84 78.5028L410.332 79.9196C412.216 79.2647 414.104 78.6136 415.996 77.9662L415.511 76.5469ZM404.197 80.4809L403.697 79.0666C401.818 79.7305 399.944 80.3981 398.075 81.0694L398.582 82.4811L399.089 83.8929C400.953 83.2233 402.823 82.5574 404.696 81.8952L404.197 80.4809ZM392.997 84.5034L392.482 83.0943C390.614 83.7761 388.751 84.4616 386.893 85.1507L387.415 86.5571L387.936 87.9635C389.79 87.2762 391.648 86.5925 393.511 85.9125L392.997 84.5034ZM381.766 88.6689L381.237 87.2653C379.357 87.974 377.482 88.6864 375.612 89.4026L376.149 90.8034L376.685 92.2041C378.55 91.4899 380.42 90.7793 382.295 90.0725L381.766 88.6689ZM370.562 92.9604L370.018 91.5625C368.159 92.2862 366.304 93.0137 364.455 93.7448L365.007 95.1397L365.558 96.5346C367.402 95.8055 369.252 95.08 371.106 94.3582L370.562 92.9604ZM359.483 97.3414L358.924 95.9495C357.085 96.6881 355.252 97.4304 353.424 98.1764L353.991 99.5652L354.558 100.954C356.38 100.21 358.209 99.4698 360.042 98.7333L359.483 97.3414ZM348.425 101.855L347.851 100.469C345.992 101.24 344.138 102.015 342.291 102.793L342.873 104.175L343.455 105.558C345.298 104.781 347.146 104.009 349 103.24L348.425 101.855ZM337.355 106.519L336.764 105.14C334.928 105.926 333.097 106.716 331.272 107.51L331.87 108.885L332.469 110.261C334.288 109.469 336.114 108.682 337.945 107.898L337.355 106.519ZM326.42 111.274L325.814 109.902C324.001 110.703 322.193 111.508 320.391 112.317L321.005 113.685L321.619 115.054C323.416 114.247 325.218 113.445 327.027 112.646L326.42 111.274ZM315.546 116.155L314.923 114.79C313.09 115.626 311.263 116.465 309.442 117.309L310.072 118.67L310.703 120.031C312.518 119.19 314.34 118.353 316.168 117.519L315.546 116.155ZM304.636 121.208L303.997 119.851C302.189 120.702 300.386 121.558 298.59 122.417L299.237 123.77L299.884 125.123C301.675 124.267 303.472 123.414 305.275 122.566L304.636 121.208ZM293.876 126.354L293.22 125.005C291.437 125.871 289.659 126.742 287.888 127.616L288.552 128.961L289.216 130.306C290.981 129.435 292.753 128.567 294.531 127.703L293.876 126.354ZM283.196 131.625L282.524 130.284C280.722 131.188 278.926 132.096 277.137 133.008L277.819 134.344L278.5 135.681C280.283 134.772 282.072 133.867 283.869 132.966L283.196 131.625ZM272.481 137.086L271.791 135.754C270.016 136.674 268.247 137.597 266.486 138.525L267.184 139.852L267.883 141.179C269.639 140.255 271.402 139.335 273.171 138.418L272.481 137.086ZM261.929 142.64L261.221 141.318C259.474 142.253 257.732 143.191 255.998 144.134L256.715 145.452L257.431 146.77C259.159 145.83 260.894 144.895 262.636 143.963L261.929 142.64ZM251.462 148.33L250.737 147.017C248.972 147.992 247.214 148.971 245.464 149.954L246.199 151.262L246.933 152.57C248.677 151.591 250.429 150.615 252.187 149.643L251.462 148.33ZM240.98 154.218L240.236 152.915C238.501 153.906 236.773 154.901 235.053 155.9L235.806 157.197L236.559 158.494C238.273 157.499 239.995 156.508 241.724 155.52L240.98 154.218ZM224.821 161.939C226.512 160.924 228.209 159.914 229.915 158.907L230.677 160.199L231.439 161.491C229.74 162.494 228.049 163.5 226.365 164.511L225.593 163.225L224.821 161.939ZM220.445 166.34L219.664 165.06C217.944 166.11 216.232 167.163 214.529 168.221L215.32 169.495L216.111 170.77C217.808 169.716 219.513 168.666 221.226 167.621L220.445 166.34ZM210.244 172.674L209.443 171.406C207.755 172.471 206.076 173.541 204.405 174.614L205.216 175.876L206.027 177.138C207.691 176.069 209.364 175.004 211.045 173.942L210.244 172.674ZM194.454 181.119C196.1 180.024 197.755 178.934 199.418 177.847L200.238 179.102L201.059 180.358C199.403 181.44 197.755 182.527 196.115 183.617L195.285 182.368L194.454 181.119ZM190.272 185.732L189.431 184.49C187.766 185.617 186.109 186.749 184.462 187.885L185.313 189.12L186.164 190.355C187.805 189.224 189.455 188.097 191.113 186.974L190.272 185.732ZM180.407 192.531L179.545 191.304C177.916 192.447 176.295 193.595 174.683 194.747L175.555 195.967L176.427 197.188C178.032 196.041 179.646 194.898 181.269 193.759L180.407 192.531ZM170.757 199.427L169.875 198.214C168.249 199.397 166.633 200.584 165.026 201.775L165.919 202.98L166.813 204.185C168.412 202.999 170.021 201.817 171.64 200.64L170.757 199.427ZM161.1 206.586L160.196 205.389C158.596 206.598 157.005 207.811 155.424 209.028L156.339 210.217L157.254 211.405C158.828 210.194 160.411 208.986 162.004 207.783L161.1 206.586ZM151.637 213.872L150.711 212.692C149.15 213.917 147.598 215.146 146.057 216.38L146.994 217.551L147.931 218.722C149.465 217.495 151.009 216.271 152.563 215.052L151.637 213.872ZM142.361 221.294L141.413 220.132C139.848 221.409 138.293 222.69 136.749 223.976L137.709 225.128L138.669 226.281C140.205 225.002 141.752 223.727 143.309 222.456L142.361 221.294ZM133.121 228.987L132.15 227.844C130.627 229.138 129.116 230.435 127.614 231.737L128.597 232.87L129.58 234.004C131.073 232.708 132.578 231.417 134.092 230.13L133.121 228.987ZM124.138 236.778L123.144 235.655C121.656 236.972 120.179 238.294 118.713 239.62L119.719 240.732L120.725 241.845C122.183 240.526 123.652 239.212 125.132 237.901L124.138 236.778ZM115.266 244.802L114.248 243.701C112.772 245.065 111.307 246.434 109.854 247.807L110.884 248.897L111.914 249.988C113.359 248.622 114.816 247.261 116.285 245.904L115.266 244.802ZM106.572 253.017L105.529 251.938C104.1 253.319 102.682 254.704 101.276 256.094L102.33 257.161L103.384 258.228C104.782 256.846 106.192 255.469 107.614 254.096L106.572 253.017ZM98.1395 261.349L97.0731 260.294C95.6513 261.732 94.2421 263.173 92.8456 264.619L93.9246 265.661L95.0035 266.703C96.3917 265.266 97.7926 263.833 99.206 262.404L98.1395 261.349ZM89.7857 269.999L88.6942 268.97C87.3232 270.424 85.9649 271.883 84.6194 273.346L85.7234 274.361L86.8274 275.377C88.1645 273.923 89.5145 272.473 90.8772 271.028L89.7857 269.999ZM81.7382 278.748L80.6217 277.746C79.292 279.228 77.9754 280.715 76.672 282.205L77.8012 283.193L78.9303 284.18C80.2253 282.699 81.5335 281.222 82.8547 279.75L81.7382 278.748ZM73.8666 287.752L72.7245 286.779C71.4225 288.308 70.1343 289.841 68.8601 291.379L70.0149 292.336L71.1698 293.293C72.4355 291.766 73.7151 290.243 75.0086 288.724L73.8666 287.752ZM66.2467 296.945L65.0791 296.003C63.8327 297.549 62.6003 299.099 61.3821 300.653L62.5625 301.578L63.743 302.504C64.9528 300.96 66.1766 299.421 67.4144 297.886L66.2467 296.945ZM58.9145 306.299L57.7212 305.39C56.5 306.994 55.2937 308.602 54.1025 310.214L55.3089 311.105L56.5152 311.997C57.6978 310.396 58.8954 308.8 60.1079 307.208L58.9145 306.299ZM51.7933 315.936L50.574 315.063C49.413 316.683 48.2671 318.308 47.1364 319.937L48.3686 320.792L49.6008 321.647C50.7229 320.031 51.8602 318.418 53.0127 316.81L51.7933 315.936ZM45.0351 325.672L43.7901 324.835C42.6664 326.507 41.5586 328.183 40.4669 329.864L41.7248 330.681L42.9827 331.498C44.0658 329.831 45.1649 328.168 46.28 326.508L45.0351 325.672ZM38.5013 335.73L37.2306 334.933C36.1681 336.627 35.1219 338.325 34.092 340.027L35.3754 340.804L36.6588 341.58C37.6802 339.892 38.718 338.207 39.772 336.527L38.5013 335.73ZM28.0888 350.327C29.0596 348.596 30.0474 346.869 31.0518 345.146L32.3477 345.901L33.6437 346.657C32.6475 348.365 31.6681 350.078 30.7054 351.795L29.3971 351.061L28.0888 350.327ZM26.5077 356.319L25.187 355.607C24.2372 357.371 23.3047 359.14 22.3899 360.912L23.7228 361.6L25.0556 362.288C25.9625 360.531 26.8868 358.779 27.8284 357.03L26.5077 356.319ZM21.0429 366.905L19.6981 366.24C18.8185 368.021 17.9565 369.805 17.1123 371.593L18.4687 372.233L19.8251 372.874C20.6617 371.102 21.5159 369.334 22.3877 367.569L21.0429 366.905ZM15.9606 377.674L14.5926 377.059C13.77 378.887 12.9658 380.72 12.1804 382.556L13.5595 383.146L14.9387 383.736C15.7168 381.917 16.5134 380.101 17.3285 378.289L15.9606 377.674ZM11.27 388.642L9.88 388.078C9.13195 389.922 8.40267 391.77 7.69228 393.622L9.09278 394.16L10.4933 394.697C11.1968 392.863 11.9191 391.032 12.66 389.205L11.27 388.642ZM7.01292 399.743L5.60226 399.233C4.92085 401.118 4.25897 403.007 3.61673 404.899L5.03718 405.381L6.45762 405.863C7.09349 403.99 7.74885 402.119 8.42358 400.253L7.01292 399.743ZM3.17884 411.042L1.74906 410.589C1.14624 412.489 0.563178 414.392 0 416.3L1.43861 416.725L2.87721 417.149C3.43467 415.261 4.01184 413.377 4.60861 411.496L3.17884 411.042Z" fill="#8E8686"/>
</svg>
