<svg width="1245" height="197" fill="none" xmlns="http://www.w3.org/2000/svg"><path opacity=".5" fill-rule="evenodd" clip-rule="evenodd" d="M1244.44 197c-.16-.203-.31-.406-.47-.608l-.78.608h1.25ZM1.255 197l-.786-.608L0 197h1.255Zm2.47-3.122-.78-.627a230.826 230.826 0 0 1 2.514-3.073l.768.64.77.64a226.873 226.873 0 0 0-2.492 3.046l-.78-.626Zm5.08-6.104-.757-.653a246.793 246.793 0 0 1 2.664-3.04l.746.665.747.665a242.412 242.412 0 0 0-2.642 3.016l-.758-.653Zm5.305-5.957-.736-.677c.894-.972 1.8-1.942 2.717-2.909l.725.689.726.688a256.06 256.06 0 0 0-2.696 2.885l-.736-.676Zm5.481-5.779-.715-.699c.939-.96 1.89-1.918 2.85-2.873l.706.71.704.709c-.955.948-1.898 1.899-2.83 2.852l-.715-.699Zm5.653-5.616-.695-.72a305.72 305.72 0 0 1 2.885-2.748l.685.729.685.729c-.966.907-1.92 1.817-2.866 2.729l-.694-.719Zm5.813-5.463-.675-.737c.99-.906 1.99-1.808 3-2.708l.666.747.665.746a306.797 306.797 0 0 0-2.98 2.69l-.676-.738Zm5.948-5.3-.655-.755c.998-.868 2.007-1.733 3.024-2.595l.647.763.646.763a307.796 307.796 0 0 0-3.006 2.579l-.656-.755Zm6.088-5.159-.637-.771c1.036-.856 2.08-1.71 3.135-2.562l.628.779.628.778a342.428 342.428 0 0 0-3.116 2.546l-.638-.77Zm6.204-5.011-.619-.785a362.412 362.412 0 0 1 3.14-2.45l.61.792.61.792c-1.048.809-2.09 1.621-3.121 2.436l-.62-.785Zm6.314-4.871-.603-.798a383.339 383.339 0 0 1 3.243-2.419l.594.804.594.805c-1.084.8-2.16 1.602-3.226 2.407l-.602-.799Zm6.43-4.746-.586-.811c1.07-.772 2.148-1.543 3.233-2.311l.578.817.577.816c-1.08.764-2.152 1.531-3.217 2.3l-.585-.811Zm6.497-4.597-.57-.822c1.102-.763 2.211-1.524 3.328-2.282l.562.828.561.827a441.342 441.342 0 0 0-3.311 2.271l-.57-.822Zm6.634-4.504-.554-.833c1.096-.729 2.2-1.456 3.31-2.181l.546.838.547.837a426.975 426.975 0 0 0-3.295 2.171l-.554-.832Zm6.648-4.339-.54-.842c1.126-.72 2.257-1.437 3.397-2.153l.531.847.532.847a449.738 449.738 0 0 0-3.381 2.144l-.54-.843Zm6.82-4.282-.525-.851a503.562 503.562 0 0 1 3.374-2.06l.517.856.518.856a461.334 461.334 0 0 0-3.36 2.051l-.525-.852Zm6.771-4.096-.51-.859c1.143-.68 2.294-1.357 3.45-2.031l.504.863.504.864a525.399 525.399 0 0 0-3.437 2.023l-.51-.86Zm6.928-4.04-.498-.868a499.471 499.471 0 0 1 3.493-1.982l.49.871.491.872a495.507 495.507 0 0 0-3.479 1.975l-.497-.868Zm6.938-3.905-.484-.875c1.159-.641 2.324-1.28 3.495-1.916l.478.878.477.879a517.69 517.69 0 0 0-3.482 1.909l-.484-.875Zm7.013-3.812-.471-.882a541.213 541.213 0 0 1 3.567-1.89l.465.885.465.886a513.327 513.327 0 0 0-3.554 1.883l-.472-.882Zm7.098-3.729-.459-.888a580.942 580.942 0 0 1 3.531-1.809l.453.892.453.891c-1.179.599-2.352 1.2-3.519 1.803l-.459-.889Zm7.082-3.598-.447-.894c1.194-.597 2.393-1.191 3.597-1.783l.441.897.441.898c-1.2.59-2.395 1.182-3.585 1.777l-.447-.895Zm7.214-3.546-.435-.9a607.726 607.726 0 0 1 3.596-1.725l.429.903.43.903c-1.2.57-2.395 1.144-3.585 1.72l-.435-.901Zm7.174-3.414-.424-.906a662.02 662.02 0 0 1 3.62-1.681l.418.908.419.908a658.002 658.002 0 0 0-3.609 1.677l-.424-.906Zm7.258-3.345-.413-.911a676.425 676.425 0 0 1 3.68-1.656l.407.913.408.913a639.323 639.323 0 0 0-3.668 1.651l-.414-.91Zm7.321-3.27-.402-.915a704.64 704.64 0 0 1 3.637-1.587l.398.918.397.918a672.928 672.928 0 0 0-3.627 1.582l-.403-.916Zm7.293-3.156-.392-.92a726.38 726.38 0 0 1 3.692-1.562l.387.922.387.922a722.451 722.451 0 0 0-3.682 1.558l-.392-.92Zm7.402-3.107-.382-.924c1.233-.51 2.471-1.017 3.713-1.522l.377.926.376.927c-1.238.504-2.472 1.01-3.702 1.518l-.382-.925Zm7.38-3.003-.373-.928c1.23-.493 2.465-.984 3.703-1.472l.367.93.367.93c-1.235.487-2.466.977-3.692 1.469l-.372-.929Zm7.42-2.929-.363-.932c1.247-.485 2.498-.967 3.753-1.448l.358.934.357.934c-1.251.48-2.499.96-3.743 1.444l-.362-.932Zm7.519-2.88-.353-.935c1.232-.465 2.469-.928 3.709-1.388l.348.937.349.937c-1.238.46-2.471.922-3.7 1.386l-.353-.936Zm7.432-2.76-.343-.94c1.248-.457 2.5-.912 3.755-1.364l.34.94.339.941c-1.253.452-2.502.906-3.747 1.361l-.344-.939Zm7.526-2.715-.335-.942a888.1 888.1 0 0 1 3.802-1.34l.331.944.33.944c-1.268.443-2.533.89-3.793 1.337l-.335-.942Zm7.569-2.648-.326-.945c1.249-.43 2.501-.86 3.757-1.286l.322.947.321.947c-1.253.425-2.502.853-3.748 1.282l-.326-.945Zm7.527-2.556-.317-.948c1.263-.423 2.529-.843 3.8-1.262l.313.95.313.95c-1.268.417-2.532.837-3.792 1.258l-.317-.948Zm7.612-2.509-.308-.95c1.277-.416 2.557-.828 3.842-1.239l.304.953.305.952c-1.282.41-2.56.822-3.834 1.235l-.309-.95Zm7.616-2.435-.3-.954c1.262-.398 2.527-.794 3.796-1.187l.297.955.296.955c-1.266.393-2.529.788-3.788 1.184l-.301-.953Zm7.605-2.36-.292-.957a978 978 0 0 1 3.835-1.164l.289.958.288.958c-1.279.385-2.555.772-3.828 1.16l-.292-.955Zm7.683-2.314-.284-.959c1.283-.38 2.569-.759 3.858-1.135l.28.96.281.96c-1.287.375-2.57.753-3.85 1.133l-.285-.959Zm7.661-2.238-.276-.96c1.273-.367 2.55-.732 3.829-1.094l.273.962.272.962c-1.276.362-2.55.726-3.821 1.091l-.277-.96Zm7.669-2.173-.268-.963a969.43 969.43 0 0 1 3.865-1.07l.265.964.265.964c-1.289.355-2.575.71-3.858 1.069l-.269-.964Zm7.741-2.127-.261-.965c1.289-.349 2.58-.695 3.875-1.04l.257.966.257.967c-1.292.344-2.58.69-3.866 1.038l-.262-.966Zm7.706-2.052-.253-.968c1.282-.336 2.568-.67 3.856-1.003l.25.968.25.968c-1.286.332-2.569.666-3.849 1.002l-.254-.967Zm7.722-1.994-.247-.97c1.294-.328 2.591-.655 3.89-.98l.242.97.243.97c-1.297.325-2.591.65-3.882.98l-.246-.97Zm7.788-1.949-.239-.97c1.295-.32 2.594-.637 3.895-.952l.235.972.236.972c-1.299.315-2.595.631-3.888.95l-.239-.972Zm7.75-1.878-.232-.972c1.29-.308 2.583-.614 3.878-.918l.229.974.228.974c-1.293.303-2.583.608-3.871.915l-.232-.973Zm7.765-1.821-.225-.975c1.3-.3 2.603-.598 3.908-.895l.222.976.221.975c-1.303.296-2.603.593-3.902.893l-.224-.974Zm7.825-1.777-.218-.976c1.305-.292 2.611-.581 3.921-.869l.214.977.215.977c-1.307.287-2.612.576-3.914.867l-.218-.976Zm7.795-1.713-.211-.977c1.296-.28 2.595-.558 3.896-.834l.208.978.207.978c-1.298.276-2.595.553-3.889.833l-.211-.977Zm7.799-1.656-.204-.979c1.306-.272 2.614-.543 3.924-.812l.201.98.201.98c-1.308.268-2.614.538-3.917.81l-.205-.979Zm7.856-1.612-.198-.98c1.314-.265 2.631-.528 3.95-.79l.194.981.194.981c-1.316.261-2.63.524-3.942.788l-.198-.98Zm7.839-1.553-.191-.982c1.302-.253 2.605-.505 3.911-.754l.187.982.188.982c-1.303.25-2.604.5-3.903.753l-.192-.981Zm7.827-1.497L365.58 23c1.31-.246 2.622-.49 3.936-.733l.182.984.181.983c-1.312.242-2.622.486-3.93.732l-.185-.983Zm7.88-1.453-.178-.984c1.318-.239 2.639-.476 3.962-.71l.175.984.175.984c-1.321.235-2.64.472-3.956.71l-.178-.984Zm7.883-1.4-.172-.986c1.306-.227 2.613-.453 3.922-.677l.168.986.169.985c-1.307.224-2.612.45-3.915.676l-.172-.985Zm7.849-1.343-.165-.986c1.313-.22 2.628-.44 3.945-.656l.163.987.162.986c-1.315.217-2.628.435-3.939.655l-.166-.986Zm7.897-1.3-.159-.987c1.322-.213 2.645-.424 3.97-.633l.156.987.156.988c-1.323.21-2.644.42-3.963.633l-.16-.987Zm7.927-1.252-.153-.988c1.308-.203 2.619-.404 3.931-.603l.15.99.15.988c-1.31.198-2.619.399-3.925.601l-.153-.988Zm7.866-1.193-.147-.99c1.316-.195 2.634-.388 3.953-.58l.144.99.144.99c-1.317.19-2.633.384-3.947.58l-.147-.99Zm7.911-1.15-.141-.99c1.324-.188 2.649-.375 3.975-.56l.138.991.138.99c-1.325.185-2.648.371-3.969.56l-.141-.991Zm7.955-1.107-.135-.99c1.316-.18 2.633-.357 3.952-.532l.132.991.131.992c-1.317.175-2.632.352-3.945.53l-.135-.99Zm7.893-1.05-.129-.99c1.318-.172 2.637-.341 3.959-.509l.125.992.126.992c-1.319.167-2.636.337-3.952.507l-.129-.991Zm7.921-1.004-.123-.992c1.324-.165 2.65-.327 3.978-.487l.12.992.12.993c-1.326.16-2.65.322-3.972.486l-.123-.992Zm7.961-.962-.117-.993c1.328-.157 2.659-.312 3.991-.465l.114.994.114.993c-1.33.153-2.659.308-3.985.464l-.117-.993Zm7.937-.912-.111-.994c1.319-.147 2.639-.293 3.961-.437l.108.994.109.994c-1.32.144-2.639.29-3.956.437l-.111-.994Zm7.926-.864L468.465 8c1.325-.14 2.652-.28 3.98-.416l.103.995.102.994c-1.326.137-2.651.276-3.974.416l-.106-.995Zm7.965-.82-.1-.996c1.331-.133 2.664-.265 3.999-.394l.096.995.097.995c-1.332.13-2.663.261-3.993.394l-.099-.995Zm7.979-.777-.094-.995c1.32-.125 2.641-.248 3.963-.369l.092.996.091.996c-1.321.12-2.64.243-3.958.368l-.094-.996Zm7.93-.726-.088-.996c1.325-.117 2.652-.233 3.98-.347l.086.996.085.997c-1.326.114-2.651.23-3.975.347l-.088-.997Zm7.964-.683-.082-.996c1.331-.11 2.664-.22 3.998-.326l.08.996.079.997c-1.332.107-2.663.215-3.992.326l-.083-.997Zm7.999-.64-.077-.998c1.327-.102 2.655-.203 3.985-.302l.074.997.074.997c-1.327.1-2.654.2-3.979.302l-.077-.997Zm7.952-.593-.072-.997c1.326-.095 2.652-.189 3.98-.28l.069.998.069.997c-1.326.092-2.651.185-3.975.28l-.071-.998Zm7.962-.548-.066-.998c1.331-.088 2.663-.174 3.996-.259l.064.998.063.998c-1.332.084-2.662.17-3.991.258l-.066-.997Zm7.995-.507-.061-.998c1.336-.08 2.673-.16 4.012-.237l.057.998.058.998c-1.337.078-2.672.157-4.006.237l-.06-.998Zm7.992-.462-.055-.998c1.325-.073 2.651-.144 3.978-.214l.053 1 .052.998c-1.326.069-2.65.14-3.973.213l-.055-.999Zm7.959-.416-.05-.999c1.33-.065 2.661-.13 3.993-.192l.047.999.047.999c-1.33.062-2.66.126-3.988.192l-.049-.999Zm7.988-.374-.044-.999c1.334-.059 2.67-.116 4.007-.171l.041.999.042.999c-1.335.055-2.669.112-4.002.171l-.044-.999Zm8.016-.332-.039-.999c1.329-.051 2.659-.101 3.99-.149l.036 1 .036.999c-1.33.048-2.658.097-3.984.149l-.039-1Zm7.967-.286-.033-1c1.328-.044 2.658-.086 3.989-.127l.031 1 .03.999c-1.329.04-2.657.083-3.984.127l-.033-1Zm7.98-.245-.028-1c1.333-.036 2.667-.072 4.003-.105l.025 1 .025.999c-1.333.034-2.666.069-3.997.106l-.028-1Zm8.006-.202-.022-1c1.337-.03 2.675-.058 4.015-.084l.02 1 .02 1c-1.338.026-2.675.054-4.01.084l-.023-1Zm8.004-.159-.017-1c1.328-.022 2.656-.043 3.985-.063l.015 1 .015 1c-1.328.02-2.655.04-3.98.063l-.018-1Zm7.971-.116-.011-1c1.331-.016 2.663-.03 3.997-.042l.009 1 .009 1c-1.331.012-2.662.026-3.992.042l-.012-1Zm7.995-.074-.006-1c1.335-.009 2.671-.016 4.008-.021l.004 1 .004 1c-1.335.005-2.67.012-4.003.021l-.007-1Zm8.018-.032-.001-1a1516.642 1516.642 0 0 1 4.018 0l-.001 1-.001 1a1508.634 1508.634 0 0 0-4.014 0l-.001-1Zm8.028.011.004-1c1.337.005 2.673.012 4.009.021l-.007 1-.007 1c-1.333-.009-2.668-.016-4.003-.021l.004-1Zm8.006.053.01-1c1.333.012 2.665.026 3.997.042l-.012 1-.012 1c-1.33-.016-2.66-.03-3.992-.042l.009-1Zm7.983.095.015-1c1.329.02 2.658.04 3.985.063l-.017 1-.017 1c-1.326-.023-2.653-.044-3.98-.063l.014-1Zm7.974.137.02-1c1.34.027 2.678.056 4.016.086l-.023 1-.022 1c-1.336-.03-2.673-.06-4.01-.086l.019-1Zm8.019.181.026-1c1.335.034 2.669.07 4.002.107l-.028 1-.028 1c-1.331-.038-2.663-.073-3.997-.107l.025-1Zm7.994.223.03-1c1.331.042 2.661.084 3.99.128l-.034 1-.033 1a1486.82 1486.82 0 0 0-3.984-.128l.031-1Zm7.967.266.036-1c1.331.048 2.66.098 3.989.15l-.039.998-.038 1c-1.327-.052-2.655-.101-3.984-.15l.036-.998Zm7.998.309.041-1c1.337.056 2.673.113 4.008.172l-.044 1-.044.998c-1.333-.059-2.667-.116-4.002-.171l.041-1Zm8.002.353.047-.999c1.332.062 2.663.127 3.993.192l-.049 1-.05.998c-1.328-.066-2.657-.13-3.988-.192l.047-1Zm7.974.395.052-.999c1.328.07 2.654.141 3.979.214l-.055.998-.055.999c-1.323-.073-2.648-.144-3.973-.213l.052-.999Zm7.959.438.058-.998c1.338.077 2.675.156 4.011.237l-.06.998-.061.998c-1.334-.08-2.669-.16-4.005-.237l.057-.998Zm8.01.485.063-.998c1.333.085 2.665.17 3.996.259l-.066.998-.066.997c-1.329-.087-2.659-.174-3.99-.258l.063-.998Zm7.978.528.069-.998c1.328.091 2.655.185 3.98.28l-.071.997-.072.998c-1.323-.095-2.648-.188-3.974-.28l.068-.997Zm7.947.57.075-.998c1.329.099 2.658.2 3.985.302l-.077.997-.078.997c-1.325-.102-2.651-.203-3.979-.302l.074-.997Zm7.986.616.08-.996c1.334.106 2.667.215 3.998.326l-.083.996-.083.997c-1.329-.11-2.66-.22-3.992-.326l.08-.997Zm7.982.663.085-.997c1.329.114 2.656.23 3.981.347l-.088.997-.089.996c-1.323-.118-2.648-.233-3.975-.347l.086-.996Zm7.947.704.091-.996c1.323.121 2.644.244 3.964.369l-.094.995-.094.996c-1.318-.125-2.637-.247-3.958-.368l.091-.996Zm7.944.75.097-.995c1.335.13 2.667.261 3.999.394l-.1.995-.099.995c-1.33-.133-2.661-.264-3.994-.394l.097-.995Zm7.983.8.102-.995c1.329.137 2.656.276 3.981.416l-.106.994-.105.995c-1.323-.14-2.648-.279-3.975-.416l.103-.994Zm7.945.842.109-.994c1.322.144 2.642.29 3.961.437l-.111.994-.111.994c-1.317-.147-2.636-.293-3.956-.437l.108-.994Zm7.908.885.114-.994c1.332.153 2.662.308 3.991.465l-.117.993-.117.993c-1.327-.156-2.655-.31-3.985-.464l.114-.993Zm7.974.94.12-.993c1.327.16 2.654.322 3.978.486l-.123.993-.123.992c-1.322-.163-2.646-.325-3.972-.486l.12-.992Zm7.94.983.126-.992c1.321.168 2.641.337 3.958.508l-.129.992-.128.992c-1.316-.171-2.633-.34-3.952-.508l.125-.992Zm7.9 1.026.132-.99c1.319.175 2.636.352 3.952.53l-.135.991-.135.991c-1.313-.178-2.629-.355-3.946-.53l.132-.992Zm7.932 1.08.137-.991c1.327.184 2.652.37 3.975.56l-.14.99-.141.99c-1.321-.189-2.644-.375-3.969-.56l.138-.99Zm7.932 1.128.144-.99c1.32.192 2.637.386 3.953.58l-.147.99-.147.99c-1.313-.196-2.629-.39-3.946-.58l.143-.99Zm7.889 1.171.15-.988c1.312.199 2.622.4 3.93.602l-.153.988-.152.988a1309.75 1309.75 0 0 0-3.925-.601l.15-.989Zm7.888 1.221.156-.987c1.325.21 2.648.42 3.969.633l-.159.988-.159.987c-1.319-.213-2.64-.424-3.963-.633l.156-.988Zm7.921 1.278.162-.987c1.318.217 2.633.435 3.946.656l-.165.986-.166.986c-1.311-.22-2.624-.438-3.939-.654l.162-.987Zm7.873 1.32.169-.985c1.309.224 2.616.45 3.921.677l-.171.985-.172.985c-1.303-.227-2.608-.452-3.915-.676l.168-.985Zm7.843 1.368.175-.985c1.323.235 2.643.472 3.962.71l-.178.985-.178.984a1238.38 1238.38 0 0 0-3.956-.71l.175-.984Zm7.905 1.43.181-.983c1.315.243 2.627.487 3.937.733l-.185.983-.184.983c-1.308-.246-2.618-.49-3.93-.732l.181-.983Zm7.853 1.476.188-.982c1.306.25 2.609.5 3.91.754l-.191.982-.191.981c-1.299-.253-2.6-.504-3.904-.753l.188-.982Zm7.801 1.518.194-.98c1.319.26 2.635.524 3.949.789l-.197.98-.198.98c-1.312-.264-2.626-.527-3.943-.788l.195-.98Zm7.88 1.59.201-.98c1.311.269 2.619.54 3.925.812l-.205.98-.204.978a1175.7 1175.7 0 0 0-3.918-.81l.201-.98Zm7.828 1.634.208-.978c1.301.276 2.599.554 3.895.834l-.211.978-.211.977c-1.294-.28-2.59-.557-3.889-.833l.208-.978Zm7.77 1.678.215-.977c1.309.288 2.616.578 3.92.869l-.218.976-.218.976c-1.302-.291-2.606-.58-3.913-.867l.214-.977Zm7.838 1.75.221-.974c1.306.296 2.609.594 3.909.894l-.225.975-.225.974c-1.298-.3-2.599-.597-3.902-.893l.222-.975Zm7.795 1.8.228-.974c1.296.304 2.588.61 3.878.918l-.232.972-.232.973c-1.287-.307-2.578-.612-3.871-.915l.229-.974Zm7.733 1.844.236-.972c1.301.316 2.599.633 3.895.952l-.239.97-.239.972c-1.294-.319-2.59-.635-3.888-.95l.235-.972Zm7.794 1.92.243-.971c1.299.325 2.595.652 3.889.98l-.246.97-.247.97c-1.291-.329-2.585-.655-3.882-.98l.243-.97Zm7.755 1.97.25-.968c1.288.333 2.573.667 3.856 1.003l-.254.968-.254.967c-1.28-.336-2.562-.67-3.848-1.002l.25-.968Zm7.688 2.017.257-.967c1.294.345 2.586.692 3.874 1.04l-.261.965-.261.966c-1.286-.348-2.575-.694-3.867-1.038l.258-.966Zm7.75 2.096.265-.964c1.291.355 2.58.712 3.865 1.07l-.269.963-.269.964a948.873 948.873 0 0 0-3.857-1.069l.265-.964Zm7.705 2.15.272-.962c1.28.363 2.556.727 3.83 1.093l-.277.961-.276.961c-1.271-.365-2.545-.729-3.822-1.09l.273-.963Zm7.632 2.196.28-.96c1.29.377 2.576.755 3.859 1.136l-.285.958-.284.959c-1.28-.38-2.564-.758-3.85-1.133l.28-.96Zm7.706 2.285.288-.957c1.282.386 2.561.773 3.836 1.163l-.292.957-.293.956c-1.272-.39-2.548-.776-3.828-1.161l.289-.958Zm7.644 2.337.296-.955c1.269.394 2.539.79 3.799 1.187l-.3.954-.3.953c-1.26-.396-2.525-.791-3.792-1.184l.297-.955Zm7.575 2.385.3-.953c1.28.411 2.56.824 3.84 1.238l-.31.951-.31.952c-1.27-.414-2.55-.826-3.83-1.236l.31-.952Zm7.65 2.485.31-.95c1.27.419 2.54.84 3.8 1.262l-.31.948-.32.949c-1.26-.422-2.53-.842-3.79-1.26l.31-.95Zm7.57 2.532.32-.947c1.26.427 2.51.855 3.76 1.286l-.33.945-.32.945c-1.25-.429-2.5-.856-3.75-1.282l.32-.947Zm7.52 2.594.33-.944c1.28.445 2.54.892 3.81 1.34l-.34.943-.33.942c-1.26-.448-2.53-.894-3.8-1.337l.33-.944Zm7.58 2.69.34-.941c1.25.453 2.5.907 3.75 1.364l-.34.94-.35.938c-1.24-.455-2.49-.91-3.74-1.36l.34-.942Zm7.48 2.737.34-.937c1.24.46 2.48.924 3.71 1.388l-.35.936-.35.936c-1.23-.464-2.47-.926-3.7-1.385l.35-.938Zm7.47 2.82.36-.934c1.25.48 2.5.964 3.75 1.448l-.36.932-.36.932c-1.25-.483-2.49-.965-3.75-1.444l.36-.934Zm7.47 2.905.37-.93c1.24.489 2.47.98 3.7 1.472l-.37.929-.37.928a704.29 704.29 0 0 0-3.7-1.469l.37-.93Zm7.37 2.953.38-.926c1.24.506 2.48 1.013 3.71 1.522l-.38.925-.38.924c-1.23-.508-2.47-1.014-3.71-1.518l.38-.927Zm7.42 3.068.39-.923c1.24.519 2.47 1.04 3.69 1.562l-.39.92-.39.92c-1.22-.521-2.45-1.04-3.68-1.557l.38-.922Zm7.35 3.131.4-.918c1.22.527 2.43 1.056 3.64 1.587l-.41.915-.4.916c-1.2-.53-2.41-1.057-3.63-1.582l.4-.918Zm7.28 3.2.41-.913c1.23.55 2.46 1.102 3.68 1.656l-.42.91-.41.912c-1.22-.553-2.44-1.103-3.67-1.652l.41-.913Zm7.32 3.32.42-.908c1.21.558 2.41 1.119 3.62 1.682l-.43.905-.42.906c-1.2-.561-2.4-1.12-3.61-1.677l.42-.908Zm7.2 3.371.43-.903c1.2.573 2.4 1.148 3.59 1.725l-.43.9-.44.9a647.86 647.86 0 0 0-3.58-1.719l.43-.903Zm7.21 3.489.44-.898c1.21.592 2.4 1.186 3.6 1.783l-.45.894-.45.895c-1.19-.595-2.38-1.187-3.58-1.777l.44-.897Zm7.15 3.572.45-.892c1.18.601 2.36 1.204 3.53 1.809l-.46.888-.46.889c-1.16-.603-2.34-1.204-3.51-1.803l.45-.891Zm7.06 3.648.46-.886c1.2.628 2.39 1.258 3.57 1.89l-.47.882-.47.882c-1.18-.63-2.36-1.258-3.56-1.883l.47-.885Zm7.09 3.785.47-.878c1.17.636 2.34 1.275 3.5 1.916l-.49.875-.48.875c-1.15-.638-2.32-1.275-3.48-1.909l.48-.879Zm6.94 3.839.49-.871c1.17.659 2.33 1.319 3.49 1.983l-.5.867-.49.868c-1.16-.661-2.32-1.319-3.48-1.975l.49-.872Zm6.97 3.993.5-.864c1.16.675 2.31 1.352 3.45 2.031l-.51.86-.51.859c-1.14-.676-2.29-1.35-3.44-2.023l.51-.863Zm6.84 4.067.52-.855c1.13.684 2.26 1.37 3.38 2.059l-.53.852-.52.851c-1.12-.686-2.24-1.37-3.36-2.051l.51-.856Zm6.8 4.19.53-.847c1.14.715 2.28 1.433 3.4 2.152l-.54.843-.54.842c-1.12-.717-2.25-1.431-3.38-2.144l.53-.846Zm6.74 4.31.54-.838c1.11.725 2.22 1.452 3.31 2.181l-.55.833-.56.832c-1.09-.726-2.18-1.449-3.29-2.171l.55-.837Zm6.61 4.404.56-.828c1.12.759 2.23 1.519 3.33 2.283l-.57.822-.57.822c-1.09-.76-2.2-1.517-3.31-2.272l.56-.827Zm6.59 4.568.58-.817c1.09.768 2.17 1.539 3.24 2.312l-.59.81-.59.811a330.81 330.81 0 0 0-3.21-2.3l.57-.816Zm6.43 4.638.59-.804c1.09.804 2.17 1.61 3.24 2.419l-.6.799-.6.798c-1.07-.805-2.14-1.607-3.23-2.407l.6-.805Zm6.41 4.841.61-.791c1.06.813 2.1 1.63 3.14 2.449l-.62.785-.62.785c-1.03-.814-2.07-1.626-3.12-2.436l.61-.792Zm6.21 4.9.63-.778c1.05.851 2.1 1.705 3.13 2.561l-.63.771-.64.77c-1.03-.851-2.07-1.7-3.12-2.546l.63-.778Zm6.2 5.126.65-.763c1.01.862 2.02 1.727 3.02 2.595l-.66.755-.65.755c-.99-.862-2-1.722-3.01-2.579l.65-.763Zm5.97 5.189.67-.747c1.01.9 2.01 1.803 3 2.708l-.68.738-.67.738c-.99-.9-1.98-1.796-2.98-2.691l.66-.746Zm5.93 5.422.69-.729c.97.914 1.93 1.83 2.88 2.749l-.69.719-.7.719c-.94-.912-1.9-1.822-2.86-2.729l.68-.729Zm5.69 5.493.7-.71c.97.955 1.92 1.913 2.85 2.873l-.71.699-.72.7c-.93-.954-1.87-1.904-2.83-2.853l.71-.709Zm5.61 5.744.73-.688c.92.966 1.82 1.936 2.72 2.908l-.74.677-.74.677c-.88-.965-1.78-1.927-2.69-2.886l.72-.688Zm5.36 5.826.75-.665c.9 1.011 1.79 2.024 2.66 3.04l-.75.653-.76.653c-.87-1.008-1.75-2.013-2.64-3.016l.74-.665Zm5.23 6.072.77-.64c.85 1.022 1.69 2.046 2.51 3.073l-.78.627-.77.626a196.35 196.35 0 0 0-2.5-3.046l.77-.64Z" fill="#453E3E"/></svg>