<svg width="1790" height="418" fill="none" xmlns="http://www.w3.org/2000/svg"><path opacity=".5" fill-rule="evenodd" clip-rule="evenodd" d="M1788.25 410.59c.6 1.901 1.18 3.804 1.74 5.712l-1.43.425-1.44.424c-.56-1.888-1.14-3.772-1.73-5.653l1.43-.454 1.43-.454Zm-3.29-5.207 1.42-.482a300.09 300.09 0 0 0-1.99-5.666l-1.41.51-1.41.51c.68 1.866 1.33 3.736 1.97 5.61l1.42-.482Zm-4.85-17.304c.75 1.845 1.48 3.693 2.19 5.545l-1.4.537-1.4.538c-.7-1.835-1.42-3.665-2.17-5.492l1.39-.564 1.39-.564Zm-4.71-11.019c.82 1.829 1.63 3.662 2.41 5.498l-1.37.59-1.38.59c-.78-1.82-1.58-3.635-2.39-5.447l1.36-.615 1.37-.616Zm-3.87-4.825 1.35-.641c-.84-1.788-1.7-3.572-2.58-5.352l-1.35.664-1.34.665a379.15 379.15 0 0 1 2.56 5.304l1.36-.64Zm-5.26-10.634 1.34-.688a396.2 396.2 0 0 0-2.8-5.304l-1.32.711-1.32.711c.94 1.749 1.86 3.502 2.77 5.259l1.33-.689Zm-5.67-10.538 1.31-.734c-.97-1.731-1.96-3.459-2.97-5.182l-1.29.756-1.3.755c1 1.709 1.98 3.422 2.94 5.138l1.31-.733Zm-5.98-10.258 1.28-.776a307.93 307.93 0 0 0-3.14-5.095l-1.27.797-1.27.798a395.33 395.33 0 0 1 3.12 5.052l1.28-.776Zm-6.35-10.123 1.26-.817c-1.09-1.68-2.2-3.357-3.33-5.029l-1.24.837-1.25.837c1.12 1.659 2.22 3.322 3.3 4.989l1.26-.817Zm-6.64-9.889 1.23-.855a399.44 399.44 0 0 0-3.44-4.874l-1.22.874-1.22.873c1.15 1.609 2.29 3.221 3.41 4.838l1.24-.856Zm-6.94-9.687 1.2-.891c-1.19-1.612-2.39-3.22-3.62-4.824l-1.19.909-1.19.909c1.21 1.592 2.41 3.188 3.59 4.789l1.21-.892Zm-7.26-9.527 1.18-.925a569.118 569.118 0 0 0-3.69-4.65l-1.17.942-1.17.941c1.24 1.535 2.46 3.075 3.67 4.618l1.18-.926Zm-7.45-9.242 1.16-.957a570.934 570.934 0 0 0-3.87-4.6l-1.14.973-1.14.972c1.29 1.519 2.57 3.042 3.84 4.569l1.15-.957Zm-7.79-9.143 1.13-.988c-1.3-1.49-2.62-2.977-3.95-4.459l-1.11 1.002-1.12 1.002a410.25 410.25 0 0 1 3.92 4.43l1.13-.987Zm-10.89-14.223c1.37 1.454 2.73 2.913 4.08 4.376l-1.11 1.015-1.1 1.016a566.792 566.792 0 0 0-4.05-4.349l1.09-1.029 1.09-1.029Zm-5.23-3.309 1.08-1.042c-1.4-1.446-2.81-2.888-4.23-4.325l-1.06 1.055-1.07 1.055c1.41 1.429 2.81 2.862 4.2 4.299l1.08-1.042Zm-8.4-8.5 1.05-1.067c-1.41-1.39-2.82-2.775-4.25-4.156l-1.05 1.079-1.04 1.078c1.42 1.374 2.83 2.751 4.23 4.133l1.06-1.067Zm-8.56-8.264 1.03-1.09a617.597 617.597 0 0 0-4.39-4.107l-1.02 1.102-1.02 1.102c1.47 1.357 2.93 2.718 4.37 4.083l1.03-1.09Zm-8.83-8.165 1-1.113a453.642 453.642 0 0 0-4.43-3.964l-.99 1.123-1 1.123c1.48 1.31 2.95 2.625 4.41 3.944l1.01-1.113Zm-8.88-7.862.98-1.133c-1.5-1.302-3.01-2.6-4.54-3.893l-.97 1.143-.97 1.143c1.52 1.287 3.02 2.578 4.51 3.873l.99-1.133Zm-9.11-7.742.96-1.153c-1.55-1.285-3.1-2.566-4.67-3.843l-.95 1.162-.94 1.162c1.55 1.271 3.1 2.546 4.64 3.825l.96-1.153Zm-9.29-7.578.94-1.171a657.65 657.65 0 0 0-4.66-3.688l-.92 1.18-.93 1.18c1.56 1.22 3.1 2.443 4.63 3.671l.94-1.172Zm-9.34-7.334.91-1.188c-1.58-1.217-3.17-2.43-4.77-3.639l-.91 1.196-.9 1.197c1.59 1.204 3.18 2.411 4.75 3.623l.92-1.189Zm-9.58-7.237.89-1.205a659.978 659.978 0 0 0-4.85-3.561l-.88 1.213-.88 1.213c1.61 1.178 3.22 2.359 4.82 3.545l.9-1.205Zm-9.64-7.012.87-1.221a653.68 653.68 0 0 0-4.86-3.443l-.86 1.228-.86 1.228c1.62 1.138 3.23 2.281 4.84 3.428l.87-1.22Zm-9.76-6.848.85-1.235c-1.64-1.136-3.3-2.268-4.97-3.395l-.84 1.242-.84 1.242c1.66 1.123 3.31 2.25 4.95 3.381l.85-1.235Zm-9.97-6.752.83-1.249c-1.65-1.094-3.3-2.185-4.96-3.272l-.82 1.255-.82 1.256c1.65 1.083 3.3 2.169 4.94 3.259l.83-1.249Zm-14.16-10.962c1.69 1.065 3.37 2.135 5.04 3.208l-.81 1.262-.81 1.262a1046.97 1046.97 0 0 0-5.02-3.196l.8-1.268.8-1.268Zm-5.88-1.911.8-1.274c-1.71-1.058-3.42-2.111-5.14-3.161l-.78 1.281-.78 1.28a694.06 694.06 0 0 1 5.11 3.149l.79-1.275Zm-10.27-6.27.77-1.286a651.156 651.156 0 0 0-5.09-3.031l-.76 1.291-.77 1.292c1.7 1.003 3.4 2.01 5.08 3.02l.77-1.286Zm-10.21-6.028.75-1.297a999.15 999.15 0 0 0-5.18-2.985l-.75 1.303-.74 1.303c1.73.987 3.45 1.978 5.17 2.973l.75-1.297Zm-10.39-5.935.73-1.307c-1.75-.983-3.51-1.962-5.27-2.937l-.73 1.312-.72 1.313c1.76.972 3.51 1.948 5.25 2.927l.74-1.308Zm-10.52-5.81.72-1.318c-1.74-.943-3.48-1.881-5.23-2.816l-.7 1.322-.71 1.323c1.74.932 3.48 1.868 5.2 2.807l.72-1.318Zm-10.47-5.6.7-1.327c-1.76-.928-3.53-1.851-5.31-2.771l-.69 1.332-.69 1.332c1.77.917 3.54 1.837 5.29 2.761l.7-1.327Zm-10.63-5.508.68-1.336c-1.79-.912-3.59-1.82-5.39-2.724l-.67 1.341-.67 1.341c1.79.901 3.58 1.806 5.36 2.715l.69-1.337Zm-10.74-5.383.67-1.345c-1.78-.874-3.55-1.745-5.34-2.611l-.65 1.349-.66 1.349c1.78.864 3.55 1.732 5.32 2.603l.66-1.345Zm-10.68-5.191.64-1.354c-1.79-.858-3.59-1.714-5.4-2.565l-.64 1.357-.64 1.357c1.8.849 3.6 1.702 5.39 2.558l.65-1.353Zm-15.69-8.98c1.83.835 3.66 1.675 5.48 2.519l-.63 1.361-.63 1.361c-1.81-.841-3.64-1.678-5.46-2.512l.62-1.365.62-1.364Zm-10.89-4.888c1.81.801 3.62 1.606 5.42 2.415l-.61 1.368-.62 1.369c-1.79-.807-3.59-1.609-5.4-2.408l.6-1.372.61-1.372Zm-6.06-1.017.6-1.375c-1.82-.794-3.65-1.584-5.49-2.37l-.59 1.379-.59 1.379c1.83.784 3.66 1.571 5.48 2.363l.59-1.376Zm-11-4.71.58-1.382c-1.84-.778-3.7-1.553-5.56-2.324l-.57 1.386-.58 1.385c1.86.769 3.71 1.541 5.55 2.318l.58-1.383Zm-16.05-8.225c1.84.738 3.67 1.48 5.5 2.226l-.57 1.39-.56 1.388c-1.83-.744-3.65-1.484-5.49-2.22l.56-1.393.56-1.391Zm-6.08-.81.55-1.395c-1.85-.731-3.7-1.459-5.56-2.183l-.55 1.398-.54 1.398c1.85.722 3.7 1.447 5.55 2.177l.55-1.395Zm-11.14-4.337.53-1.4c-1.87-.717-3.74-1.43-5.62-2.138l-.53 1.404-.53 1.404c1.87.706 3.74 1.417 5.61 2.131l.54-1.4Zm-11.27-4.246.52-1.406c-1.86-.69-3.72-1.375-5.59-2.057l-.51 1.41-.52 1.408c1.87.68 3.72 1.364 5.58 2.051l.52-1.406Zm-11.17-4.076.51-1.412c-1.87-.67-3.74-1.338-5.62-2.002l-.5 1.414-.5 1.414c1.87.662 3.74 1.328 5.6 1.998l.51-1.412Zm-11.26-3.978.5-1.417c-1.89-.656-3.78-1.31-5.68-1.958l-.49 1.419-.48 1.42c1.89.647 3.78 1.298 5.66 1.953l.49-1.417Zm-11.37-3.89.48-1.421c-1.89-.638-3.8-1.272-5.7-1.903l-.47 1.424-.47 1.424c1.9.63 3.79 1.262 5.69 1.898l.47-1.422Zm-11.33-3.75.47-1.426c-1.89-.614-3.78-1.224-5.67-1.83l-.46 1.428-.46 1.429c1.89.605 3.78 1.213 5.66 1.826l.46-1.427Zm-16.62-6.851c1.91.591 3.82 1.187 5.72 1.786l-.45 1.43-.45 1.432c-1.9-.598-3.8-1.192-5.71-1.782l.44-1.433.45-1.433Zm-6.19-.33.44-1.435c-1.92-.584-3.85-1.165-5.78-1.742l-.43 1.437-.43 1.438c1.93.575 3.85 1.154 5.77 1.737l.43-1.435Zm-11.49-3.436.43-1.44c-1.9-.558-3.81-1.113-5.71-1.664l-.42 1.441-.42 1.441c1.91.55 3.81 1.104 5.7 1.66l.42-1.438Zm-11.43-3.304.41-1.443c-1.91-.544-3.83-1.084-5.76-1.62l-.4 1.444-.4 1.445c1.92.535 3.83 1.075 5.74 1.617l.41-1.443Zm-11.52-3.216.39-1.447c-1.93-.53-3.86-1.055-5.8-1.577l-.39 1.449-.39 1.448c1.93.52 3.86 1.045 5.79 1.574l.4-1.447Zm-11.63-3.129.39-1.45c-1.92-.507-3.84-1.01-5.76-1.509l-.38 1.452-.38 1.452c1.92.498 3.84 1 5.75 1.505l.38-1.45Zm-11.51-2.988.37-1.454c-1.92-.49-3.85-.978-5.79-1.461l-.36 1.455-.36 1.455c1.93.483 3.85.969 5.77 1.458l.37-1.453Zm-11.58-2.898.36-1.457c-1.94-.476-3.89-.949-5.83-1.418l-.36 1.458-.35 1.459c1.95.468 3.88.94 5.82 1.414l.36-1.456Zm-11.67-2.811.34-1.46c-1.95-.462-3.91-.92-5.87-1.375l-.34 1.462-.34 1.461c1.96.453 3.91.91 5.86 1.371l.35-1.46Zm-11.66-2.702.33-1.463c-1.93-.439-3.87-.875-5.81-1.307l-.32 1.464-.33 1.464c1.94.432 3.87.866 5.8 1.305l.33-1.463Zm-11.63-2.59.32-1.465c-1.94-.425-3.9-.847-5.85-1.264l-.31 1.466-.32 1.467c1.95.417 3.9.838 5.84 1.262l.32-1.466Zm-11.71-2.504.31-1.468c-1.96-.41-3.92-.818-5.89-1.221l-.3 1.47-.3 1.469c1.96.402 3.92.808 5.88 1.218l.3-1.468Zm-11.78-2.418.29-1.47c-1.94-.39-3.89-.777-5.84-1.16l-.29 1.472-.28 1.472c1.94.382 3.88.768 5.82 1.157l.3-1.47Zm-11.68-2.293.29-1.473c-1.95-.375-3.91-.747-5.87-1.115l-.27 1.474-.28 1.474c1.95.368 3.9.739 5.85 1.113l.28-1.473Zm-11.73-2.206.27-1.476c-1.97-.36-3.93-.718-5.9-1.072l-.27 1.477-.26 1.476c1.96.353 3.93.71 5.89 1.07l.27-1.475Zm-11.81-2.12.26-1.478c-1.98-.347-3.96-.69-5.94-1.03l-.25 1.48-.25 1.478c1.97.338 3.95.68 5.92 1.027l.26-1.478ZM1160 23.043l.25-1.48c-1.96-.326-3.92-.65-5.88-.97l-.24 1.481-.24 1.48c1.96.32 3.91.642 5.86.968l.25-1.479Zm-11.76-1.917.24-1.481c-1.97-.313-3.94-.622-5.91-.928l-.23 1.483-.23 1.482c1.97.305 3.94.614 5.9.926l.23-1.482Zm-11.82-1.832.23-1.483c-1.98-.298-3.96-.593-5.95-.885l-.21 1.485-.22 1.484c1.98.29 3.95.585 5.93.883l.22-1.484Zm-11.89-1.746.22-1.485c-1.98-.282-3.96-.56-5.94-.835l-.2 1.485-.21 1.486c1.98.274 3.95.553 5.92.834l.21-1.485Zm-11.81-1.642.2-1.486c-1.97-.266-3.94-.528-5.92-.787l-.19 1.487-.2 1.488c1.97.258 3.94.52 5.9.785l.21-1.487Zm-11.84-1.55.19-1.488c-1.97-.252-3.96-.5-5.94-.744l-.18 1.488-.19 1.49c1.98.243 3.96.49 5.94.742l.18-1.488Zm-11.89-1.466.18-1.49c-1.99-.236-3.98-.47-5.97-.7l-.17 1.49-.18 1.49c1.99.23 3.98.463 5.97.7l.17-1.49Zm-11.94-1.379.17-1.49c-1.97-.22-3.94-.437-5.92-.65l-.16 1.492-.16 1.491c1.97.213 3.94.428 5.91.648l.16-1.49Zm-11.83-1.276.16-1.492c-1.98-.205-3.96-.408-5.95-.606l-.15 1.492-.15 1.493c1.98.198 3.96.4 5.94.605l.15-1.492Zm-11.89-1.191.15-1.493c-1.99-.192-3.98-.38-5.97-.565l-.14 1.494-.14 1.494c1.99.184 3.98.372 5.96.563l.14-1.493Zm-11.94-1.107.14-1.494c-2-.177-4-.351-6-.521l-.13 1.494-.13 1.495c2 .17 4 .343 5.99.52l.13-1.494Zm-11.94-1.017.12-1.495c-1.98-.16-3.96-.318-5.94-.472l-.12 1.495-.11 1.496c1.98.154 3.95.31 5.93.471l.12-1.495Zm-11.88-.923.11-1.496c-1.99-.147-3.97-.29-5.96-.43l-.11 1.496-.1 1.497c1.98.14 3.97.283 5.95.43l.11-1.497Zm-11.93-.838.1-1.497c-1.99-.133-3.99-.262-5.987-.388l-.095 1.497-.094 1.497c1.996.126 3.986.255 5.976.387l.1-1.496Zm-11.976-.754.089-1.497c-2.002-.12-4.006-.234-6.011-.346l-.083 1.498-.084 1.498c2.002.111 4.002.226 6.001.344l.088-1.497Zm-11.945-.664.078-1.498c-1.983-.103-3.969-.203-5.956-.299l-.072 1.498-.072 1.498c1.983.096 3.964.196 5.944.299l.078-1.498Zm-11.911-.576.067-1.499c-1.991-.089-3.983-.174-5.978-.256l-.061 1.499-.062 1.498c1.991.082 3.98.167 5.967.256l.067-1.498Zm-11.955-.492.056-1.499c-1.998-.074-3.997-.146-5.999-.214l-.051 1.5-.05 1.499c1.997.067 3.993.139 5.988.213l.056-1.499Zm-11.998-.406.046-1.5c-1.998-.06-3.997-.117-5.998-.17l-.04 1.5-.04 1.499c1.997.053 3.993.11 5.987.17l.045-1.5Zm-11.943-.319.035-1.5c-1.987-.045-3.975-.088-5.965-.127l-.03 1.5-.029 1.5c1.987.038 3.971.08 5.955.127l.034-1.5Zm-11.93-.233.024-1.5c-1.993-.032-3.988-.06-5.985-.085l-.018 1.5-.019 1.5c1.993.024 3.985.053 5.974.085l.024-1.5Zm-11.968-.15.013-1.5c-2-.017-4.001-.031-6.004-.042l-.008 1.5-.008 1.5c1.999.01 3.997.025 5.993.043l.014-1.5Zm-12.007-.063.003-1.5a1693.156 1693.156 0 0 0-6.023 0l.003 1.5.002 1.5a1691.018 1691.018 0 0 1 6.012 0l.003-1.5Zm-12.025.021-.008-1.5c-2.003.01-4.005.025-6.004.043l.013 1.5.013 1.5c1.997-.018 3.994-.032 5.994-.043l-.008-1.5Zm-11.988.107-.019-1.5c-1.996.025-3.991.053-5.985.085l.024 1.5.024 1.5c1.99-.032 3.982-.06 5.975-.086l-.019-1.5Zm-11.95.19-.029-1.499c-1.99.039-3.979.081-5.966.127l.035 1.5.035 1.5c1.983-.046 3.968-.089 5.955-.127l-.03-1.5ZM844.096.77c1.998-.061 3.997-.118 5.998-.171l.04 1.5.04 1.499c-1.998.053-3.993.11-5.987.17l-.046-1.5-.045-1.498Zm-5.959 1.691-.051-1.499c-2.001.068-4.001.14-5.999.214l.057 1.5.056 1.498c1.994-.074 3.99-.146 5.988-.213l-.051-1.5Zm-11.976.45-.062-1.5c-1.994.083-3.987.168-5.977.257l.067 1.499.067 1.498c1.987-.089 3.976-.174 5.966-.256l-.061-1.499Zm-11.934.533-.072-1.498c-1.987.096-3.972.195-5.955.299l.077 1.498.078 1.498c1.98-.103 3.961-.203 5.945-.299l-.073-1.498Zm-11.889.618-.083-1.498c-2.006.112-4.01.227-6.012.345l.089 1.498.089 1.497c1.998-.118 3.998-.233 6-.344l-.083-1.498Zm-12 .711-.094-1.497c-1.998.126-3.994.255-5.988.388l.1 1.497.1 1.496c1.99-.132 3.982-.261 5.976-.387l-.094-1.497Zm-11.952.796-.105-1.496c-1.99.14-3.978.283-5.964.43l.111 1.496.11 1.496c1.983-.147 3.967-.29 5.953-.43l-.105-1.496Zm-11.904.881-.116-1.495c-1.982.154-3.962.311-5.939.472l.122 1.495.121 1.495c1.974-.16 3.95-.318 5.928-.471l-.116-1.496Zm-11.888.968-.127-1.495c-2.001.17-4 .345-5.996.522l.133 1.494.133 1.494c1.992-.177 3.987-.35 5.984-.52l-.127-1.495Zm-11.967 1.064-.139-1.494c-1.992.185-3.982.373-5.969.565l.144 1.493.144 1.493c1.984-.191 3.97-.38 5.958-.564l-.138-1.493ZM730.713 9.63l-.15-1.493c-1.983.2-3.964.401-5.943.607l.156 1.492.155 1.492c1.975-.205 3.952-.407 5.931-.606l-.149-1.492Zm-11.861 1.233-.16-1.49c-1.974.212-3.946.428-5.915.648l.166 1.49.166 1.492c1.966-.22 3.934-.436 5.904-.648l-.161-1.492Zm-11.883 1.327-.172-1.49c-1.994.23-3.985.464-5.973.702l.177 1.49.178 1.489c1.985-.237 3.972-.47 5.962-.7l-.172-1.49Zm-11.92 1.423-.184-1.489c-1.983.245-3.964.493-5.943.745l.189 1.488.189 1.488c1.975-.252 3.953-.499 5.932-.743l-.183-1.489Zm-11.861 1.508-.195-1.487c-1.973.259-3.945.52-5.913.787l.2 1.486.201 1.487c1.965-.265 3.932-.527 5.902-.785l-.195-1.488Zm-11.8 1.593-.207-1.486c-1.979.275-3.956.554-5.931.836l.212 1.485.213 1.485c1.97-.282 3.943-.56 5.919-.834l-.206-1.486Zm-11.878 1.697-.218-1.484c-1.983.291-3.964.586-5.941.885l.223 1.483.224 1.483c1.974-.298 3.951-.592 5.93-.883l-.218-1.484Zm-11.855 1.79-.23-1.483c-1.972.306-3.942.615-5.909.928l.235 1.481.236 1.481c1.963-.312 3.929-.62 5.897-.925l-.229-1.483Zm-11.79 1.874-.242-1.48c-1.961.32-3.92.643-5.876.97l.248 1.479.247 1.48c1.952-.327 3.907-.65 5.864-.969l-.241-1.48Zm-11.748 1.963-.253-1.478c-1.982.339-3.961.682-5.937 1.029l.259 1.477.259 1.478c1.972-.346 3.947-.689 5.925-1.027l-.253-1.479Zm-11.844 2.078-.265-1.477c-1.97.354-3.938.711-5.902 1.072l.272 1.476.271 1.475c1.96-.36 3.923-.717 5.889-1.07l-.265-1.476ZM600.5 28.279l-.277-1.474c-1.958.368-3.913.74-5.865 1.115l.283 1.473.283 1.473c1.948-.375 3.899-.745 5.853-1.113l-.277-1.474Zm-11.7 2.249-.289-1.472c-1.949.383-3.895.77-5.838 1.16l.295 1.47.295 1.471c1.939-.39 3.881-.775 5.826-1.157l-.289-1.472Zm-11.735 2.356-.301-1.47c-1.967.404-3.93.811-5.89 1.222l.307 1.468.308 1.468c1.956-.41 3.915-.816 5.877-1.218l-.301-1.47Zm-11.748 2.461-.313-1.467c-1.954.418-3.904.84-5.851 1.264l.32 1.466.32 1.465c1.943-.424 3.889-.844 5.838-1.261l-.314-1.467Zm-11.668 2.547-.326-1.464c-1.94.432-3.877.868-5.81 1.307l.332 1.463.332 1.463c1.93-.439 3.862-.873 5.798-1.305l-.326-1.464Zm-17.807 2.547c1.955-.461 3.912-.92 5.874-1.374l.338 1.462.339 1.46c-1.957.454-3.911.911-5.861 1.372l-.345-1.46-.345-1.46Zm-5.501 2.855-.351-1.458c-1.947.469-3.891.942-5.831 1.418l.358 1.457.357 1.456c1.936-.475 3.875-.947 5.818-1.415l-.351-1.458Zm-11.627 2.855-.364-1.455c-1.933.483-3.862.97-5.787 1.461l.37 1.454.371 1.453c1.921-.49 3.846-.976 5.774-1.458l-.364-1.455Zm-11.54 2.94-.377-1.451c-1.923.5-3.843 1.002-5.759 1.509l.383 1.45.384 1.45c1.911-.505 3.827-1.007 5.746-1.505l-.377-1.452Zm-11.575 3.061-.39-1.448c-1.94.522-3.875 1.048-5.806 1.577l.396 1.447.397 1.446c1.927-.528 3.858-1.052 5.792-1.573l-.389-1.449Zm-11.575 3.173-.403-1.445a1297.65 1297.65 0 0 0-5.759 1.621l.41 1.443.41 1.443c1.911-.543 3.826-1.082 5.745-1.617l-.403-1.445Zm-11.479 3.26-.417-1.441c-1.907.551-3.811 1.106-5.71 1.664l.423 1.44.423 1.439c1.895-.557 3.794-1.11 5.697-1.66l-.416-1.442Zm-11.425 3.36-.43-1.438a1252 1252 0 0 0-5.774 1.742l.436 1.435.437 1.435c1.916-.583 3.836-1.162 5.761-1.738l-.43-1.437Zm-11.509 3.502-.444-1.433a1241.14 1241.14 0 0 0-5.722 1.786l.45 1.43.451 1.432c1.898-.598 3.801-1.192 5.708-1.783l-.443-1.432Zm-11.405 3.59-.458-1.428c-1.894.606-3.784 1.216-5.67 1.83l.464 1.426.465 1.427c1.881-.613 3.766-1.221 5.656-1.826l-.457-1.429Zm-11.3 3.678-.471-1.424c-1.906.63-3.806 1.265-5.703 1.903l.479 1.421.478 1.422a1176.78 1176.78 0 0 1 5.688-1.898l-.471-1.424Zm-11.395 3.834-.485-1.42c-1.898.65-3.791 1.303-5.679 1.959l.493 1.417.492 1.417a1233.76 1233.76 0 0 1 5.664-1.954l-.485-1.42Zm-11.314 3.934-.5-1.414c-1.879.664-3.753 1.331-5.622 2.002l.507 1.412.507 1.412c1.864-.67 3.734-1.336 5.607-1.998l-.499-1.414Zm-11.2 4.022-.515-1.409a1147.31 1147.31 0 0 0-5.589 2.057l.522 1.406.521 1.406c1.854-.687 3.712-1.37 5.575-2.05l-.514-1.41Zm-11.231 4.166-.529-1.404c-1.88.709-3.755 1.421-5.625 2.138l.537 1.4.536 1.401c1.865-.714 3.735-1.425 5.61-2.131l-.529-1.404Zm-11.204 4.291-.544-1.397c-1.859.723-3.714 1.45-5.563 2.182l.552 1.395.551 1.395c1.844-.73 3.694-1.455 5.548-2.177l-.544-1.398Zm-11.079 4.381-.559-1.391c-1.839.738-3.672 1.48-5.5 2.226l.567 1.39.567 1.388c1.822-.744 3.651-1.484 5.484-2.22l-.559-1.393Zm-11.058 4.514-.574-1.386c-1.859.771-3.713 1.546-5.56 2.324l.582 1.382.582 1.383c1.843-.777 3.691-1.549 5.545-2.318l-.575-1.385Zm-11.07 4.664-.591-1.379c-1.836.786-3.667 1.576-5.492 2.37l.598 1.375.599 1.376a979.92 979.92 0 0 1 5.476-2.363l-.59-1.379Zm-10.935 4.755-.606-1.372a996.95 996.95 0 0 0-5.423 2.415l.614 1.368.614 1.369a958.342 958.342 0 0 1 5.408-2.408l-.607-1.372Zm-10.874 4.881-.623-1.365a987.68 987.68 0 0 0-5.481 2.519l.63 1.361.631 1.361c1.815-.841 3.637-1.678 5.465-2.512l-.622-1.364Zm-10.91 5.053-.639-1.357a965.06 965.06 0 0 0-5.407 2.566l.647 1.353.647 1.353a959.286 959.286 0 0 1 5.391-2.557l-.639-1.358Zm-10.76 5.146-.656-1.349a942.782 942.782 0 0 0-5.332 2.611l.664 1.345.664 1.345a972.559 972.559 0 0 1 5.315-2.603l-.655-1.349Zm-10.68 5.271-.672-1.341a933.968 933.968 0 0 0-5.387 2.724l.682 1.336.681 1.337a896.632 896.632 0 0 1 5.369-2.715l-.673-1.341Zm-10.715 5.461-.69-1.332c-1.775.92-3.544 1.843-5.305 2.771l.698 1.327.699 1.327a970.55 970.55 0 0 1 5.288-2.761l-.69-1.332Zm-10.552 5.554-.708-1.322a888.38 888.38 0 0 0-5.223 2.816l.717 1.318.716 1.318c1.728-.94 3.463-1.875 5.205-2.807l-.707-1.323Zm-10.467 5.69-.725-1.313a849.911 849.911 0 0 0-5.273 2.937l.735 1.308.734 1.308a932.613 932.613 0 0 1 5.254-2.927l-.725-1.313Zm-10.482 5.888-.744-1.303a827.031 827.031 0 0 0-5.183 2.985l.753 1.297.753 1.297a873.777 873.777 0 0 1 5.165-2.974l-.744-1.302Zm-16.159 7.721a805.283 805.283 0 0 1 5.094-3.032l.762 1.292.762 1.292a798.965 798.965 0 0 0-5.074 3.02l-.772-1.286-.772-1.286Zm-4.376 4.401-.781-1.28a770.783 770.783 0 0 0-5.135 3.161l.791 1.274.791 1.275a749.216 749.216 0 0 1 5.115-3.149l-.781-1.281Zm-10.201 6.334-.801-1.268a748.846 748.846 0 0 0-5.038 3.208l.811 1.262.811 1.262a784.636 784.636 0 0 1 5.018-3.196l-.801-1.268Zm-15.79 8.445a734.78 734.78 0 0 1 4.964-3.272l.82 1.255.821 1.256a754.79 754.79 0 0 0-4.944 3.259l-.83-1.249-.831-1.249Zm-4.182 4.613-.841-1.242a686.492 686.492 0 0 0-4.969 3.395l.851 1.235.851 1.235a739.387 739.387 0 0 1 4.949-3.381l-.841-1.242Zm-9.865 6.799-.862-1.227a689.082 689.082 0 0 0-4.862 3.443l.872 1.22.872 1.221a693.05 693.05 0 0 1 4.842-3.429l-.862-1.228Zm-9.65 6.896-.882-1.213a681.83 681.83 0 0 0-4.849 3.561l.893 1.205.894 1.205a626.2 626.2 0 0 1 4.827-3.545l-.883-1.213Zm-9.657 7.159-.904-1.197a671.312 671.312 0 0 0-4.772 3.639l.915 1.189.915 1.188a665.117 665.117 0 0 1 4.75-3.622l-.904-1.197Zm-9.463 7.286-.926-1.18a603.522 603.522 0 0 0-4.654 3.688l.937 1.171.937 1.171a622.85 622.85 0 0 1 4.632-3.67l-.926-1.18Zm-9.276 7.422-.948-1.162a599.787 599.787 0 0 0-4.664 3.844l.96 1.152.96 1.153a617.153 617.153 0 0 1 4.64-3.825l-.948-1.162Zm-9.24 7.693-.971-1.143a603.13 603.13 0 0 0-4.536 3.893l.983 1.133.983 1.134a574.825 574.825 0 0 1 4.512-3.874l-.971-1.143Zm-8.983 7.791-.994-1.123a551.29 551.29 0 0 0-4.431 3.965l1.006 1.112 1.006 1.113a565.074 565.074 0 0 1 4.407-3.944l-.994-1.123Zm-8.872 8.024-1.018-1.101a541.113 541.113 0 0 0-4.394 4.106l1.03 1.09 1.03 1.091a519.497 519.497 0 0 1 4.371-4.084l-1.019-1.102Zm-8.694 8.215-1.043-1.079a523.587 523.587 0 0 0-4.253 4.156l1.054 1.067 1.054 1.067a502.206 502.206 0 0 1 4.23-4.132l-1.042-1.079Zm-8.433 8.332-1.066-1.055a514.788 514.788 0 0 0-4.227 4.325l1.079 1.042 1.079 1.042a510.22 510.22 0 0 1 4.202-4.299l-1.067-1.055Zm-8.353 8.65-1.092-1.029a480.651 480.651 0 0 0-4.075 4.376l1.104 1.015 1.104 1.016a473.36 473.36 0 0 1 4.05-4.349l-1.091-1.029Zm-8.048 8.749-1.116-1.002a473.265 473.265 0 0 0-3.95 4.459l1.13.988 1.128.987a456.436 456.436 0 0 1 3.925-4.43l-1.117-1.002Zm-7.871 9.004-1.142-.973a444.374 444.374 0 0 0-3.865 4.6l1.155.957 1.155.957a449.127 449.127 0 0 1 3.839-4.569l-1.142-.972Zm-7.62 9.193-1.168-.942a434.845 434.845 0 0 0-3.697 4.65l1.18.925 1.181.926a421.604 421.604 0 0 1 3.671-4.618l-1.167-.941Zm-7.333 9.354-1.193-.909a420.923 420.923 0 0 0-3.618 4.824l1.206.891 1.206.892a407.505 407.505 0 0 1 3.593-4.789l-1.194-.909Zm-7.12 9.637-1.22-.873a395.943 395.943 0 0 0-3.438 4.874l1.233.855 1.232.855a396.542 396.542 0 0 1 3.412-4.837l-1.22-.874Zm-6.759 9.736-1.245-.837a382.562 382.562 0 0 0-3.323 5.029l1.258.817 1.258.817a390.23 390.23 0 0 1 3.297-4.99l-1.245-.836Zm-6.534 10.058-1.27-.797a373.488 373.488 0 0 0-3.139 5.094l1.283.777 1.284.776a367.488 367.488 0 0 1 3.113-5.053l-1.27-.797ZM28.09 350.327a358.32 358.32 0 0 1 2.963-5.181l1.296.755 1.296.756a348.086 348.086 0 0 0-2.939 5.138l-1.308-.734-1.308-.734Zm-1.581 5.992-1.321-.712a345.595 345.595 0 0 0-2.797 5.305l1.333.688 1.333.688a342.148 342.148 0 0 1 2.772-5.258l-1.32-.711Zm-5.465 10.586-1.345-.665a337.352 337.352 0 0 0-2.586 5.353l1.357.64 1.356.641c.837-1.772 1.69-3.54 2.563-5.305l-1.345-.664Zm-5.082 10.769-1.368-.615a322.222 322.222 0 0 0-2.413 5.497l1.38.59 1.379.59a321.405 321.405 0 0 1 2.39-5.447l-1.368-.615Zm-4.691 10.968-1.39-.564a311.87 311.87 0 0 0-2.188 5.544l1.4.538 1.401.537a311.01 311.01 0 0 1 2.167-5.492l-1.39-.563Zm-4.257 11.101-1.41-.51a305.888 305.888 0 0 0-1.986 5.666l1.42.482 1.42.482a302.124 302.124 0 0 1 1.967-5.61l-1.411-.51Zm-3.834 11.299-1.43-.453c-.603 1.9-1.186 3.803-1.749 5.711l1.439.425 1.438.424a293.963 293.963 0 0 1 1.732-5.653l-1.43-.454Z" fill="#8E8686"/></svg>