<svg width="1245" height="197" viewBox="0 0 1245 197" fill="none" xmlns="http://www.w3.org/2000/svg">
<path opacity="0.5" fill-rule="evenodd" clip-rule="evenodd" d="M1244.44 197C1244.28 196.797 1244.13 196.594 1243.97 196.392L1243.19 197H1244.44ZM1.25491 197L0.469101 196.392C0.312241 196.594 0.155874 196.797 0 197H1.25491ZM3.72537 193.878L2.94576 193.251C3.77079 192.224 4.60853 191.2 5.45887 190.178L6.22748 190.818L6.99609 191.458C6.15308 192.471 5.32268 193.486 4.50497 194.504L3.72537 193.878ZM8.80529 187.774L8.04766 187.121C8.92314 186.105 9.81116 185.092 10.7116 184.081L11.4583 184.746L12.205 185.411C11.3118 186.414 10.4311 187.419 9.56291 188.427L8.80529 187.774ZM14.1102 181.817L13.3742 181.14C14.2681 180.168 15.1736 179.198 16.0906 178.231L16.8161 178.92L17.5417 179.608C16.6317 180.567 15.7332 181.529 14.8463 182.493L14.1102 181.817ZM19.591 176.038L18.876 175.339C19.8149 174.379 20.7652 173.421 21.7268 172.466L22.4315 173.176L23.1362 173.885C22.1814 174.833 21.2381 175.784 20.3061 176.737L19.591 176.038ZM25.2438 170.422L24.5491 169.702C25.5004 168.784 26.4622 167.868 27.4344 166.954L28.1192 167.683L28.8039 168.412C27.8383 169.319 26.8831 170.229 25.9384 171.141L25.2438 170.422ZM31.0573 164.959L30.3824 164.222C31.3721 163.316 32.3722 162.414 33.3824 161.514L34.0476 162.261L34.7127 163.007C33.7089 163.901 32.7154 164.798 31.7322 165.697L31.0573 164.959ZM37.0055 159.659L36.3498 158.904C37.3484 158.036 38.3567 157.171 39.3745 156.309L40.021 157.072L40.6675 157.835C39.6559 158.692 38.6538 159.551 37.6613 160.414L37.0055 159.659ZM43.0935 154.5L42.4562 153.729C43.4918 152.873 44.5367 152.019 45.5911 151.167L46.2193 151.946L46.8475 152.724C45.7992 153.57 44.7603 154.419 43.7308 155.27L43.0935 154.5ZM49.2975 149.489L48.678 148.704C49.7158 147.885 50.7622 147.068 51.8173 146.254L52.4281 147.046L53.0389 147.838C51.9896 148.647 50.9489 149.459 49.917 150.274L49.2975 149.489ZM55.6107 144.618L55.0084 143.82C56.0808 143.011 57.1617 142.205 58.2512 141.401L58.8449 142.205L59.4387 143.01C58.3548 143.81 57.2796 144.612 56.2129 145.417L55.6107 144.618ZM62.0408 139.872L61.4552 139.061C62.525 138.289 63.6026 137.518 64.6882 136.75L65.2658 137.567L65.8433 138.383C64.7631 139.147 63.6907 139.914 62.6264 140.683L62.0408 139.872ZM68.5381 135.275L67.9686 134.453C69.0699 133.69 70.179 132.929 71.2959 132.171L71.8576 132.999L72.4193 133.826C71.3076 134.581 70.2037 135.338 69.1077 136.097L68.5381 135.275ZM75.1723 130.771L74.6183 129.938C75.7142 129.209 76.8175 128.482 77.9279 127.757L78.4744 128.595L79.0209 129.432C77.9155 130.153 76.8172 130.877 75.7263 131.603L75.1723 130.771ZM81.8198 126.432L81.2807 125.59C82.4055 124.87 83.5374 124.153 84.6765 123.437L85.2083 124.284L85.7401 125.131C84.6059 125.843 83.4788 126.558 82.3589 127.275L81.8198 126.432ZM88.6395 122.15L88.115 121.299C89.233 120.61 90.3577 119.924 91.489 119.239L92.0065 120.095L92.5241 120.951C91.3974 121.632 90.2774 122.316 89.164 123.002L88.6395 122.15ZM95.4112 118.054L94.9006 117.195C96.0443 116.515 97.1947 115.838 98.3515 115.164L98.8553 116.027L99.3591 116.891C98.2068 117.563 97.0611 118.238 95.9219 118.914L95.4112 118.054ZM102.339 114.014L101.841 113.146C102.999 112.483 104.163 111.822 105.334 111.164L105.824 112.035L106.315 112.907C105.149 113.563 103.989 114.221 102.836 114.882L102.339 114.014ZM109.277 110.109L108.793 109.234C109.952 108.593 111.117 107.954 112.288 107.318L112.766 108.196L113.243 109.075C112.076 109.709 110.916 110.345 109.761 110.984L109.277 110.109ZM116.29 106.297L115.819 105.415C117.002 104.782 118.191 104.153 119.386 103.525L119.851 104.41L120.316 105.296C119.125 105.921 117.94 106.549 116.762 107.179L116.29 106.297ZM123.388 102.568L122.929 101.68C124.1 101.075 125.277 100.472 126.46 99.871L126.913 100.763L127.366 101.654C126.187 102.253 125.014 102.854 123.847 103.457L123.388 102.568ZM130.47 98.97L130.023 98.0755C131.217 97.4791 132.416 96.885 133.62 96.293L134.061 97.1904L134.502 98.0879C133.302 98.6779 132.107 99.2701 130.917 99.8645L130.47 98.97ZM137.684 95.424L137.249 94.5238C138.442 93.9466 139.641 93.3716 140.845 92.7988L141.274 93.7018L141.704 94.6048C140.504 95.1758 139.309 95.749 138.119 96.3243L137.684 95.424ZM144.858 92.01L144.434 91.1044C145.636 90.5417 146.842 89.9812 148.054 89.4227L148.472 90.3309L148.891 91.2391C147.683 91.7958 146.48 92.3547 145.282 92.9156L144.858 92.01ZM152.116 88.6646L151.703 87.7539C152.925 87.1997 154.151 86.6478 155.383 86.0979L155.79 87.011L156.198 87.9242C154.97 88.4724 153.747 89.0227 152.53 89.5752L152.116 88.6646ZM159.437 85.3953L159.035 84.4799C160.243 83.9489 161.455 83.42 162.672 82.8932L163.07 83.8109L163.467 84.7286C162.253 85.254 161.044 85.7813 159.84 86.3108L159.437 85.3953ZM166.73 82.2389L166.338 81.319C167.564 80.7963 168.795 80.2758 170.03 79.7573L170.417 80.6794L170.804 81.6015C169.572 82.1185 168.345 82.6377 167.122 83.1589L166.73 82.2389ZM174.132 79.1325L173.75 78.2082C174.983 77.6988 176.221 77.1914 177.463 76.6861L177.84 77.6124L178.216 78.5386C176.978 79.0426 175.744 79.5486 174.514 80.0567L174.132 79.1325ZM181.512 76.1295L181.139 75.2012C182.369 74.7083 183.604 74.2174 184.842 73.7286L185.209 74.6587L185.576 75.5889C184.341 76.0764 183.11 76.5661 181.884 77.0577L181.512 76.1295ZM188.932 73.2002L188.569 72.2682C189.816 71.7834 191.067 71.3007 192.322 70.8201L192.68 71.754L193.037 72.6878C191.786 73.1673 190.538 73.6487 189.294 74.1322L188.932 73.2002ZM196.451 70.3208L196.098 69.3852C197.33 68.9203 198.567 68.4575 199.807 67.9967L200.155 68.9341L200.504 69.8714C199.266 70.3312 198.033 70.7928 196.804 71.2565L196.451 70.3208ZM203.883 67.5592L203.54 66.6201C204.788 66.1633 206.04 65.7085 207.295 65.2556L207.635 66.1963L207.974 67.137C206.721 67.5888 205.472 68.0425 204.227 68.4983L203.883 67.5592ZM211.409 64.8455L211.074 63.9032C212.338 63.4544 213.605 63.0076 214.876 62.5628L215.207 63.5067L215.537 64.4506C214.269 64.8943 213.004 65.3401 211.744 65.7878L211.409 64.8455ZM218.978 62.197L218.652 61.2516C219.901 60.8212 221.153 60.3927 222.409 59.9662L222.731 60.9131L223.052 61.86C221.799 62.2855 220.55 62.713 219.304 63.1424L218.978 62.197ZM226.505 59.641L226.188 58.6927C227.451 58.2701 228.717 57.8495 229.988 57.4309L230.301 58.3807L230.614 59.3304C229.346 59.7481 228.082 60.1677 226.822 60.5893L226.505 59.641ZM234.117 57.1322L233.809 56.1811C235.086 55.7665 236.366 55.3538 237.651 54.9432L237.955 55.8957L238.26 56.8482C236.978 57.2579 235.7 57.6696 234.426 58.0834L234.117 57.1322ZM241.733 54.6966L241.433 53.7428C242.695 53.3452 243.96 52.9495 245.229 52.5557L245.526 53.5108L245.822 54.4659C244.556 54.8588 243.293 55.2536 242.034 55.6504L241.733 54.6966ZM249.338 52.3366L249.046 51.3803C250.321 50.9904 251.6 50.6024 252.881 50.2164L253.17 51.174L253.458 52.1315C252.179 52.5167 250.903 52.9038 249.63 53.2929L249.338 52.3366ZM257.021 50.0231L256.737 49.0643C258.02 48.6839 259.306 48.3054 260.595 47.9288L260.875 48.8887L261.156 49.8486C259.869 50.2244 258.586 50.6021 257.306 50.9818L257.021 50.0231ZM264.682 47.7852L264.406 46.8242C265.679 46.4579 266.956 46.0935 268.235 45.7309L268.508 46.6931L268.78 47.6552C267.504 48.017 266.23 48.3807 264.959 48.7462L264.682 47.7852ZM272.351 45.6123L272.083 44.6491C273.368 44.2904 274.656 43.9337 275.948 43.5788L276.213 44.5431L276.478 45.5073C275.189 45.8615 273.903 46.2176 272.62 46.5755L272.351 45.6123ZM280.092 43.4854L279.831 42.5201C281.12 42.1715 282.411 41.8248 283.706 41.4801L283.963 42.4464L284.22 43.4127C282.928 43.7568 281.64 44.1028 280.354 44.4507L280.092 43.4854ZM287.798 41.4326L287.545 40.4654C288.827 40.129 290.113 39.7945 291.401 39.4619L291.651 40.4301L291.901 41.3984C290.615 41.7304 289.332 42.0642 288.052 42.3999L287.798 41.4326ZM295.52 39.4389L295.273 38.4697C296.567 38.1409 297.864 37.814 299.163 37.4889L299.405 38.459L299.648 39.4291C298.351 39.7536 297.057 40.0799 295.766 40.4081L295.52 39.4389ZM303.308 37.4905L303.069 36.5195C304.364 36.2005 305.663 35.8834 306.964 35.5681L307.199 36.54L307.435 37.5119C306.136 37.8265 304.84 38.1431 303.547 38.4615L303.308 37.4905ZM311.058 35.6124L310.826 34.6397C312.116 34.3321 313.409 34.0263 314.704 33.7224L314.933 34.696L315.161 35.6695C313.868 35.9729 312.578 36.2781 311.29 36.5852L311.058 35.6124ZM318.823 33.7907L318.598 32.8163C319.898 32.5161 321.201 32.2178 322.506 31.9214L322.728 32.8965L322.949 33.8717C321.646 34.1676 320.346 34.4654 319.047 34.765L318.823 33.7907ZM326.648 32.0136L326.43 31.0377C327.735 30.7464 329.041 30.457 330.351 30.1694L330.565 31.1461L330.78 32.1229C329.473 32.4099 328.168 32.6988 326.866 32.9896L326.648 32.0136ZM334.443 30.3015L334.232 29.324C335.528 29.0441 336.827 28.7659 338.128 28.4896L338.336 29.4678L338.543 30.446C337.245 30.7218 335.948 30.9995 334.654 31.2789L334.443 30.3015ZM342.242 28.6451L342.038 27.6662C343.344 27.3936 344.652 27.1229 345.962 26.8539L346.163 27.8335L346.364 28.8131C345.056 29.0816 343.75 29.3519 342.447 29.624L342.242 28.6451ZM350.098 27.033L349.9 26.0528C351.214 25.7878 352.531 25.5246 353.85 25.2634L354.044 26.2443L354.238 27.2252C352.922 27.4861 351.608 27.7488 350.296 28.0133L350.098 27.033ZM357.937 25.4796L357.746 24.498C359.048 24.2447 360.351 23.9932 361.657 23.7436L361.844 24.7258L362.032 25.708C360.729 25.9572 359.428 26.2083 358.129 26.4612L357.937 25.4796ZM365.764 23.9828L365.58 23C366.89 22.754 368.202 22.5098 369.516 22.2674L369.698 23.2508L369.879 24.2342C368.567 24.4762 367.257 24.72 365.949 24.9656L365.764 23.9828ZM373.644 22.5298L373.466 21.5458C374.784 21.3071 376.105 21.0703 377.428 20.8353L377.603 21.8198L377.778 22.8044C376.457 23.039 375.138 23.2755 373.822 23.5138L373.644 22.5298ZM381.527 21.1292L381.355 20.144C382.661 19.9165 383.968 19.6908 385.277 19.4669L385.445 20.4525L385.614 21.4382C384.307 21.6618 383.002 21.8872 381.699 22.1143L381.527 21.1292ZM389.376 19.7867L389.211 18.8005C390.524 18.5802 391.839 18.3616 393.156 18.1449L393.319 19.1317L393.481 20.1184C392.166 20.3348 390.853 20.5529 389.542 20.7729L389.376 19.7867ZM397.273 18.4876L397.114 17.5003C398.436 17.2872 399.759 17.076 401.084 16.8666L401.24 17.8543L401.396 18.8421C400.073 19.0512 398.752 19.2621 397.433 19.4748L397.273 18.4876ZM405.2 17.2349L405.047 16.2467C406.355 16.0441 407.666 15.8434 408.978 15.6444L409.128 16.6331L409.278 17.6218C407.968 17.8205 406.659 18.0209 405.353 18.2231L405.2 17.2349ZM413.066 16.042L412.919 15.0528C414.235 14.8574 415.553 14.6638 416.872 14.472L417.016 15.4616L417.16 16.4512C415.843 16.6427 414.527 16.836 413.213 17.0311L413.066 16.042ZM420.977 14.892L420.836 13.902C422.16 13.7138 423.485 13.5274 424.811 13.3428L424.949 14.3332L425.087 15.3237C423.762 15.508 422.439 15.6941 421.118 15.8821L420.977 14.892ZM428.932 13.7853L428.797 12.7945C430.113 12.6155 431.43 12.4384 432.749 12.263L432.881 13.2543L433.012 14.2456C431.695 14.4207 430.38 14.5976 429.067 14.7762L428.932 13.7853ZM436.825 12.7358L436.696 11.7442C438.014 11.573 439.333 11.4036 440.655 11.236L440.78 12.228L440.906 13.22C439.587 13.3874 438.27 13.5566 436.954 13.7275L436.825 12.7358ZM444.746 11.7309L444.623 10.7385C445.947 10.5744 447.273 10.4121 448.601 10.2517L448.721 11.2445L448.841 12.2372C447.515 12.3975 446.191 12.5595 444.869 12.7233L444.746 11.7309ZM452.707 10.7688L452.59 9.7757C453.918 9.61912 455.249 9.46434 456.581 9.31136L456.695 10.3048L456.809 11.2983C455.479 11.4511 454.15 11.6056 452.824 11.762L452.707 10.7688ZM460.644 9.85711L460.533 8.86331C461.852 8.71573 463.172 8.5699 464.494 8.42585L464.602 9.41997L464.711 10.4141C463.391 10.5579 462.072 10.7035 460.755 10.8509L460.644 9.85711ZM468.57 8.99344L468.465 7.99901C469.79 7.8585 471.117 7.71977 472.445 7.58282L472.548 8.57755L472.65 9.57228C471.324 9.70903 469.999 9.84756 468.676 9.98786L468.57 8.99344ZM476.535 8.17235L476.435 7.17733C477.766 7.04395 479.099 6.91236 480.434 6.78256L480.53 7.77786L480.627 8.77316C479.295 8.90278 477.964 9.03418 476.634 9.16737L476.535 8.17235ZM484.514 7.39617L484.42 6.40059C485.74 6.27605 487.061 6.15325 488.383 6.03221L488.475 7.02805L488.566 8.02389C487.245 8.14476 485.926 8.26738 484.608 8.39174L484.514 7.39617ZM492.444 6.67048L492.356 5.67439C493.681 5.55687 495.008 5.44112 496.336 5.32714L496.422 6.32348L496.507 7.31982C495.181 7.43364 493.856 7.54923 492.532 7.66657L492.444 6.67048ZM500.408 5.98709L500.326 4.99052C501.657 4.88008 502.99 4.77142 504.324 4.66454L504.404 5.66135L504.483 6.65815C503.151 6.76488 501.82 6.87339 500.491 6.98367L500.408 5.98709ZM508.407 5.34628L508.33 4.34925C509.657 4.24671 510.985 4.14593 512.315 4.04691L512.389 5.04415L512.463 6.04138C511.136 6.14026 509.809 6.24091 508.484 6.34331L508.407 5.34628ZM516.359 4.75408L516.287 3.75664C517.613 3.66164 518.939 3.56839 520.267 3.4769L520.336 4.47453L520.405 5.47217C519.079 5.56353 517.754 5.65665 516.43 5.75152L516.359 4.75408ZM524.321 4.20553L524.255 3.2077C525.586 3.11974 526.918 3.03354 528.251 2.9491L528.315 3.9471L528.378 4.9451C527.046 5.02942 525.716 5.1155 524.387 5.20335L524.321 4.20553ZM532.316 3.69929L532.255 2.70112C533.591 2.62023 534.928 2.54112 536.267 2.46379L536.324 3.46213L536.382 4.46046C535.045 4.53768 533.71 4.61669 532.376 4.69746L532.316 3.69929ZM540.308 3.23744L540.253 2.23895C541.578 2.16604 542.904 2.09487 544.231 2.02544L544.284 3.02408L544.336 4.02272C543.01 4.09204 541.686 4.16312 540.363 4.23593L540.308 3.23744ZM548.267 2.82121L548.217 1.82244C549.547 1.75652 550.878 1.69236 552.21 1.62996L552.257 2.62886L552.304 3.62777C550.974 3.69008 549.644 3.75416 548.316 3.81998L548.267 2.82121ZM556.255 2.44707L556.211 1.44804C557.545 1.38917 558.881 1.33206 560.218 1.27673L560.259 2.27587L560.301 3.27502C558.966 3.33028 557.632 3.38731 556.299 3.4461L556.255 2.44707ZM564.271 2.11529L564.232 1.11604C565.561 1.06466 566.891 1.01503 568.222 0.96715L568.258 1.9665L568.294 2.96586C566.964 3.01367 565.636 3.06324 564.31 3.11455L564.271 2.11529ZM572.238 1.82868L572.205 0.829232C573.533 0.785005 574.863 0.742526 576.194 0.701799L576.225 1.70133L576.255 2.70086C574.926 2.74153 573.598 2.78396 572.271 2.82813L572.238 1.82868ZM580.218 1.58449L580.19 0.584882C581.523 0.547667 582.857 0.512209 584.193 0.478514L584.218 1.4782L584.243 2.47788C582.91 2.51153 581.577 2.54694 580.246 2.5841L580.218 1.58449ZM588.224 1.38247L588.202 0.382724C589.539 0.352561 590.877 0.324166 592.217 0.297544L592.237 1.29735L592.257 2.29715C590.919 2.32374 589.582 2.35209 588.247 2.38222L588.224 1.38247ZM596.228 1.22332L596.211 0.223473C597.539 0.200623 598.867 0.179515 600.196 0.160153L600.211 1.16005L600.226 2.15994C598.898 2.17928 597.571 2.20036 596.246 2.22318L596.228 1.22332ZM604.199 1.10724L604.188 0.107312C605.519 0.0914478 606.851 0.0773352 608.185 0.0649789L608.194 1.06494L608.203 2.06489C606.872 2.07723 605.541 2.09133 604.211 2.10717L604.199 1.10724ZM612.194 1.03316L612.188 0.0331842C613.523 0.0243455 614.859 0.0172683 616.196 0.0119575L616.2 1.01195L616.204 2.01194C614.869 2.01725 613.534 2.02431 612.201 2.03314L612.194 1.03316ZM620.212 1.00133L620.211 0.00132992C620.88 0.000443516 621.55 0 622.22 0C622.89 0 623.56 0.000443502 624.229 0.00132988L624.228 1.00133L624.227 2.00133C623.558 2.00044 622.889 2 622.22 2C621.551 2 620.882 2.00044 620.213 2.00133L620.212 1.00133ZM628.24 1.01195L628.244 0.0119574C629.581 0.0172681 630.917 0.0243452 632.253 0.0331838L632.246 1.03316L632.239 2.03314C630.906 2.02431 629.571 2.01725 628.236 2.01194L628.24 1.01195ZM636.246 1.06494L636.256 0.0649786C637.589 0.0773351 638.921 0.0914479 640.253 0.107312L640.241 1.10724L640.229 2.10717C638.899 2.09133 637.569 2.07723 636.237 2.06489L636.246 1.06494ZM644.229 1.16005L644.244 0.160153C645.573 0.179516 646.902 0.200624 648.229 0.223474L648.212 1.22333L648.195 2.22318C646.869 2.20036 645.542 2.17928 644.215 2.15994L644.229 1.16005ZM652.203 1.29735L652.223 0.297545C653.563 0.324167 654.901 0.352562 656.239 0.382726L656.216 1.38247L656.194 2.38222C654.858 2.35209 653.521 2.32374 652.184 2.29715L652.203 1.29735ZM660.222 1.4782L660.248 0.478516C661.583 0.512211 662.917 0.547669 664.25 0.584885L664.222 1.5845L664.194 2.58411C662.863 2.54694 661.531 2.51153 660.197 2.47788L660.222 1.4782ZM668.216 1.70133L668.246 0.701802C669.577 0.742529 670.907 0.785009 672.236 0.829236L672.202 1.82868L672.169 2.82813C670.842 2.78396 669.514 2.74154 668.185 2.70087L668.216 1.70133ZM676.183 1.96651L676.219 0.967157C677.55 1.01503 678.879 1.06467 680.208 1.11605L680.169 2.1153L680.131 3.11455C678.804 3.06324 677.476 3.01368 676.147 2.96586L676.183 1.96651ZM684.181 2.27588L684.222 1.27674C685.559 1.33207 686.895 1.38918 688.23 1.44806L688.186 2.44708L688.142 3.44611C686.809 3.38732 685.475 3.33029 684.14 3.27503L684.181 2.27588ZM692.183 2.62887L692.23 1.62997C693.562 1.69237 694.893 1.75653 696.223 1.82245L696.174 2.82122L696.124 3.82C694.796 3.75417 693.467 3.6901 692.136 3.62778L692.183 2.62887ZM700.157 3.0241L700.209 2.02546C701.537 2.09488 702.863 2.16605 704.188 2.23897L704.133 3.23746L704.078 4.23595C702.755 4.16313 701.43 4.09206 700.105 4.02273L700.157 3.0241ZM708.116 3.46214L708.174 2.46381C709.512 2.54114 710.849 2.62025 712.185 2.70114L712.125 3.69931L712.064 4.69748C710.73 4.61671 709.395 4.5377 708.059 4.46048L708.116 3.46214ZM716.126 3.94712L716.189 2.94912C717.522 3.03356 718.854 3.11976 720.185 3.20773L720.119 4.20555L720.053 5.20337C718.724 5.11553 717.394 5.02944 716.063 4.94512L716.126 3.94712ZM724.104 4.47456L724.173 3.47692C725.501 3.56841 726.828 3.66166 728.153 3.75667L728.082 4.75411L728.01 5.75155C726.687 5.65668 725.362 5.56356 724.036 5.47219L724.104 4.47456ZM732.051 5.04417L732.126 4.04694C733.455 4.14596 734.784 4.24674 736.111 4.34929L736.034 5.34632L735.956 6.34334C734.631 6.24094 733.305 6.14029 731.977 6.04141L732.051 5.04417ZM740.037 5.66138L740.117 4.66458C741.451 4.77146 742.784 4.88012 744.115 4.99056L744.032 5.98713L743.949 6.98371C742.62 6.87343 741.289 6.76492 739.957 6.65819L740.037 5.66138ZM748.019 6.32352L748.104 5.32718C749.433 5.44116 750.76 5.55692 752.085 5.67443L751.997 6.67053L751.908 7.66662C750.585 7.54927 749.26 7.43368 747.933 7.31986L748.019 6.32352ZM755.966 7.0281L756.057 6.03226C757.38 6.1533 758.701 6.27609 760.021 6.40064L759.927 7.39622L759.833 8.39179C758.515 8.26742 757.196 8.1448 755.875 8.02394L755.966 7.0281ZM763.91 7.77792L764.007 6.78261C765.342 6.91241 766.674 7.044 768.006 7.17738L767.906 8.1724L767.807 9.16742C766.477 9.03424 765.146 8.90283 763.813 8.77322L763.91 7.77792ZM771.893 8.57761L771.995 7.58288C773.324 7.71983 774.651 7.85857 775.976 7.99907L775.87 8.9935L775.765 9.98792C774.442 9.84762 773.117 9.70909 771.79 9.57234L771.893 8.57761ZM779.838 9.42003L779.947 8.42591C781.269 8.56997 782.589 8.71579 783.908 8.86338L783.797 9.85718L783.686 10.851C782.369 10.7036 781.05 10.558 779.73 10.4141L779.838 9.42003ZM787.746 10.3049L787.86 9.31142C789.192 9.46441 790.522 9.61919 791.851 9.77577L791.734 10.7689L791.617 11.762C790.29 11.6057 788.962 11.4511 787.632 11.2984L787.746 10.3049ZM795.72 11.2445L795.84 10.2518C797.167 10.4122 798.494 10.5745 799.818 10.7385L799.695 11.731L799.572 12.7234C798.25 12.5596 796.926 12.3975 795.6 12.2373L795.72 11.2445ZM803.66 12.2281L803.786 11.236C805.107 11.4037 806.427 11.5731 807.744 11.7442L807.615 12.7359L807.487 13.7276C806.171 13.5567 804.854 13.3875 803.535 13.2201L803.66 12.2281ZM811.56 13.2544L811.692 12.2631C813.011 12.4385 814.328 12.6156 815.644 12.7945L815.509 13.7854L815.374 14.7763C814.061 14.5976 812.745 14.4208 811.428 14.2457L811.56 13.2544ZM819.492 14.3333L819.629 13.3429C820.956 13.5275 822.281 13.7139 823.604 13.9021L823.464 14.8921L823.323 15.8821C822.002 15.6942 820.679 15.5081 819.354 15.3238L819.492 14.3333ZM827.424 15.4617L827.568 14.4721C828.888 14.6639 830.205 14.8575 831.521 15.0529L831.374 16.0421L831.227 17.0312C829.914 16.8361 828.598 16.6428 827.281 16.4513L827.424 15.4617ZM835.313 16.6332L835.463 15.6445C836.775 15.8435 838.085 16.0442 839.393 16.2468L839.24 17.235L839.088 18.2232C837.781 18.021 836.473 17.8205 835.163 17.6219L835.313 16.6332ZM843.201 17.8544L843.357 16.8667C844.682 17.0761 846.005 17.2873 847.326 17.5004L847.167 18.4876L847.008 19.4749C845.689 19.2622 844.368 19.0513 843.045 18.8422L843.201 17.8544ZM851.122 19.1318L851.284 18.145C852.602 18.3617 853.917 18.5802 855.23 18.8006L855.065 19.7868L854.899 20.773C853.588 20.553 852.275 20.3349 850.96 20.1185L851.122 19.1318ZM858.995 20.4526L859.164 19.4669C860.473 19.6909 861.78 19.9166 863.085 20.1441L862.914 21.1293L862.742 22.1144C861.439 21.8873 860.134 21.6619 858.827 21.4383L858.995 20.4526ZM866.838 21.8199L867.013 20.8353C868.336 21.0703 869.656 21.3072 870.975 21.5459L870.797 22.5299L870.619 23.5139C869.302 23.2756 867.984 23.0391 866.663 22.8045L866.838 21.8199ZM874.743 23.2509L874.924 22.2675C876.239 22.5098 877.551 22.7541 878.861 23.0001L878.676 23.9829L878.492 24.9657C877.184 24.7201 875.874 24.4763 874.562 24.2343L874.743 23.2509ZM882.596 24.7258L882.784 23.7436C884.09 23.9933 885.393 24.2448 886.694 24.4981L886.503 25.4797L886.312 26.4613C885.013 26.2084 883.712 25.9573 882.408 25.708L882.596 24.7258ZM890.397 26.2444L890.591 25.2635C891.91 25.5247 893.226 25.7879 894.54 26.0529L894.343 27.0331L894.145 28.0134C892.833 27.7488 891.519 27.4861 890.202 27.2253L890.397 26.2444ZM898.277 27.8336L898.478 26.854C899.789 27.1229 901.097 27.3937 902.403 27.6663L902.198 28.6452L901.994 29.6241C900.69 29.352 899.385 29.0817 898.076 28.8132L898.277 27.8336ZM906.105 29.4679L906.313 28.4897C907.614 28.766 908.912 29.0441 910.208 29.3241L909.997 30.3016L909.786 31.279C908.492 30.9996 907.196 30.7219 905.897 30.4461L906.105 29.4679ZM913.875 31.1462L914.09 30.1695C915.399 30.4571 916.706 30.7465 918.01 31.0378L917.792 32.0137L917.574 32.9897C916.272 32.6989 914.968 32.41 913.661 32.123L913.875 31.1462ZM921.713 32.8966L921.934 31.9215C923.24 32.2179 924.543 32.5162 925.843 32.8164L925.618 33.7908L925.393 34.7651C924.095 34.4655 922.794 34.1677 921.491 33.8718L921.713 32.8966ZM929.508 34.6961L929.736 33.7225C931.032 34.0264 932.324 34.3322 933.614 34.6398L933.382 35.6125L933.15 36.5853C931.863 36.2782 930.572 35.973 929.279 35.6696L929.508 34.6961ZM937.241 36.5401L937.477 35.5682C938.778 35.8835 940.076 36.2006 941.372 36.5196L941.133 37.4906L940.894 38.4616C939.6 38.1432 938.304 37.8266 937.006 37.512L937.241 36.5401ZM945.035 38.4591L945.278 37.489C946.577 37.8141 947.873 38.141 949.167 38.4698L948.921 39.439L948.674 40.4082C947.383 40.08 946.089 39.7537 944.792 39.4292L945.035 38.4591ZM952.79 40.4303L953.04 39.462C954.328 39.7946 955.613 40.1291 956.896 40.4655L956.642 41.4328L956.388 42.4C955.108 42.0643 953.826 41.7305 952.54 41.3985L952.79 40.4303ZM960.478 42.4465L960.735 41.4802C962.029 41.8249 963.321 42.1716 964.609 42.5202L964.348 43.4855L964.087 44.4508C962.801 44.1029 961.512 43.7569 960.22 43.4128L960.478 42.4465ZM968.228 44.5432L968.493 43.5789C969.784 43.9338 971.073 44.2906 972.358 44.6493L972.089 45.6124L971.82 46.5757C970.538 46.2177 969.252 45.8616 967.963 45.5075L968.228 44.5432ZM975.933 46.6932L976.205 45.7311C977.485 46.0936 978.761 46.458 980.035 46.8243L979.758 47.7853L979.482 48.7464C978.211 48.3808 976.937 48.0171 975.66 47.6553L975.933 46.6932ZM983.565 48.8889L983.845 47.929C985.135 48.3055 986.421 48.684 987.704 49.0645L987.419 50.0232L987.135 50.9819C985.855 50.6023 984.571 50.2245 983.285 49.8488L983.565 48.8889ZM991.271 51.1741L991.559 50.2166C992.841 50.6026 994.12 50.9905 995.395 51.3804L995.103 52.3367L994.81 53.293C993.538 52.9039 992.262 52.5168 990.982 52.1316L991.271 51.1741ZM998.915 53.5109L999.211 52.5559C1000.48 52.9496 1001.75 53.3453 1003.01 53.7429L1002.71 54.6967L1002.41 55.6505C1001.15 55.2538 999.885 54.8589 998.618 54.466L998.915 53.5109ZM1006.49 55.8958L1006.79 54.9433C1008.07 55.354 1009.35 55.7666 1010.63 56.1812L1010.32 57.1323L1010.01 58.0835C1008.74 57.6698 1007.46 57.258 1006.18 56.8483L1006.49 55.8958ZM1014.14 58.3808L1014.45 57.431C1015.72 57.8497 1016.99 58.2702 1018.25 58.6928L1017.94 59.6411L1017.62 60.5895C1016.36 60.1679 1015.09 59.7482 1013.83 59.3306L1014.14 58.3808ZM1021.71 60.9133L1022.03 59.9664C1023.29 60.3928 1024.54 60.8213 1025.79 61.2517L1025.46 62.1971L1025.14 63.1425C1023.89 62.7131 1022.64 62.2857 1021.39 61.8601L1021.71 60.9133ZM1029.23 63.5069L1029.56 62.563C1030.84 63.0077 1032.1 63.4545 1033.37 63.9033L1033.03 64.8456L1032.7 65.7879C1031.44 65.3402 1030.17 64.8945 1028.9 64.4508L1029.23 63.5069ZM1036.81 66.1965L1037.15 65.2558C1038.4 65.7086 1039.65 66.1634 1040.9 66.6203L1040.56 67.5594L1040.21 68.4984C1038.97 68.0427 1037.72 67.5889 1036.47 67.1372L1036.81 66.1965ZM1044.29 68.9342L1044.63 67.9968C1045.87 68.4577 1047.11 68.9205 1048.34 69.3853L1047.99 70.321L1047.64 71.2566C1046.41 70.793 1045.17 70.3313 1043.94 69.8716L1044.29 68.9342ZM1051.76 71.7541L1052.12 70.8202C1053.37 71.3009 1054.62 71.7836 1055.87 72.2683L1055.51 73.2004L1055.15 74.1324C1053.9 73.6489 1052.66 73.1674 1051.4 72.688L1051.76 71.7541ZM1059.23 74.6589L1059.6 73.7288C1060.84 74.2176 1062.07 74.7085 1063.3 75.2014L1062.93 76.1296L1062.56 77.0579C1061.33 76.5662 1060.1 76.0766 1058.86 75.589L1059.23 74.6589ZM1066.6 77.6125L1066.98 76.6863C1068.22 77.1916 1069.46 77.699 1070.69 78.2084L1070.31 79.1326L1069.93 80.0569C1068.7 79.5488 1067.46 79.0427 1066.22 78.5388L1066.6 77.6125ZM1074.02 80.6796L1074.41 79.7575C1075.65 80.276 1076.88 80.7965 1078.1 81.3192L1077.71 82.2391L1077.32 83.1591C1076.1 82.6379 1074.87 82.1187 1073.64 81.6017L1074.02 80.6796ZM1081.37 83.8111L1081.77 82.8934C1082.99 83.4202 1084.2 83.9491 1085.41 84.4801L1085 85.3955L1084.6 86.311C1083.4 85.7816 1082.19 85.2542 1080.97 84.7289L1081.37 83.8111ZM1088.65 87.0113L1089.06 86.0982C1090.29 86.648 1091.52 87.2 1092.74 87.7541L1092.32 88.6648L1091.91 89.5755C1090.69 89.023 1089.47 88.4726 1088.24 87.9244L1088.65 87.0113ZM1095.97 90.3311L1096.39 89.423C1097.6 89.9814 1098.8 90.542 1100.01 91.1047L1099.58 92.0103L1099.16 92.9159C1097.96 92.3549 1096.76 91.7961 1095.55 91.2393L1095.97 90.3311ZM1103.17 93.702L1103.6 92.7991C1104.8 93.3719 1106 93.9469 1107.19 94.524L1106.76 95.4243L1106.32 96.3246C1105.13 95.7493 1103.94 95.1761 1102.74 94.605L1103.17 93.702ZM1110.38 97.1907L1110.82 96.2933C1112.03 96.8852 1113.22 97.4794 1114.42 98.0758L1113.97 98.9703L1113.52 99.8648C1112.33 99.2704 1111.14 98.6782 1109.94 98.0882L1110.38 97.1907ZM1117.53 100.763L1117.98 99.8713C1119.16 100.472 1120.34 101.075 1121.51 101.68L1121.05 102.568L1120.59 103.457C1119.43 102.854 1118.25 102.253 1117.08 101.654L1117.53 100.763ZM1124.59 104.411L1125.05 103.525C1126.25 104.153 1127.44 104.783 1128.62 105.415L1128.15 106.297L1127.68 107.179C1126.5 106.549 1125.32 105.921 1124.12 105.296L1124.59 104.411ZM1131.68 108.196L1132.15 107.318C1133.32 107.954 1134.49 108.593 1135.65 109.234L1135.16 110.109L1134.68 110.984C1133.53 110.346 1132.36 109.709 1131.2 109.075L1131.68 108.196ZM1138.62 112.035L1139.11 111.164C1140.28 111.823 1141.44 112.483 1142.6 113.147L1142.1 114.014L1141.61 114.882C1140.45 114.221 1139.29 113.563 1138.13 112.907L1138.62 112.035ZM1145.59 116.028L1146.09 115.164C1147.25 115.839 1148.4 116.516 1149.54 117.195L1149.03 118.055L1148.52 118.914C1147.38 118.238 1146.23 117.564 1145.08 116.891L1145.59 116.028ZM1152.43 120.095L1152.95 119.24C1154.08 119.924 1155.21 120.61 1156.33 121.299L1155.8 122.151L1155.28 123.002C1154.16 122.316 1153.04 121.632 1151.92 120.951L1152.43 120.095ZM1159.23 124.285L1159.76 123.438C1160.9 124.153 1162.04 124.871 1163.16 125.59L1162.62 126.433L1162.08 127.275C1160.96 126.558 1159.83 125.844 1158.7 125.131L1159.23 124.285ZM1165.97 128.595L1166.51 127.757C1167.62 128.482 1168.73 129.209 1169.82 129.938L1169.27 130.771L1168.71 131.603C1167.62 130.877 1166.53 130.154 1165.42 129.432L1165.97 128.595ZM1172.58 132.999L1173.14 132.171C1174.26 132.93 1175.37 133.69 1176.47 134.454L1175.9 135.276L1175.33 136.098C1174.24 135.338 1173.13 134.581 1172.02 133.826L1172.58 132.999ZM1179.17 137.567L1179.75 136.75C1180.84 137.518 1181.92 138.289 1182.99 139.062L1182.4 139.872L1181.81 140.683C1180.75 139.914 1179.68 139.147 1178.6 138.383L1179.17 137.567ZM1185.6 142.205L1186.19 141.401C1187.28 142.205 1188.36 143.011 1189.43 143.82L1188.83 144.619L1188.23 145.417C1187.16 144.612 1186.09 143.81 1185 143.01L1185.6 142.205ZM1192.01 147.046L1192.62 146.255C1193.68 147.068 1194.72 147.885 1195.76 148.704L1195.14 149.489L1194.52 150.274C1193.49 149.46 1192.45 148.648 1191.4 147.838L1192.01 147.046ZM1198.22 151.946L1198.85 151.168C1199.9 152.019 1200.95 152.873 1201.98 153.729L1201.35 154.5L1200.71 155.27C1199.68 154.419 1198.64 153.57 1197.59 152.724L1198.22 151.946ZM1204.42 157.072L1205.07 156.309C1206.08 157.171 1207.09 158.036 1208.09 158.904L1207.43 159.659L1206.78 160.414C1205.79 159.552 1204.78 158.692 1203.77 157.835L1204.42 157.072ZM1210.39 162.261L1211.06 161.514C1212.07 162.414 1213.07 163.317 1214.06 164.222L1213.38 164.96L1212.71 165.698C1211.72 164.798 1210.73 163.902 1209.73 163.007L1210.39 162.261ZM1216.32 167.683L1217.01 166.954C1217.98 167.868 1218.94 168.784 1219.89 169.703L1219.2 170.422L1218.5 171.141C1217.56 170.229 1216.6 169.319 1215.64 168.412L1216.32 167.683ZM1222.01 173.176L1222.71 172.466C1223.68 173.421 1224.63 174.379 1225.56 175.339L1224.85 176.038L1224.13 176.738C1223.2 175.784 1222.26 174.834 1221.3 173.885L1222.01 173.176ZM1227.62 178.92L1228.35 178.232C1229.27 179.198 1230.17 180.168 1231.07 181.14L1230.33 181.817L1229.59 182.494C1228.71 181.529 1227.81 180.567 1226.9 179.608L1227.62 178.92ZM1232.98 184.746L1233.73 184.081C1234.63 185.092 1235.52 186.105 1236.39 187.121L1235.64 187.774L1234.88 188.427C1234.01 187.419 1233.13 186.414 1232.24 185.411L1232.98 184.746ZM1238.21 190.818L1238.98 190.178C1239.83 191.2 1240.67 192.224 1241.49 193.251L1240.71 193.878L1239.94 194.504C1239.12 193.486 1238.29 192.471 1237.44 191.458L1238.21 190.818Z" fill="#453E3E"/>
</svg>
