<svg width="231" height="39" viewBox="0 0 231 39" fill="none" xmlns="http://www.w3.org/2000/svg">
<mask id="path-1-inside-1_1781_4085" fill="white">
<path fill-rule="evenodd" clip-rule="evenodd" d="M0 0H227.476V37.4999H16.4708L0 21.2896V0ZM0 37.1333L0.372516 37.4999H0V37.1333ZM192.942 32.5211H167.592V37.4976H192.942V32.5211Z"/>
</mask>
<path fill-rule="evenodd" clip-rule="evenodd" d="M0 0H227.476V37.4999H16.4708L0 21.2896V0ZM0 37.1333L0.372516 37.4999H0V37.1333ZM192.942 32.5211H167.592V37.4976H192.942V32.5211Z" fill="#5B13EC" fill-opacity="0.4"/>
<path d="M227.476 0H228.226V-0.749999H227.476V0ZM0 0V-0.749999H-0.749999V0H0ZM227.476 37.4999V38.2499H228.226V37.4999H227.476ZM16.4708 37.4999L15.9448 38.0344L16.1637 38.2499H16.4708V37.4999ZM0 21.2896H-0.749999V21.6038L-0.526084 21.8242L0 21.2896ZM0.372516 37.4999V38.2499H2.20379L0.8986 36.9653L0.372516 37.4999ZM0 37.1333L0.526084 36.5987L-0.749999 35.3428L-0.749999 37.1333H0ZM0 37.4999H-0.749999V38.2499H0V37.4999ZM167.592 32.5211V31.7711H166.842V32.5211H167.592ZM192.942 32.5211H193.692V31.7711H192.942V32.5211ZM167.592 37.4976H166.842V38.2476H167.592V37.4976ZM192.942 37.4976V38.2476H193.692V37.4976H192.942ZM227.476 -0.749999H0V0.749999H227.476V-0.749999ZM228.226 37.4999V0H226.726V37.4999H228.226ZM16.4708 38.2499H227.476V36.7499H16.4708V38.2499ZM-0.526084 21.8242L15.9448 38.0344L16.9969 36.9653L0.526084 20.7551L-0.526084 21.8242ZM-0.749999 0V21.2896H0.749999V0H-0.749999ZM0.8986 36.9653L0.526084 36.5987L-0.526084 37.6678L-0.153569 38.0344L0.8986 36.9653ZM0 38.2499H0.372516V36.7499H0V38.2499ZM-0.749999 37.1333V37.4999H0.749999V37.1333H-0.749999ZM167.592 33.2711H192.942V31.7711H167.592V33.2711ZM168.342 37.4976V32.5211H166.842V37.4976H168.342ZM192.942 36.7476H167.592V38.2476H192.942V36.7476ZM192.192 32.5211V37.4976H193.692V32.5211H192.192Z" fill="#5B13EC" mask="url(#path-1-inside-1_1781_4085)"/>
<path d="M174.894 37.1571V36.6846H176.064V37.1571H174.894ZM177.829 38.2461V34.6011H179.053C179.272 34.6011 179.452 34.6431 179.593 34.7271C179.734 34.8081 179.839 34.9281 179.908 35.0871C179.977 35.2431 180.011 35.4336 180.011 35.6586C180.011 35.9406 179.965 36.1566 179.872 36.3066C179.779 36.4536 179.653 36.5556 179.494 36.6126C179.335 36.6696 179.156 36.6981 178.958 36.6981H178.634V38.2461H177.829ZM178.634 36.1356H178.904C179.003 36.1356 179.078 36.1176 179.129 36.0816C179.18 36.0456 179.213 35.9916 179.228 35.9196C179.246 35.8476 179.255 35.7561 179.255 35.6451C179.255 35.5521 179.248 35.4711 179.233 35.4021C179.221 35.3301 179.189 35.2731 179.138 35.2311C179.087 35.1891 179.008 35.1681 178.9 35.1681H178.634V36.1356ZM182.236 38.2461L181.579 34.6011H182.267L182.659 37.0761L183.023 34.6011H183.752L183.086 38.2461H182.236ZM185.241 37.1571V36.6846H186.411V37.1571H185.241Z" fill="#F0F0F0"/>
<g style="mix-blend-mode:lighten">
<rect x="227.25" width="3" height="37.4999" fill="#0DF2F2"/>
</g>
<g style="mix-blend-mode:lighten">
<rect x="167.25" y="32.25" width="2.25" height="5.24998" fill="#0DF2F2"/>
</g>
</svg>
