<svg width="16" height="48" viewBox="0 0 16 48" fill="none" xmlns="http://www.w3.org/2000/svg">
<path fill-rule="evenodd" clip-rule="evenodd" d="M2.56317 0H0V1.60752L0.175781 1.45789L15.75 12.8064V10.931L2.56317 0ZM0 7.57908V4.51912L15.75 15.9957V19.0557L0 7.57908ZM0 10.7684V13.5093L15.75 24.9859V21.9205L15.5446 22.0953L0 10.7684ZM0 19.981V16.6986L15.5439 28.025L15.75 27.8495V31.4575L0 19.981ZM0 23.1703V26.4415L0.649658 25.8885L15.75 36.8917V34.3212L15.5439 34.4967L0 23.1703ZM0 31.8496V28.6044L15.75 40.081V43.3262L0 31.8496ZM0 35.0389V37.6615L14.1879 47.9999H15.75V46.1887L15.5431 46.3648L0 35.0389ZM0 43.431V40.8508L9.81104 47.9999H6.27016L0 43.431ZM0 46.6203V47.9999H1.89327L0 46.6203ZM15.75 7.53226V4.52438L10.199 0H6.66333L15.75 7.53226Z" fill="#5B13EC"/>
</svg>
