<svg width="30" height="30" viewBox="0 0 30 30" fill="none" xmlns="http://www.w3.org/2000/svg">
<mask id="mask0_2960_5029" style="mask-type:alpha" maskUnits="userSpaceOnUse" x="0" y="0" width="30" height="30">
<rect width="30" height="30" fill="#D9D9D9"/>
</mask>
<g mask="url(#mask0_2960_5029)">
<path fill-rule="evenodd" clip-rule="evenodd" d="M3.0743 9.49866L2.07972 9.92526L3.97179 14.3364L4.95742 13.8889L4.01564 11.6933C4.35445 12.0293 4.68114 12.3892 4.86525 12.659L5.45375 12.0008C5.16585 11.6295 4.5949 11.0828 4.12548 10.6805L3.74996 11.0739L3.0743 9.49866ZM14.9462 9.35408L13.9772 9.79403L13.972 9.78196L12.9941 10.2014L12.5962 9.27367L14.5519 8.43481L14.9462 9.35408ZM20.2139 6.96255L19.3333 4.9095L17.4194 5.73044L17.2258 5.27912L19.4239 4.33629L19.0654 3.50051L16.8673 4.44334L16.559 3.72457L15.5895 4.14042L15.8978 4.85919L13.8334 5.74466L14.1919 6.58044L16.2563 5.69497L16.4499 6.14629L14.6446 6.92063L15.5674 9.07206L17.0071 8.41845L17.3564 8.25984L17.4109 8.23511L18.1851 7.88364L18.3172 7.82365L18.5144 7.73414L20.2139 6.96255ZM18.0611 7.22649L18.9972 6.82498L18.6853 6.09785L17.7492 6.49936L18.0611 7.22649ZM16.7797 6.91521L15.9021 7.29162L16.214 8.01875L17.0916 7.64233L16.7797 6.91521ZM10.6807 11.2906L8.58117 12.2438L8.26053 12.3893L7.63446 12.6736L7.26146 12.8429L5.5372 13.6257L5.25821 12.9753L7.06763 12.1992C6.97241 11.9294 6.86529 11.6696 6.75876 11.4213L6.43253 10.6607L4.98663 11.2809L4.58512 10.3448L6.03102 9.72465L5.4897 8.46262L6.50099 8.02885L7.04231 9.29088L8.86431 8.50937L9.92186 10.9749L10.4484 10.7491L10.6807 11.2906ZM8.93564 11.3979L8.2796 9.86846L7.44382 10.2269L7.77363 10.9959C7.88009 11.2441 7.98198 11.5018 8.07323 11.7678L8.93564 11.3979ZM2.82419 11.684L2.0624 11.892C2.30144 12.6108 2.55251 13.6114 2.59211 14.2574L3.45067 14.2058C3.37522 13.4762 3.09906 12.4171 2.82419 11.684ZM12.0411 5.88014L11.5554 6.80095C12.2098 6.96555 13.0517 7.26741 13.471 7.55267L13.9901 6.54826C13.5291 6.28091 12.6931 6.01607 12.0411 5.88014Z" fill="#5B13EC"/>
<path fill-rule="evenodd" clip-rule="evenodd" d="M13.4103 9.5815L15.3484 8.7016L16.4579 11.2883C17.0288 11.6965 17.768 11.6664 18.6515 11.327C19.6473 10.9494 21.5338 10.1106 22.6227 9.53465C22.6144 9.81528 22.6552 10.3717 22.7424 10.6905C21.7526 11.1745 20.0715 11.9153 19.0507 12.3037C18.0047 12.7029 17.2071 12.758 16.3842 12.3392C16.1563 12.8228 15.9164 13.3018 15.6228 13.8631L14.6816 13.0299C14.9434 12.6544 15.2505 12.1971 15.4995 11.7531L14.7451 9.99438L13.7673 10.4138L13.4103 9.5815ZM4.37397 13.6839L5.3596 13.2365L7.21368 17.5591L6.21911 17.9857L4.37397 13.6839ZM3.33378 14.1562L4.12816 13.7955C4.1712 14.0176 4.20427 14.229 4.22384 14.4182L3.36527 14.4698C3.35931 14.3726 3.34856 14.2673 3.33378 14.1562ZM7.74523 12.1534L8.74519 11.6994C8.78009 11.792 8.81392 11.8856 8.84639 11.9803L9.70881 11.6104L9.58372 11.3187L10.5611 10.875L10.695 11.1873L11.2216 10.9615L11.6338 11.9226L9.65216 12.7726C10.51 13.6227 11.5538 14.1446 12.7701 14.0873C12.6293 14.4049 12.4897 14.9794 12.4648 15.3364C11.1979 15.2982 10.1623 14.7281 9.22776 13.8077C9.28966 14.892 9.03097 16.0474 8.15097 17.2065C7.92762 17.0549 7.42363 16.8258 7.10716 16.734C8.11931 15.5678 8.27911 14.4493 8.11202 13.4333L6.44364 14.1489L6.03137 13.1877L7.84079 12.4116C7.81004 12.3245 7.77805 12.2384 7.74523 12.1534ZM15.9696 8.41958L16.889 8.00219L16.9872 8.23117L17.8647 7.85476L17.7586 7.60736L18.7194 7.17117L18.8343 7.43891L19.7703 7.0374L19.6471 6.75002L20.6161 6.31007L21.0744 7.37853L19.513 8.04827C20.2483 8.35286 21.2261 8.51575 22.036 8.48997C21.8928 8.77899 21.7425 9.25908 21.696 9.56598C21.0075 9.51157 20.2001 9.27997 19.4835 8.9526L20.1177 10.431L19.1481 10.8469L18.489 9.31005C18.281 10.0914 17.9063 10.8559 17.4276 11.4265C17.1935 11.2499 16.7504 11.0243 16.4662 10.9384C17.0352 10.369 17.5211 9.55379 17.7337 8.81147L16.3857 9.38966L15.9696 8.41958Z" fill="#5B13EC"/>
<rect x="9.49686" y="10.1746" width="12.3833" height="8.09652" transform="rotate(7.141 9.49686 10.1746)" stroke="#0DF2F2" stroke-width="0.235793"/>
<path d="M12.805 14.2194C12.7631 14.1935 12.7138 14.1533 12.6571 14.0987C12.6 14.0461 12.5442 13.9845 12.4895 13.9138C12.4366 13.8453 12.3931 13.776 12.3589 13.7058C12.3505 13.7068 12.3423 13.7067 12.3342 13.7057C12.3261 13.7047 12.317 13.7035 12.3069 13.7022C12.1228 13.6786 11.9813 13.6276 11.8824 13.5491C11.7835 13.4706 11.7186 13.3677 11.6876 13.2404C11.6566 13.113 11.6519 12.9654 11.6734 12.7975L11.7905 11.8842C11.8123 11.7143 11.8541 11.5726 11.9159 11.4592C11.9777 11.3458 12.0663 11.2646 12.1815 11.2157C12.297 11.1647 12.4468 11.151 12.6309 11.1746C12.817 11.1984 12.9595 11.2496 13.0584 11.3281C13.1596 11.4048 13.2259 11.5058 13.2571 11.6311C13.2883 11.7564 13.293 11.9041 13.2713 12.074L13.1542 12.9873C13.1394 13.1026 13.1149 13.2054 13.0807 13.2956C13.0486 13.386 13.0038 13.4626 12.9465 13.5251C12.8911 13.5879 12.8214 13.6345 12.7373 13.6648C12.76 13.6965 12.7838 13.7274 12.8088 13.7573C12.8334 13.7892 12.8585 13.8181 12.884 13.844C12.9092 13.8719 12.9351 13.8948 12.9616 13.9126L12.805 14.2194ZM12.3563 13.3168C12.413 13.3241 12.4562 13.3153 12.4862 13.2903C12.5161 13.2654 12.538 13.2312 12.5518 13.1877C12.5656 13.1442 12.5754 13.0992 12.5814 13.0527L12.7331 11.8693C12.7393 11.8207 12.7411 11.7747 12.7384 11.7312C12.7361 11.6857 12.7235 11.647 12.7009 11.6153C12.6782 11.5837 12.6385 11.5642 12.5819 11.5569C12.5253 11.5497 12.482 11.5585 12.452 11.5835C12.4241 11.6087 12.4033 11.643 12.3895 11.6865C12.378 11.7282 12.3691 11.7733 12.3629 11.8218L12.2112 13.0052C12.2052 13.0518 12.2024 13.0977 12.2028 13.143C12.2052 13.1885 12.2167 13.227 12.2374 13.2584C12.26 13.2901 12.2997 13.3096 12.3563 13.3168Z" fill="#0DF2F2"/>
<path d="M14.0909 13.9309C13.9028 13.9068 13.759 13.8575 13.6596 13.7831C13.5624 13.7069 13.5001 13.6074 13.4727 13.4846C13.4455 13.3598 13.4429 13.2114 13.465 13.0395L13.6824 11.3433L14.2195 11.4121L13.9916 13.1903C13.9851 13.2408 13.9826 13.2919 13.9842 13.3435C13.9859 13.3951 13.9977 13.4388 14.0199 13.4746C14.0441 13.5106 14.0845 13.5322 14.1411 13.5394C14.1998 13.547 14.2443 13.5362 14.2748 13.5072C14.3052 13.4782 14.3267 13.4388 14.3393 13.389C14.3538 13.3395 14.3644 13.2895 14.3709 13.2389L14.5988 11.4607L15.1389 11.53L14.9215 13.2262C14.8994 13.3981 14.8585 13.5409 14.7987 13.6546C14.7412 13.7665 14.6558 13.847 14.5426 13.8962C14.4296 13.9434 14.2791 13.955 14.0909 13.9309Z" fill="#0DF2F2"/>
<path d="M15.1725 14.0325L15.4875 11.5747L16.0307 11.6443L15.7156 14.1021L15.1725 14.0325Z" fill="#0DF2F2"/>
<path d="M16.7814 14.2757C16.5953 14.2519 16.4519 14.1996 16.3512 14.1188C16.2528 14.0363 16.1892 13.9315 16.1602 13.8044C16.1315 13.6753 16.1278 13.5278 16.1491 13.3619L16.2626 12.4759C16.2844 12.306 16.3253 12.1632 16.3854 12.0475C16.4457 11.9298 16.5338 11.8445 16.6495 11.7915C16.7673 11.7387 16.9193 11.7243 17.1054 11.7481C17.2875 11.7714 17.4252 11.8199 17.5185 11.8936C17.6142 11.9655 17.6764 12.0578 17.7051 12.1704C17.7339 12.2831 17.7393 12.4092 17.7214 12.5488L17.6942 12.7612L17.1632 12.6931L17.1947 12.4473C17.2009 12.3988 17.2038 12.3519 17.2034 12.3066C17.2051 12.2616 17.1956 12.2233 17.175 12.1919C17.1546 12.1584 17.1151 12.138 17.0564 12.1304C16.9997 12.1232 16.9553 12.1329 16.9231 12.1596C16.8929 12.1866 16.8708 12.2228 16.8567 12.2683C16.845 12.312 16.8358 12.3592 16.8294 12.4098L16.6812 13.5659C16.6742 13.6205 16.6717 13.6716 16.6739 13.7191C16.6783 13.7649 16.6918 13.8037 16.7145 13.8354C16.7394 13.8653 16.7782 13.8836 16.8308 13.8904C16.8875 13.8976 16.9297 13.8887 16.9576 13.8634C16.9858 13.8362 17.0059 13.7997 17.0179 13.754C17.03 13.7082 17.0391 13.6611 17.0453 13.6125L17.0784 13.3546L17.6094 13.4227L17.5822 13.6351C17.5643 13.7747 17.5269 13.8973 17.4702 14.0032C17.4157 14.1072 17.3328 14.185 17.2213 14.2365C17.1121 14.2862 16.9655 14.2993 16.7814 14.2757Z" fill="#0DF2F2"/>
<path d="M17.7919 14.3682L18.1069 11.9104L18.6501 11.98L18.5213 12.9844L19.0628 12.0329L19.5938 12.101L18.9963 13.1532L19.3 14.5615L18.7477 14.4908L18.5319 13.3589L18.4618 13.4487L18.3351 14.4379L17.7919 14.3682Z" fill="#0DF2F2"/>
<path d="M11.7235 18.2537C11.5394 18.2301 11.3979 18.1791 11.299 18.1006C11.2001 18.0222 11.1352 17.9193 11.1042 17.7919C11.0732 17.6646 11.0685 17.517 11.09 17.3491L11.2071 16.4357C11.2289 16.2658 11.2707 16.1241 11.3325 16.0108C11.3943 15.8974 11.4829 15.8162 11.5981 15.7672C11.7136 15.7162 11.8634 15.7025 12.0475 15.7261C12.2336 15.75 12.3761 15.8011 12.475 15.8796C12.5762 15.9563 12.6425 16.0573 12.6737 16.1827C12.7049 16.308 12.7096 16.4556 12.6879 16.6255L12.5708 17.5389C12.5493 17.7068 12.5075 17.8484 12.4454 17.9638C12.3833 18.0792 12.2935 18.1623 12.176 18.213C12.0604 18.264 11.9096 18.2776 11.7235 18.2537ZM11.7729 17.8684C11.8296 17.8756 11.8728 17.8668 11.9028 17.8418C11.9327 17.8169 11.9546 17.7827 11.9684 17.7392C11.9822 17.6958 11.992 17.6508 11.998 17.6042L12.1497 16.4208C12.1559 16.3723 12.1577 16.3262 12.155 16.2827C12.1527 16.2372 12.1401 16.1986 12.1175 16.1669C12.0948 16.1352 12.0551 16.1157 11.9985 16.1085C11.9459 16.1017 11.9046 16.1108 11.8747 16.1358C11.8448 16.1607 11.8229 16.1949 11.8091 16.2384C11.7956 16.2798 11.7857 16.3248 11.7795 16.3734L11.6278 17.5568C11.6218 17.6033 11.619 17.6492 11.6194 17.6945C11.6218 17.74 11.6333 17.7785 11.654 17.81C11.6766 17.8416 11.7163 17.8611 11.7729 17.8684Z" fill="#0DF2F2"/>
<path d="M12.8022 18.355L13.1172 15.8972L13.7939 15.9839C13.9597 16.0052 14.101 16.0418 14.2177 16.0937C14.3344 16.1457 14.4201 16.2235 14.4747 16.3271C14.5315 16.429 14.5489 16.5659 14.5269 16.7379C14.5139 16.839 14.4943 16.928 14.468 17.0048C14.4417 17.0816 14.4025 17.1465 14.3505 17.1995C14.3008 17.2507 14.233 17.2903 14.1471 17.3184L14.3315 18.551L13.7701 18.4791L13.6413 17.343L13.4865 17.3231L13.3453 18.4246L12.8022 18.355ZM13.5266 17.0106L13.6783 17.03C13.7551 17.0399 13.8165 17.0344 13.8624 17.0135C13.9085 16.9907 13.9429 16.955 13.9655 16.9065C13.9905 16.8562 14.0076 16.7947 14.0169 16.7219C14.0304 16.6167 14.0217 16.5323 13.9908 16.4687C13.9599 16.4051 13.8928 16.3667 13.7897 16.3535L13.6137 16.3309L13.5266 17.0106Z" fill="#0DF2F2"/>
<path d="M14.6216 18.5882L14.9366 16.1304L15.5587 16.2101C15.7731 16.2376 15.9365 16.2863 16.0488 16.3562C16.1615 16.4241 16.2346 16.5188 16.2684 16.6403C16.3024 16.7598 16.3078 16.9106 16.2845 17.0927L16.1701 17.9848C16.1465 18.1689 16.1029 18.3165 16.0393 18.4276C15.976 18.5367 15.8812 18.6109 15.7548 18.6502C15.6305 18.6898 15.4621 18.6959 15.2497 18.6687L14.6216 18.5882ZM15.213 18.2816L15.2979 18.2924C15.3809 18.3031 15.4421 18.2986 15.4816 18.279C15.5212 18.2594 15.5481 18.2258 15.5624 18.1783C15.5787 18.131 15.5916 18.071 15.6009 17.9982L15.7382 16.9271C15.7475 16.8542 15.749 16.7948 15.7425 16.7487C15.7381 16.7029 15.719 16.6676 15.6852 16.6427C15.6514 16.6178 15.594 16.6002 15.5131 16.5898L15.4312 16.5793L15.213 18.2816Z" fill="#0DF2F2"/>
<path d="M16.3995 18.8161L16.7146 16.3583L17.8191 16.4998L17.7716 16.87L17.2103 16.7981L17.1321 17.408L17.5599 17.4628L17.5117 17.8391L17.0839 17.7842L16.9897 18.5185L17.5572 18.5913L17.5101 18.9584L16.3995 18.8161Z" fill="#0DF2F2"/>
<path d="M17.7567 18.99L18.0717 16.5322L18.7484 16.6189C18.9143 16.6402 19.0556 16.6768 19.1723 16.7288C19.289 16.7808 19.3746 16.8586 19.4292 16.9622C19.486 17.0641 19.5034 17.201 19.4814 17.3729C19.4684 17.4741 19.4488 17.563 19.4225 17.6399C19.3962 17.7167 19.3571 17.7816 19.305 17.8345C19.2553 17.8857 19.1875 17.9254 19.1017 17.9534L19.286 19.1861L18.7247 19.1141L18.5958 17.978L18.441 17.9582L18.2999 19.0597L17.7567 18.99ZM18.4811 17.6456L18.6328 17.6651C18.7097 17.6749 18.771 17.6694 18.8169 17.6486C18.863 17.6257 18.8974 17.59 18.9201 17.5415C18.945 17.4913 18.9621 17.4297 18.9715 17.3569C18.985 17.2517 18.9762 17.1673 18.9453 17.1037C18.9144 17.0401 18.8474 17.0017 18.7442 16.9885L18.5682 16.966L18.4811 17.6456Z" fill="#0DF2F2"/>
<path d="M12.9042 18.2594L17.1073 16.3988L17.5244 17.341L13.3213 19.2017L12.9042 18.2594ZM14.8608 17.8538L15.8604 17.4113L18.2941 22.909C18.5408 23.4661 18.5539 23.7836 18.2705 24.0953C17.9953 24.4033 17.4819 24.66 16.7527 24.9828C16.5966 24.7187 16.2368 24.3488 15.9788 24.1201C16.4813 23.9271 17.0056 23.6949 17.1695 23.6224C17.3252 23.5535 17.3526 23.4826 17.2909 23.3433L14.8608 17.8538ZM10.626 21.5021L13.2724 20.3306L13.5988 21.068L10.9524 22.2395L10.626 21.5021ZM9.67406 19.219L12.2877 18.062L12.6177 18.8076L10.0041 19.9646L9.67406 19.219ZM11.1192 22.6164L13.7656 21.4449L14.0957 22.1905L11.4493 23.362L11.1192 22.6164ZM9.71308 20.5246L13.0887 19.0303L13.4332 19.8086L10.0576 21.303L9.71308 20.5246ZM12.074 23.5558L14.2452 22.5946L15.3478 25.0853L13.1766 26.0465L12.8321 25.2682L14.143 24.6878L13.7295 23.7538L12.4186 24.3341L12.074 23.5558ZM11.5988 23.7661L12.4509 23.3889L13.6986 26.2074L12.8465 26.5846L11.5988 23.7661ZM20.7542 14.7647L25.0966 12.8424L25.4049 13.5388L21.0625 15.4612L20.7542 14.7647ZM21.4891 16.801L26.1264 14.7481L26.4347 15.4445L21.7974 17.4974L21.4891 16.801ZM22.8164 19.8879L27.503 17.8133L27.8112 18.5097L23.1247 20.5843L22.8164 19.8879ZM21.3816 15.6727L25.4126 13.8882L25.7064 14.5518L21.6753 16.3363L21.3816 15.6727ZM21.368 13.7385L22.2201 13.3613L23.5113 16.2781L22.6592 16.6553L21.368 13.7385ZM23.064 12.9877L23.9325 12.6033L25.2237 15.52L24.3552 15.9045L23.064 12.9877ZM23.5068 16.2899L24.3589 15.9127L25.661 18.854L24.8089 19.2313L23.5068 16.2899ZM25.3072 16.3062L26.2002 15.9108L27.6148 19.1062C27.7961 19.5159 27.8121 19.7733 27.5998 20.0241C27.3792 20.2785 26.9942 20.449 26.4616 20.6848C26.3191 20.4735 26.0639 20.1847 25.8594 20.0106C26.1862 19.8856 26.5385 19.7296 26.6368 19.6861C26.7397 19.6308 26.7616 19.5917 26.7181 19.4933L25.3072 16.3062ZM22.333 17.6228L25.6841 16.1393L25.9924 16.8358L23.5098 17.9348L25.0187 21.3431L24.1502 21.7276L22.333 17.6228ZM23.2388 18.4957L26.1556 17.2045L26.424 17.8108L23.5072 19.102L23.2388 18.4957ZM20.5843 20.8663L21.5352 20.6903C21.6269 21.4728 21.5619 22.3443 21.3727 22.9572C21.1426 22.9022 20.6769 22.8242 20.4213 22.8002C20.6277 22.2483 20.6861 21.5169 20.5843 20.8663ZM21.6816 20.7332L22.2648 20.1027C22.7284 20.3973 23.2781 20.8202 23.5688 21.1227L22.9746 21.8168C22.6885 21.5026 22.136 21.0514 21.6816 20.7332ZM19.6557 17.5734L19.993 18.3353L20.8041 17.9763L20.4668 17.2143L19.6557 17.5734ZM20.3122 19.0564L20.6567 19.8347L21.4679 19.4756L21.1233 18.6973L20.3122 19.0564ZM18.9992 16.0904L19.3329 16.8442L20.144 16.4851L19.8103 15.7313L18.9992 16.0904ZM17.8153 15.6738L20.3224 14.564L22.6727 19.8731L20.1656 20.983L17.8153 15.6738Z" fill="#5B13EC"/>
</g>
</svg>
