<svg width="38" height="38" viewBox="0 0 38 38" fill="none" xmlns="http://www.w3.org/2000/svg">
<mask id="mask0_1875_4825" style="mask-type:alpha" maskUnits="userSpaceOnUse" x="0" y="0" width="38" height="38">
<rect width="37.5" height="37.5" fill="#D9D9D9"/>
</mask>
<g mask="url(#mask0_1875_4825)">
<path d="M18.3769 0C13.3845 0 12.7613 0.0229711 10.8011 0.110261C8.84391 0.202146 7.51158 0.509959 6.34005 0.964787C5.13176 1.4334 4.10572 2.06281 3.08426 3.08426C2.06281 4.10571 1.43187 5.13022 0.96479 6.34003C0.50996 7.51156 0.200615 8.84388 0.110262 10.801C0.0183769 12.7612 0 13.3845 0 18.3769C0 23.3693 0.0229712 23.9926 0.110262 25.9528C0.202146 27.9084 0.50996 29.2422 0.96479 30.4138C1.4334 31.6205 2.06281 32.6481 3.08426 33.6695C4.10572 34.6895 5.13023 35.3219 6.34005 35.789C7.51311 36.2423 8.84544 36.5532 10.8011 36.6435C12.7613 36.7354 13.3845 36.7538 18.3769 36.7538C23.3694 36.7538 23.9926 36.7308 25.9528 36.6435C27.9085 36.5516 29.2423 36.2423 30.4139 35.789C31.6206 35.3204 32.6482 34.6895 33.6696 33.6695C34.6896 32.6481 35.322 31.6251 35.7891 30.4138C36.2424 29.2422 36.5533 27.9084 36.6436 25.9528C36.7355 23.9926 36.7539 23.3693 36.7539 18.3769C36.7539 13.3845 36.7309 12.7612 36.6436 10.801C36.5518 8.84541 36.2424 7.51003 35.7891 6.34003C35.3205 5.13175 34.6896 4.10571 33.6696 3.08426C32.6482 2.06281 31.6252 1.43187 30.4139 0.964787C29.2423 0.509959 27.9085 0.200614 25.9528 0.110261C23.9926 0.0183769 23.3694 0 18.3769 0ZM18.3769 3.30784C23.2821 3.30784 23.8671 3.33234 25.8043 3.41657C27.5961 3.5008 28.5685 3.79789 29.2148 4.05211C30.0754 4.38442 30.6849 4.78259 31.3312 5.42425C31.9728 6.06744 32.371 6.67847 32.7033 7.53912C32.9545 8.18538 33.2546 9.15782 33.3358 10.9496C33.4231 12.8883 33.443 13.4703 33.443 18.3769C33.443 23.2835 33.42 23.867 33.3297 25.8042C33.2362 27.596 32.9376 28.5684 32.6849 29.2147C32.3419 30.0753 31.9514 30.6848 31.3082 31.3311C30.6665 31.9727 30.0463 32.3709 29.1948 32.7032C28.5517 32.9544 27.5639 33.2545 25.7721 33.3357C23.8211 33.423 23.2468 33.4429 18.331 33.4429C13.4136 33.4429 12.8394 33.4199 10.8899 33.3296C9.09659 33.2362 8.10883 32.9375 7.46564 32.6848C6.59426 32.3418 5.99548 31.9513 5.35382 31.3081C4.70909 30.6664 4.29714 30.0462 3.97555 29.1948C3.72286 28.5516 3.42577 27.5638 3.33235 25.7721C3.26344 23.8425 3.23894 23.2468 3.23894 18.3539C3.23894 13.4595 3.26344 12.8623 3.33235 10.9098C3.42577 9.118 3.72286 8.13178 3.97555 7.48859C4.29714 6.61568 4.70909 6.01843 5.35382 5.37371C5.99548 4.73205 6.59426 4.31857 7.46564 3.99851C8.10883 3.74429 9.07515 3.44567 10.8669 3.35378C12.8195 3.28487 13.3937 3.2619 18.308 3.2619L18.3769 3.30784ZM18.3769 8.94036C13.1625 8.94036 8.94039 13.167 8.94039 18.3769C8.94039 23.5913 13.1671 27.8134 18.3769 27.8134C23.5914 27.8134 27.8135 23.5867 27.8135 18.3769C27.8135 13.1625 23.5868 8.94036 18.3769 8.94036ZM18.3769 24.5025C14.9925 24.5025 12.2513 21.7613 12.2513 18.3769C12.2513 14.9925 14.9925 12.2513 18.3769 12.2513C21.7614 12.2513 24.5026 14.9925 24.5026 18.3769C24.5026 21.7613 21.7614 24.5025 18.3769 24.5025ZM30.3924 8.56823C30.3924 9.7857 29.4031 10.7735 28.1872 10.7735C26.9697 10.7735 25.9819 9.78417 25.9819 8.56823C25.9819 7.35229 26.9712 6.36453 28.1872 6.36453C29.4016 6.363 30.3924 7.35229 30.3924 8.56823Z" fill="#F0F0F0"/>
</g>
</svg>
