<svg width="70" height="50" viewBox="0 0 70 50" fill="none" xmlns="http://www.w3.org/2000/svg">
<path fill-rule="evenodd" clip-rule="evenodd" d="M1.46447 1.46447C0 2.92893 0 5.28595 0 10V40C0 44.714 0 47.0711 1.46447 48.5355C2.92893 50 5.28595 50 10 50H61.6851L70 38.937V10C70 5.28595 70 2.92893 68.5355 1.46447C67.0711 0 64.714 0 60 0H10C5.28595 0 2.92893 0 1.46447 1.46447Z" fill="#5B13EC"/>
<rect x="19" y="16.2344" width="5.11765" height="5.11765" fill="#111111"/>
<rect x="30.9414" y="16.2344" width="5.11765" height="5.11765" fill="#111111"/>
<rect x="42.8828" y="16.2344" width="5.11765" height="5.11765" fill="#111111"/>
<rect x="19" y="29.8828" width="5.11765" height="5.11765" fill="#111111"/>
<rect x="30.9414" y="29.8828" width="5.11765" height="5.11765" fill="#111111"/>
<rect x="42.8828" y="29.8828" width="5.11765" height="5.11765" fill="#111111"/>
</svg>
