<svg width="50" height="40" viewBox="0 0 50 40" fill="none" xmlns="http://www.w3.org/2000/svg">
<path d="M49.9021 4.76342C48.0584 5.56108 46.0897 6.10448 44.0169 6.35259C46.1293 5.09971 47.7543 3.12503 48.523 0.768955C46.5418 1.90701 44.3461 2.73543 42.0087 3.1968C40.1421 1.23033 37.4818 0 34.5277 0C28.8675 0 24.2782 4.51735 24.2782 10.0825C24.2782 10.8822 24.3719 11.6512 24.5427 12.3873C16.0222 11.9916 8.47048 7.96432 3.41652 1.87625C2.52698 3.35674 2.02908 5.07715 2.02908 6.95135C2.02908 10.4578 3.84151 13.5398 6.58723 15.3504C4.90605 15.2971 3.32486 14.8419 1.94575 14.0873V14.2123C1.94575 19.1029 5.47269 23.1814 10.1662 24.1103C9.30586 24.3379 8.39757 24.461 7.46636 24.461C6.81222 24.461 6.18516 24.3994 5.5581 24.2846C6.87263 28.2893 10.6516 31.2093 15.1494 31.2913C11.6495 33.996 7.21428 35.6077 2.4374 35.6077C1.62493 35.6077 0.814549 35.5606 0 35.4703C4.56023 38.3288 9.93292 40 15.7431 40C34.6048 40 44.9065 24.6291 44.9065 11.3211C44.9065 10.8925 44.9065 10.4598 44.8752 10.0292C46.8772 8.61639 48.6251 6.83037 50 4.80443L49.9021 4.76342Z" fill="#F0F0F0"/>
</svg>
