<svg width="50" height="35" viewBox="0 0 50 35" fill="none" xmlns="http://www.w3.org/2000/svg">
<path d="M48.9561 5.40439C48.6663 4.36435 48.1136 3.41678 47.3513 2.65326C46.589 1.88974 45.6429 1.33609 44.6045 1.04583C40.7072 2.99854e-05 25.0222 2.96114e-05 25.0222 2.96114e-05C25.0222 2.96114e-05 9.37685 -0.0208443 5.43997 1.04583C4.40159 1.33609 3.45553 1.88974 2.69322 2.65326C1.93092 3.41678 1.37815 4.36435 1.08835 5.40439C0.349581 9.4008 -0.0146376 13.4576 0.000450151 17.5219C-0.0117854 21.5709 0.352422 25.6122 1.08835 29.5935C1.37815 30.6336 1.93092 31.5812 2.69322 32.3447C3.45553 33.1082 4.40159 33.6618 5.43997 33.9521C9.33308 35 25.0222 35 25.0222 35C25.0222 35 40.6656 35 44.6045 33.9521C45.6429 33.6618 46.589 33.1082 47.3513 32.3447C48.1136 31.5812 48.6663 30.6336 48.9561 29.5935C49.6767 25.6108 50.0256 21.5695 49.9982 17.5219C50.0284 13.4591 49.6795 9.40225 48.9561 5.40439ZM20.0162 25.0179V10.003L33.0711 17.5219L20.0162 25.0179Z" fill="#F0F0F0"/>
</svg>
