<svg width="779" height="959" viewBox="0 0 779 959" fill="none" xmlns="http://www.w3.org/2000/svg">
<path d="M182.935 59.0549L182.683 58.6775L182.58 58.7463L182.526 58.8581L182.935 59.0549ZM270.017 1V0.546446H269.88L269.765 0.622621L270.017 1ZM135.765 157.022L135.356 156.826L135.351 156.838L135.346 156.85L135.765 157.022ZM110.366 218.706L109.947 218.533L109.928 218.579L109.919 218.628L110.366 218.706ZM52.3112 552.521L52.7569 552.606L52.7581 552.599L52.3112 552.521ZM12.3985 762.97L11.9529 762.886L11.9449 762.927V762.97H12.3985ZM12.3985 784.741L12.8511 784.77L12.852 784.756V784.741H12.3985ZM0.99985 958L0.547275 957.97L0.515477 958.454H0.99985V958ZM777.997 958V958.454H778.451V958H777.997ZM777.997 762.97H778.451V762.933L778.444 762.896L777.997 762.97ZM687.286 218.706L687.734 218.631L687.721 218.552L687.681 218.483L687.286 218.706ZM607.461 77.197L607.856 76.9742L607.815 76.9026L607.753 76.8497L607.461 77.197ZM516.75 1L517.042 0.652712L516.915 0.546446H516.75V1ZM183.186 59.4322L270.269 1.37738L269.765 0.622621L182.683 58.6775L183.186 59.4322ZM136.174 157.219L183.343 59.2516L182.526 58.8581L135.356 156.826L136.174 157.219ZM110.785 218.878L136.184 157.195L135.346 156.85L109.947 218.533L110.785 218.878ZM52.7581 552.599L110.813 218.783L109.919 218.628L51.8644 552.443L52.7581 552.599ZM12.8441 763.055L52.7568 552.606L51.8656 552.437L11.9529 762.886L12.8441 763.055ZM12.852 784.741V762.97H11.9449V784.741H12.852ZM1.45243 958.03L12.8511 784.77L11.9459 784.711L0.547275 957.97L1.45243 958.03ZM0.99985 958.454H777.997V957.546H0.99985V958.454ZM777.543 762.97V958H778.451V762.97H777.543ZM686.839 218.78L777.55 763.045L778.444 762.896L687.734 218.631L686.839 218.78ZM607.066 77.4198L686.891 218.929L687.681 218.483L607.856 76.9742L607.066 77.4198ZM516.458 1.34729L607.169 77.5443L607.753 76.8497L517.042 0.652712L516.458 1.34729ZM270.017 1.45355H516.75V0.546446H270.017V1.45355Z" fill="black"/>
</svg>
