<svg width="1021" height="511" viewBox="0 0 1021 511" fill="none" xmlns="http://www.w3.org/2000/svg">
<g clip-path="url(#clip0_2797_4967)">
<path d="M964.459 123.806L1002.16 180.349L1002.16 340.553L952.676 399.451L860.767 451.282L507.272 510.181H314.029L57.1553 371.18L57.1553 149.721L314.029 1.29687L493.132 13.0766L507.272 13.0766L643.957 38.992L860.767 76.6872L900.83 93.1788L964.459 123.806Z" stroke="#F0F0F0" stroke-width="2"/>
<path d="M1020.35 183.101V168.816H1008.66V183.101H1020.35Z" stroke="#F0F0F0" stroke-width="2"/>
<path d="M1020.35 198.687V184.402H1008.66V198.687H1020.35Z" stroke="#F0F0F0" stroke-width="2"/>
<path d="M1020.35 214.269V199.984H1008.66V214.269H1020.35Z" stroke="#F0F0F0" stroke-width="2"/>
<path d="M1020.35 229.851V215.566H1008.66V229.851H1020.35Z" stroke="#F0F0F0" stroke-width="2"/>
<path d="M1020.35 245.437V231.152H1008.66V245.437H1020.35Z" stroke="#F0F0F0" stroke-width="2"/>
<path d="M1020.35 261.019V246.734H1008.66V261.019H1020.35Z" stroke="#F0F0F0" stroke-width="2"/>
<path d="M1020.35 276.601V262.316H1008.66V276.601H1020.35Z" stroke="#F0F0F0" stroke-width="2"/>
<path d="M1020.35 292.187V277.902H1008.66V292.187H1020.35Z" stroke="#F0F0F0" stroke-width="2"/>
<path d="M1020.35 307.769V293.484H1008.66V307.769H1020.35Z" stroke="#F0F0F0" stroke-width="2"/>
<path d="M1020.35 323.351V309.066H1008.66V323.351H1020.35Z" stroke="#F0F0F0" stroke-width="2"/>
<path d="M1020.35 338.937V324.652H1008.66V338.937H1020.35Z" stroke="#F0F0F0" stroke-width="2"/>
<path d="M1007.36 331.143V176.609H996.969V331.143H1007.36Z" stroke="#F0F0F0" stroke-width="2"/>
<mask id="mask0_2797_4967" style="mask-type:luminance" maskUnits="userSpaceOnUse" x="982" y="207" width="15" height="19">
<path fill-rule="evenodd" clip-rule="evenodd" d="M996.319 225.959V207.129H987.876V213.622H982.68V218.816H987.876V225.959H996.319Z" fill="#F0F0F0"/>
</mask>
<g mask="url(#mask0_2797_4967)">
<path d="M996.319 207.131H997.618V205.832H996.319V207.131ZM996.319 225.96V227.259H997.618V225.96H996.319ZM987.876 207.131V205.832H986.577V207.131H987.876ZM987.876 213.624V214.922H989.175V213.624H987.876ZM982.68 213.624V212.325H981.381V213.624H982.68ZM982.68 218.818H981.381V220.117H982.68V218.818ZM987.876 218.818H989.175V217.519H987.876V218.818ZM987.876 225.96H986.577V227.259H987.876V225.96ZM995.02 207.131V225.96H997.618V207.131H995.02ZM987.876 208.429H996.319V205.832H987.876V208.429ZM989.175 213.624V207.131H986.577V213.624H989.175ZM982.68 214.922H987.876V212.325H982.68V214.922ZM983.979 218.818V213.624H981.381V218.818H983.979ZM987.876 217.519H982.68V220.117H987.876V217.519ZM989.175 225.96V218.818H986.577V225.96H989.175ZM996.319 224.662H987.876V227.259H996.319V224.662Z" fill="#F0F0F0"/>
</g>
<mask id="mask1_2797_4967" style="mask-type:luminance" maskUnits="userSpaceOnUse" x="982" y="233" width="15" height="19">
<path fill-rule="evenodd" clip-rule="evenodd" d="M996.319 251.927V233.098H987.876V239.591H982.68V244.785H987.876V251.927H996.319Z" fill="#F0F0F0"/>
</mask>
<g mask="url(#mask1_2797_4967)">
<path d="M996.319 233.099H997.618V231.801H996.319V233.099ZM996.319 251.929V253.228H997.618V251.929H996.319ZM987.876 233.099V231.801H986.577V233.099H987.876ZM987.876 239.592V240.891H989.175V239.592H987.876ZM982.68 239.592V238.294H981.381V239.592H982.68ZM982.68 244.787H981.381V246.085H982.68V244.787ZM987.876 244.787H989.175V243.488H987.876V244.787ZM987.876 251.929H986.577V253.228H987.876V251.929ZM995.02 233.099V251.929H997.618V233.099H995.02ZM987.876 234.398H996.319V231.801H987.876V234.398ZM989.175 239.592V233.099H986.577V239.592H989.175ZM982.68 240.891H987.876V238.294H982.68V240.891ZM983.979 244.787V239.592H981.381V244.787H983.979ZM987.876 243.488H982.68V246.085H987.876V243.488ZM989.175 251.929V244.787H986.577V251.929H989.175ZM996.319 250.631H987.876V253.228H996.319V250.631Z" fill="#F0F0F0"/>
</g>
<mask id="mask2_2797_4967" style="mask-type:luminance" maskUnits="userSpaceOnUse" x="982" y="258" width="15" height="20">
<path fill-rule="evenodd" clip-rule="evenodd" d="M996.319 277.252V258.422H987.876V264.915H982.68V270.109H987.876V277.252H996.319Z" fill="#F0F0F0"/>
</mask>
<g mask="url(#mask2_2797_4967)">
<path d="M996.319 258.424H997.618V257.125H996.319V258.424ZM996.319 277.253V278.552H997.618V277.253H996.319ZM987.876 258.424V257.125H986.577V258.424H987.876ZM987.876 264.917V266.215H989.175V264.917H987.876ZM982.68 264.917V263.618H981.381V264.917H982.68ZM982.68 270.111H981.381V271.41H982.68V270.111ZM987.876 270.111H989.175V268.812H987.876V270.111ZM987.876 277.253H986.577V278.552H987.876V277.253ZM995.02 258.424V277.253H997.618V258.424H995.02ZM987.876 259.722H996.319V257.125H987.876V259.722ZM989.175 264.917V258.424H986.577V264.917H989.175ZM982.68 266.215H987.876V263.618H982.68V266.215ZM983.979 270.111V264.917H981.381V270.111H983.979ZM987.876 268.812H982.68V271.41H987.876V268.812ZM989.175 277.253V270.111H986.577V277.253H989.175ZM996.319 275.955H987.876V278.552H996.319V275.955Z" fill="#F0F0F0"/>
</g>
<mask id="mask3_2797_4967" style="mask-type:luminance" maskUnits="userSpaceOnUse" x="982" y="283" width="15" height="20">
<path fill-rule="evenodd" clip-rule="evenodd" d="M996.319 302.576V283.746H987.876V290.239H982.68V295.434H987.876V302.576H996.319Z" fill="#F0F0F0"/>
</mask>
<g mask="url(#mask3_2797_4967)">
<path d="M996.319 283.748H997.618V282.449H996.319V283.748ZM996.319 302.578V303.876H997.618V302.578H996.319ZM987.876 283.748V282.449H986.577V283.748H987.876ZM987.876 290.241V291.539H989.175V290.241H987.876ZM982.68 290.241V288.942H981.381V290.241H982.68ZM982.68 295.435H981.381V296.734H982.68V295.435ZM987.876 295.435H989.175V294.137H987.876V295.435ZM987.876 302.578H986.577V303.876H987.876V302.578ZM995.02 283.748V302.578H997.618V283.748H995.02ZM987.876 285.046H996.319V282.449H987.876V285.046ZM989.175 290.241V283.748H986.577V290.241H989.175ZM982.68 291.539H987.876V288.942H982.68V291.539ZM983.979 295.435V290.241H981.381V295.435H983.979ZM987.876 294.137H982.68V296.734H987.876V294.137ZM989.175 302.578V295.435H986.577V302.578H989.175ZM996.319 301.279H987.876V303.876H996.319V301.279Z" fill="#F0F0F0"/>
</g>
<mask id="mask4_2797_4967" style="mask-type:luminance" maskUnits="userSpaceOnUse" x="982" y="309" width="15" height="20">
<path fill-rule="evenodd" clip-rule="evenodd" d="M996.319 328.545V309.715H987.876V316.208H982.68V321.402H987.876V328.545H996.319Z" fill="#F0F0F0"/>
</mask>
<g mask="url(#mask4_2797_4967)">
<path d="M996.319 309.717H997.618V308.418H996.319V309.717ZM996.319 328.546V329.845H997.618V328.546H996.319ZM987.876 309.717V308.418H986.577V309.717H987.876ZM987.876 316.21V317.508H989.175V316.21H987.876ZM982.68 316.21V314.911H981.381V316.21H982.68ZM982.68 321.404H981.381V322.703H982.68V321.404ZM987.876 321.404H989.175V320.105H987.876V321.404ZM987.876 328.546H986.577V329.845H987.876V328.546ZM995.02 309.717V328.546H997.618V309.717H995.02ZM987.876 311.015H996.319V308.418H987.876V311.015ZM989.175 316.21V309.717H986.577V316.21H989.175ZM982.68 317.508H987.876V314.911H982.68V317.508ZM983.979 321.404V316.21H981.381V321.404H983.979ZM987.876 320.105H982.68V322.703H987.876V320.105ZM989.175 328.546V321.404H986.577V328.546H989.175ZM996.319 327.248H987.876V329.845H996.319V327.248Z" fill="#F0F0F0"/>
</g>
<mask id="mask5_2797_4967" style="mask-type:luminance" maskUnits="userSpaceOnUse" x="982" y="183" width="15" height="20">
<path fill-rule="evenodd" clip-rule="evenodd" d="M996.319 202.584V183.754H987.876V190.247H982.68V195.441H987.876V202.584H996.319Z" fill="#F0F0F0"/>
</mask>
<g mask="url(#mask5_2797_4967)">
<path d="M996.319 183.756H997.618V182.457H996.319V183.756ZM996.319 202.585V203.884H997.618V202.585H996.319ZM987.876 183.756V182.457H986.577V183.756H987.876ZM987.876 190.249V191.547H989.175V190.249H987.876ZM982.68 190.249V188.95H981.381V190.249H982.68ZM982.68 195.443H981.381V196.742H982.68V195.443ZM987.876 195.443H989.175V194.144H987.876V195.443ZM987.876 202.585H986.577V203.884H987.876V202.585ZM995.02 183.756V202.585H997.618V183.756H995.02ZM987.876 185.054H996.319V182.457H987.876V185.054ZM989.175 190.249V183.756H986.577V190.249H989.175ZM982.68 191.547H987.876V188.95H982.68V191.547ZM983.979 195.443V190.249H981.381V195.443H983.979ZM987.876 194.144H982.68V196.742H987.876V194.144ZM989.175 202.585V195.443H986.577V202.585H989.175ZM996.319 201.287H987.876V203.884H996.319V201.287Z" fill="#F0F0F0"/>
</g>
<path d="M289.348 32.4648V81.1624" stroke="#F0F0F0"/>
<path d="M297.792 73.6947V41.8789H286.101V73.6947H297.792Z" stroke="#F0F0F0"/>
<path d="M289.348 448.668V490.873" stroke="#F0F0F0"/>
<path d="M297.792 484.358V456.871H286.101V484.358H297.792Z" stroke="#F0F0F0"/>
<path d="M291.622 283.743V250.629H287.075V283.743H291.622Z" fill="#F0F0F0"/>
<mask id="mask6_2797_4967" style="mask-type:luminance" maskUnits="userSpaceOnUse" x="175" y="95" width="46" height="38">
<path fill-rule="evenodd" clip-rule="evenodd" d="M220.827 95.4453L175.363 95.4453V109.449L190.697 109.449V132.455H206.038V109.449H220.827V95.4453Z" fill="#F0F0F0"/>
</mask>
<g mask="url(#mask6_2797_4967)">
<path d="M175.363 95.447V94.1484H174.064V95.447H175.363ZM220.827 95.447H222.126V94.1484H220.827V95.447ZM175.363 109.451H174.064V110.75H175.363V109.451ZM190.697 109.451H191.996V108.153H190.697V109.451ZM190.697 132.457H189.398V133.756H190.697V132.457ZM206.038 132.457V133.756H207.337V132.457H206.038ZM206.038 109.451V108.153H204.739V109.451H206.038ZM220.827 109.451V110.75H222.126V109.451H220.827ZM175.363 96.7456L220.827 96.7456V94.1484L175.363 94.1484V96.7456ZM176.662 109.451V95.447H174.064V109.451H176.662ZM190.697 108.153L175.363 108.153V110.75H190.697V108.153ZM191.996 132.457V109.451H189.398V132.457H191.996ZM206.038 131.159H190.697V133.756H206.038V131.159ZM204.739 109.451V132.457H207.337V109.451H204.739ZM220.827 108.153H206.038V110.75H220.827V108.153ZM219.528 95.447V109.451H222.126V95.447H219.528Z" fill="#F0F0F0"/>
</g>
<mask id="mask7_2797_4967" style="mask-type:luminance" maskUnits="userSpaceOnUse" x="175" y="381" width="46" height="38">
<path fill-rule="evenodd" clip-rule="evenodd" d="M175.363 418.799H220.827V404.795H205.492V381.789H190.151V404.795H175.363V418.799Z" fill="#F0F0F0"/>
</mask>
<g mask="url(#mask7_2797_4967)">
<path d="M220.827 418.801V420.1H222.126V418.801H220.827ZM175.363 418.801H174.064V420.1H175.363V418.801ZM220.827 404.797H222.126V403.498H220.827V404.797ZM205.493 404.797H204.194V406.095H205.493V404.797ZM205.493 381.791H206.792V380.492H205.493V381.791ZM190.152 381.791V380.492H188.853V381.791H190.152ZM190.152 404.797V406.095H191.451V404.797H190.152ZM175.363 404.797V403.498H174.064V404.797H175.363ZM220.827 417.502H175.363V420.1H220.827V417.502ZM219.528 404.797V418.801H222.126V404.797H219.528ZM205.493 406.095H220.827V403.498H205.493V406.095ZM204.194 381.791V404.797H206.792V381.791H204.194ZM190.152 383.089H205.493V380.492H190.152V383.089ZM191.451 404.797V381.791H188.853V404.797H191.451ZM175.363 406.095H190.152V403.498H175.363V406.095ZM176.662 418.801V404.797H174.064V418.801H176.662Z" fill="#F0F0F0"/>
</g>
<path d="M222.775 14.9336L264.343 31.8154V78.5651L222.775 86.3567V14.9336Z" stroke="#F0F0F0" stroke-width="2"/>
<path d="M122.754 25.3211L171.466 18.8281V90.2513L122.754 83.7582L122.754 25.3211Z" stroke="#F0F0F0" stroke-width="2"/>
<path d="M83.7843 28.5703L122.104 28.5703L122.104 77.2679H83.7843V28.5703Z" stroke="#F0F0F0" stroke-width="2"/>
<path d="M222.126 23.3745V9.08984L172.765 9.08984V23.3745L222.126 23.3745Z" stroke="#F0F0F0" stroke-width="2"/>
<path d="M222.126 38.9565V24.6719L172.765 24.6719V38.9565L222.126 38.9565Z" stroke="#F0F0F0" stroke-width="2"/>
<path d="M222.126 54.5424V40.2578L172.765 40.2578V54.5424L222.126 54.5424Z" stroke="#F0F0F0" stroke-width="2"/>
<path d="M222.126 70.1245V55.8398L172.765 55.8398V70.1245L222.126 70.1245Z" stroke="#F0F0F0" stroke-width="2"/>
<path d="M222.126 80.5121V71.4219L172.765 71.4219V80.5121L222.126 80.5121Z" stroke="#F0F0F0" stroke-width="2"/>
<path d="M222.126 94.7985V81.8125L172.765 81.8125V94.7985L222.126 94.7985Z" stroke="#F0F0F0" stroke-width="2"/>
<path d="M222.775 427.238L264.343 444.12V490.87L222.775 498.661V427.238Z" stroke="#F0F0F0" stroke-width="2"/>
<path d="M122.754 437.63L171.466 431.137V502.56L122.754 496.067L122.754 437.63Z" stroke="#F0F0F0" stroke-width="2"/>
<path d="M83.7843 440.875H122.104L122.104 489.573H83.7843V440.875Z" stroke="#F0F0F0" stroke-width="2"/>
<path d="M222.451 436.004V421.07H172.44V436.004H222.451Z" stroke="#F0F0F0"/>
<path d="M222.451 451.59V436.656H172.44V451.59H222.451Z" stroke="#F0F0F0"/>
<path d="M222.451 467.172V452.238H172.44V467.172H222.451Z" stroke="#F0F0F0"/>
<path d="M222.451 482.754V467.82H172.44V482.754H222.451Z" stroke="#F0F0F0"/>
<path d="M222.451 493.146V483.406H172.44V493.146H222.451Z" stroke="#F0F0F0"/>
<path d="M222.451 507.428V493.793H172.44V507.428H222.451Z" stroke="#F0F0F0"/>
<path d="M213.02 330.493L213.02 189.953H219.768L219.768 330.493H213.02Z" stroke="#F0F0F0"/>
<path d="M219.768 188.945C239.194 214.02 266.382 277.333 219.768 329.989L219.768 188.945Z" stroke="#F0F0F0"/>
<path d="M212.695 324.126L212.695 197.836H206.594L206.594 324.126H212.695Z" stroke="#F0F0F0"/>
<path d="M205.941 330.168L205.941 189.27H160.177L160.177 330.168H205.941Z" stroke="#F0F0F0"/>
<path d="M187.066 252.595C183.65 252.595 180.526 250.59 178.233 247.276C175.947 243.965 174.525 239.371 174.525 234.282C174.525 229.192 175.947 224.599 178.233 221.287C180.526 217.974 183.65 215.969 187.066 215.969C190.483 215.969 193.613 217.974 195.899 221.287C198.186 224.599 199.615 229.192 199.615 234.282C199.615 239.371 198.186 243.965 195.899 247.276C193.613 250.59 190.483 252.595 187.066 252.595Z" stroke="#F0F0F0"/>
<path d="M187.066 302.466C183.65 302.466 180.526 300.461 178.233 297.148C175.947 293.836 174.525 289.243 174.525 284.153C174.525 279.064 175.947 274.47 178.233 271.158C180.526 267.845 183.65 265.84 187.066 265.84C190.483 265.84 193.613 267.845 195.899 271.158C198.186 274.47 199.615 279.064 199.615 284.153C199.615 289.243 198.186 293.836 195.899 297.148C193.613 300.461 190.483 302.466 187.066 302.466Z" stroke="#F0F0F0"/>
<path d="M167.121 229.926V222.012H160.175V229.926H167.121Z" stroke="#F0F0F0"/>
<path d="M167.121 264.18V256.266H160.175V264.18H167.121Z" stroke="#F0F0F0"/>
<path d="M167.121 298.434V290.52H160.175V298.434H167.121Z" stroke="#F0F0F0"/>
<mask id="mask8_2797_4967" style="mask-type:luminance" maskUnits="userSpaceOnUse" x="71" y="197" width="89" height="130">
<path fill-rule="evenodd" clip-rule="evenodd" d="M159.853 197.508L159.853 326.462H137.913V311.854H128.21V326.462H120.611V311.854H110.907V326.462H103.315V311.854H93.6112L93.6112 326.462H71.6714L71.6714 197.508L93.6112 197.508V207.079H103.315V197.508H110.907V206.575H120.611V197.508H128.21V207.079H137.913V197.508H159.853Z" fill="#F0F0F0"/>
</mask>
<g mask="url(#mask8_2797_4967)">
<path d="M159.853 326.463V327.112H160.502V326.463H159.853ZM159.853 197.509H160.502V196.859H159.853V197.509ZM137.913 326.463H137.263V327.112H137.913V326.463ZM137.913 311.855H138.562V311.206H137.913V311.855ZM128.21 311.855V311.206H127.56V311.855H128.21ZM128.21 326.463V327.112H128.859V326.463H128.21ZM120.61 326.463H119.961V327.112H120.61V326.463ZM120.61 311.855H121.26V311.206H120.61V311.855ZM110.907 311.855V311.206H110.258V311.855H110.907ZM110.907 326.463V327.112H111.557V326.463H110.907ZM103.314 326.463H102.665V327.112H103.314V326.463ZM103.314 311.855H103.964V311.206H103.314V311.855ZM93.6111 311.855V311.206H92.9616V311.855H93.6111ZM93.6111 326.463V327.112H94.2606V326.463H93.6111ZM71.6713 326.463H71.0218V327.112H71.6713V326.463ZM71.6713 197.509V196.859H71.0218V197.509H71.6713ZM93.6111 197.509H94.2606V196.859H93.6111V197.509ZM93.6111 207.08H92.9616V207.729H93.6111V207.08ZM103.314 207.08V207.729H103.964V207.08H103.314ZM103.314 197.509V196.859H102.665V197.509H103.314ZM110.907 197.509H111.557V196.859H110.907V197.509ZM110.907 206.576H110.258V207.225H110.907V206.576ZM120.61 206.576V207.225H121.26V206.576H120.61ZM120.61 197.509V196.859H119.961V197.509H120.61ZM128.21 197.509H128.859V196.859H128.21V197.509ZM128.21 207.08H127.56V207.729H128.21V207.08ZM137.913 207.08V207.729H138.562V207.08H137.913ZM137.913 197.509V196.859H137.263V197.509H137.913ZM160.502 326.463L160.502 197.509H159.203L159.203 326.463H160.502ZM137.913 327.112H159.853V325.814H137.913V327.112ZM137.263 311.855V326.463H138.562V311.855H137.263ZM128.21 312.504H137.913V311.206H128.21V312.504ZM128.859 326.463V311.855H127.56V326.463H128.859ZM120.61 327.112H128.21V325.814H120.61V327.112ZM119.961 311.855V326.463H121.26V311.855H119.961ZM110.907 312.504H120.61V311.206H110.907V312.504ZM111.557 326.463V311.855H110.258V326.463H111.557ZM103.314 327.112H110.907V325.814H103.314V327.112ZM102.665 311.855V326.463H103.964V311.855H102.665ZM93.6111 312.504H103.314V311.206H93.6111V312.504ZM94.2606 326.463L94.2606 311.855H92.9616L92.9616 326.463H94.2606ZM71.6713 327.112H93.6111V325.814H71.6713V327.112ZM71.0218 197.509L71.0218 326.463H72.3208L72.3208 197.509H71.0218ZM93.6111 196.859L71.6713 196.859V198.158L93.6111 198.158V196.859ZM94.2606 207.08V197.509H92.9616V207.08H94.2606ZM103.314 206.431H93.6111V207.729H103.314V206.431ZM102.665 197.509V207.08H103.964V197.509H102.665ZM110.907 196.859H103.314V198.158H110.907V196.859ZM111.557 206.576V197.509H110.258V206.576H111.557ZM120.61 205.927H110.907V207.225H120.61V205.927ZM119.961 197.509V206.576H121.26V197.509H119.961ZM128.21 196.859H120.61V198.158H128.21V196.859ZM128.859 207.08V197.509H127.56V207.08H128.859ZM137.913 206.431H128.21V207.729H137.913V206.431ZM137.263 197.509V207.08H138.562V197.509H137.263ZM159.853 196.859H137.913V198.158H159.853V196.859Z" fill="#F0F0F0"/>
</g>
<path d="M50.0107 156.48L70.7944 179.855L70.7944 343.479L50.0107 364.257H0.649398L0.649398 156.48H50.0107Z" stroke="#F0F0F0"/>
</g>
<defs>
<clipPath id="clip0_2797_4967">
<rect width="511" height="1021" fill="white" transform="matrix(0 1 -1 0 1021 0)"/>
</clipPath>
</defs>
</svg>
