<svg width="787" height="1572" viewBox="0 0 787 1572" fill="none" xmlns="http://www.w3.org/2000/svg">
<path d="M190.678 87.0549L277.761 29H524.494L615.204 105.197L695.03 246.706L785.741 790.97V1088.5L571.663 1484H230.591L2 1088.5L20.1421 812.741V790.97L60.0549 580.521L118.11 246.706L143.509 185.022L190.678 87.0549Z" stroke="#F0F0F0" stroke-width="2"/>
<rect x="260" y="1" width="22" height="18" stroke="#F0F0F0" stroke-width="2"/>
<rect x="284" y="1" width="22" height="18" stroke="#F0F0F0" stroke-width="2"/>
<rect x="308" y="1" width="22" height="18" stroke="#F0F0F0" stroke-width="2"/>
<rect x="332" y="1" width="22" height="18" stroke="#F0F0F0" stroke-width="2"/>
<rect x="356" y="1" width="22" height="18" stroke="#F0F0F0" stroke-width="2"/>
<rect x="380" y="1" width="22" height="18" stroke="#F0F0F0" stroke-width="2"/>
<rect x="404" y="1" width="22" height="18" stroke="#F0F0F0" stroke-width="2"/>
<rect x="428" y="1" width="22" height="18" stroke="#F0F0F0" stroke-width="2"/>
<rect x="452" y="1" width="22" height="18" stroke="#F0F0F0" stroke-width="2"/>
<rect x="476" y="1" width="22" height="18" stroke="#F0F0F0" stroke-width="2"/>
<rect x="500" y="1" width="22" height="18" stroke="#F0F0F0" stroke-width="2"/>
<rect x="272" y="21" width="238" height="16" stroke="#F0F0F0" stroke-width="2"/>
<mask id="path-14-inside-1_2713_6490" fill="white">
<path fill-rule="evenodd" clip-rule="evenodd" d="M348 38H319V51H329V59H337V51H348V38Z"/>
</mask>
<path d="M319 38V36H317V38H319ZM348 38H350V36H348V38ZM319 51H317V53H319V51ZM329 51H331V49H329V51ZM329 59H327V61H329V59ZM337 59V61H339V59H337ZM337 51V49H335V51H337ZM348 51V53H350V51H348ZM319 40H348V36H319V40ZM321 51V38H317V51H321ZM329 49H319V53H329V49ZM331 59V51H327V59H331ZM337 57H329V61H337V57ZM335 51V59H339V51H335ZM348 49H337V53H348V49ZM346 38V51H350V38H346Z" fill="#F0F0F0" mask="url(#path-14-inside-1_2713_6490)"/>
<mask id="path-16-inside-2_2713_6490" fill="white">
<path fill-rule="evenodd" clip-rule="evenodd" d="M388 38H359V51H369V59H377V51H388V38Z"/>
</mask>
<path d="M359 38V36H357V38H359ZM388 38H390V36H388V38ZM359 51H357V53H359V51ZM369 51H371V49H369V51ZM369 59H367V61H369V59ZM377 59V61H379V59H377ZM377 51V49H375V51H377ZM388 51V53H390V51H388ZM359 40H388V36H359V40ZM361 51V38H357V51H361ZM369 49H359V53H369V49ZM371 59V51H367V59H371ZM377 57H369V61H377V57ZM375 51V59H379V51H375ZM388 49H377V53H388V49ZM386 38V51H390V38H386Z" fill="#F0F0F0" mask="url(#path-16-inside-2_2713_6490)"/>
<mask id="path-18-inside-3_2713_6490" fill="white">
<path fill-rule="evenodd" clip-rule="evenodd" d="M427 38H398V51H408V59H416V51H427V38Z"/>
</mask>
<path d="M398 38V36H396V38H398ZM427 38H429V36H427V38ZM398 51H396V53H398V51ZM408 51H410V49H408V51ZM408 59H406V61H408V59ZM416 59V61H418V59H416ZM416 51V49H414V51H416ZM427 51V53H429V51H427ZM398 40H427V36H398V40ZM400 51V38H396V51H400ZM408 49H398V53H408V49ZM410 59V51H406V59H410ZM416 57H408V61H416V57ZM414 51V59H418V51H414ZM427 49H416V53H427V49ZM425 38V51H429V38H425Z" fill="#F0F0F0" mask="url(#path-18-inside-3_2713_6490)"/>
<mask id="path-20-inside-4_2713_6490" fill="white">
<path fill-rule="evenodd" clip-rule="evenodd" d="M466 38H437V51H447V59H455V51H466V38Z"/>
</mask>
<path d="M437 38V36H435V38H437ZM466 38H468V36H466V38ZM437 51H435V53H437V51ZM447 51H449V49H447V51ZM447 59H445V61H447V59ZM455 59V61H457V59H455ZM455 51V49H453V51H455ZM466 51V53H468V51H466ZM437 40H466V36H437V40ZM439 51V38H435V51H439ZM447 49H437V53H447V49ZM449 59V51H445V59H449ZM455 57H447V61H455V57ZM453 51V59H457V51H453ZM466 49H455V53H466V49ZM464 38V51H468V38H464Z" fill="#F0F0F0" mask="url(#path-20-inside-4_2713_6490)"/>
<mask id="path-22-inside-5_2713_6490" fill="white">
<path fill-rule="evenodd" clip-rule="evenodd" d="M506 38H477V51H487V59H495V51H506V38Z"/>
</mask>
<path d="M477 38V36H475V38H477ZM506 38H508V36H506V38ZM477 51H475V53H477V51ZM487 51H489V49H487V51ZM487 59H485V61H487V59ZM495 59V61H497V59H495ZM495 51V49H493V51H495ZM506 51V53H508V51H506ZM477 40H506V36H477V40ZM479 51V38H475V51H479ZM487 49H477V53H487V49ZM489 59V51H485V59H489ZM495 57H487V61H495V57ZM493 51V59H497V51H493ZM506 49H495V53H506V49ZM504 38V51H508V38H504Z" fill="#F0F0F0" mask="url(#path-22-inside-5_2713_6490)"/>
<mask id="path-24-inside-6_2713_6490" fill="white">
<path fill-rule="evenodd" clip-rule="evenodd" d="M312 38H283V51H293V59H301V51H312V38Z"/>
</mask>
<path d="M283 38V36H281V38H283ZM312 38H314V36H312V38ZM283 51H281V53H283V51ZM293 51H295V49H293V51ZM293 59H291V61H293V59ZM301 59V61H303V59H301ZM301 51V49H299V51H301ZM312 51V53H314V51H312ZM283 40H312V36H283V40ZM285 51V38H281V51H285ZM293 49H283V53H293V49ZM295 59V51H291V59H295ZM301 57H293V61H301V57ZM299 51V59H303V51H299ZM312 49H301V53H312V49ZM310 38V51H314V38H310Z" fill="#F0F0F0" mask="url(#path-24-inside-6_2713_6490)"/>
<line x1="50" y1="1126.5" x2="125" y2="1126.5" stroke="#F0F0F0"/>
<rect x="64.5" y="1113.5" width="49" height="18" stroke="#F0F0F0"/>
<line x1="691" y1="1126.5" x2="756" y2="1126.5" stroke="#F0F0F0"/>
<rect x="703.633" y="1113.5" width="42.3333" height="18" stroke="#F0F0F0"/>
<rect x="386" y="1123" width="51" height="7" fill="#F0F0F0"/>
<mask id="path-31-inside-7_2713_6490" fill="white">
<path fill-rule="evenodd" clip-rule="evenodd" d="M147 1232V1302H168.568V1278.39L204 1278.39V1254.77H168.568V1232H147Z"/>
</mask>
<path d="M147 1302H145V1304H147V1302ZM147 1232V1230H145V1232H147ZM168.568 1302V1304H170.568V1302H168.568ZM168.568 1278.39L168.568 1276.39L166.568 1276.39V1278.39H168.568ZM204 1278.39L204 1280.39L206 1280.39V1278.39H204ZM204 1254.77H206V1252.77H204V1254.77ZM168.568 1254.77H166.568V1256.77H168.568V1254.77ZM168.568 1232H170.568V1230H168.568V1232ZM149 1302V1232H145V1302H149ZM168.568 1300H147V1304H168.568V1300ZM166.568 1278.39V1302H170.568V1278.39H166.568ZM204 1276.39L168.568 1276.39L168.568 1280.39L204 1280.39L204 1276.39ZM202 1254.77V1278.39H206V1254.77H202ZM168.568 1256.77H204V1252.77H168.568V1256.77ZM166.568 1232V1254.77H170.568V1232H166.568ZM147 1234H168.568V1230H147V1234Z" fill="#F0F0F0" mask="url(#path-31-inside-7_2713_6490)"/>
<mask id="path-33-inside-8_2713_6490" fill="white">
<path fill-rule="evenodd" clip-rule="evenodd" d="M645 1302V1232H623.432V1255.61L588 1255.61V1279.23H623.432V1302H645Z"/>
</mask>
<path d="M645 1232H647V1230H645V1232ZM645 1302V1304H647V1302H645ZM623.432 1232V1230H621.432V1232H623.432ZM623.432 1255.61L623.432 1257.61L625.432 1257.61V1255.61H623.432ZM588 1255.61L588 1253.61L586 1253.61V1255.61H588ZM588 1279.23H586V1281.23H588V1279.23ZM623.432 1279.23H625.432V1277.23H623.432V1279.23ZM623.432 1302H621.432V1304H623.432V1302ZM643 1232V1302H647V1232H643ZM623.432 1234H645V1230H623.432V1234ZM625.432 1255.61V1232H621.432V1255.61H625.432ZM588 1257.61L623.432 1257.61L623.432 1253.61L588 1253.61L588 1257.61ZM590 1279.23V1255.61H586V1279.23H590ZM623.432 1277.23H588V1281.23H623.432V1277.23ZM625.432 1302V1279.23H621.432V1302H625.432ZM645 1300H623.432V1304H645V1300Z" fill="#F0F0F0" mask="url(#path-33-inside-8_2713_6490)"/>
<path d="M23 1229L49 1165H121L133 1229H23Z" stroke="#F0F0F0" stroke-width="2"/>
<path d="M39 1383L29 1308H139L129 1383H39Z" stroke="#F0F0F0" stroke-width="2"/>
<path d="M44 1443V1384H119V1443H44Z" stroke="#F0F0F0" stroke-width="2"/>
<rect x="14" y="1230" width="22" height="76" stroke="#F0F0F0" stroke-width="2"/>
<rect x="38" y="1230" width="22" height="76" stroke="#F0F0F0" stroke-width="2"/>
<rect x="62" y="1230" width="22" height="76" stroke="#F0F0F0" stroke-width="2"/>
<rect x="86" y="1230" width="22" height="76" stroke="#F0F0F0" stroke-width="2"/>
<rect x="110" y="1230" width="14" height="76" stroke="#F0F0F0" stroke-width="2"/>
<rect x="126" y="1230" width="20" height="76" stroke="#F0F0F0" stroke-width="2"/>
<path d="M658 1229L684 1165H756L768 1229H658Z" stroke="#F0F0F0" stroke-width="2"/>
<path d="M674 1383L664 1308H774L764 1383H674Z" stroke="#F0F0F0" stroke-width="2"/>
<path d="M679 1443V1384H754V1443H679Z" stroke="#F0F0F0" stroke-width="2"/>
<rect x="648.5" y="1229.5" width="23" height="77" stroke="#F0F0F0"/>
<rect x="672.5" y="1229.5" width="23" height="77" stroke="#F0F0F0"/>
<rect x="696.5" y="1229.5" width="23" height="77" stroke="#F0F0F0"/>
<rect x="720.5" y="1229.5" width="23" height="77" stroke="#F0F0F0"/>
<rect x="744.5" y="1229.5" width="15" height="77" stroke="#F0F0F0"/>
<rect x="760.5" y="1229.5" width="21" height="77" stroke="#F0F0F0"/>
<path d="M509 1244.02H292.552V1233.63H509V1244.02Z" stroke="#F0F0F0"/>
<path d="M291 1233.63C329.618 1203.72 427.127 1161.86 508.224 1233.63H291Z" stroke="#F0F0F0"/>
<rect x="304.688" y="1244.52" width="194.502" height="9.39422" stroke="#F0F0F0"/>
<rect x="291.5" y="1254.92" width="217" height="70.4603" stroke="#F0F0F0"/>
<path d="M389.027 1283.98C389.027 1289.24 385.939 1294.05 380.835 1297.58C375.735 1301.1 368.66 1303.29 360.822 1303.29C352.984 1303.29 345.91 1301.1 340.809 1297.58C335.706 1294.05 332.618 1289.24 332.618 1283.98C332.618 1278.72 335.706 1273.9 340.809 1270.38C345.91 1266.86 352.984 1264.66 360.822 1264.66C368.66 1264.66 375.735 1266.86 380.835 1270.38C385.939 1273.9 389.027 1278.72 389.027 1283.98Z" stroke="#F0F0F0"/>
<path d="M465.831 1283.98C465.831 1289.24 462.743 1294.05 457.64 1297.58C452.539 1301.1 445.465 1303.29 437.627 1303.29C429.788 1303.29 422.714 1301.1 417.613 1297.58C412.51 1294.05 409.422 1289.24 409.422 1283.98C409.422 1278.72 412.51 1273.9 417.613 1270.38C422.714 1266.86 429.788 1264.66 437.627 1264.66C445.465 1264.66 452.539 1266.86 457.64 1270.38C462.743 1273.9 465.831 1278.72 465.831 1283.98Z" stroke="#F0F0F0"/>
<rect x="341.927" y="1314.69" width="12.1886" height="10.6935" stroke="#F0F0F0"/>
<rect x="394.682" y="1314.69" width="12.1886" height="10.6935" stroke="#F0F0F0"/>
<rect x="447.436" y="1314.69" width="12.1886" height="10.6935" stroke="#F0F0F0"/>
<mask id="path-62-inside-9_2713_6490" fill="white">
<path fill-rule="evenodd" clip-rule="evenodd" d="M304.188 1325.88H502.793V1359.66H480.295V1374.6H502.793V1386.3H480.295V1401.24H502.793V1412.93H480.295V1427.87H502.793V1461.65H304.188V1427.87H318.929V1412.93H304.188V1401.24H318.153V1386.3H304.188V1374.6H318.929V1359.66H304.188V1325.88Z"/>
</mask>
<path d="M502.793 1325.88H503.793V1324.88H502.793V1325.88ZM304.188 1325.88V1324.88H303.188V1325.88H304.188ZM502.793 1359.66V1360.66H503.793V1359.66H502.793ZM480.295 1359.66V1358.66H479.295V1359.66H480.295ZM480.295 1374.6H479.295V1375.6H480.295V1374.6ZM502.793 1374.6H503.793V1373.6H502.793V1374.6ZM502.793 1386.3V1387.3H503.793V1386.3H502.793ZM480.295 1386.3V1385.3H479.295V1386.3H480.295ZM480.295 1401.24H479.295V1402.24H480.295V1401.24ZM502.793 1401.24H503.793V1400.24H502.793V1401.24ZM502.793 1412.93V1413.93H503.793V1412.93H502.793ZM480.295 1412.93V1411.93H479.295V1412.93H480.295ZM480.295 1427.87H479.295V1428.87H480.295V1427.87ZM502.793 1427.87H503.793V1426.87H502.793V1427.87ZM502.793 1461.65V1462.65H503.793V1461.65H502.793ZM304.188 1461.65H303.188V1462.65H304.188V1461.65ZM304.188 1427.87V1426.87H303.188V1427.87H304.188ZM318.929 1427.87V1428.87H319.929V1427.87H318.929ZM318.929 1412.93H319.929V1411.93H318.929V1412.93ZM304.188 1412.93H303.188V1413.93H304.188V1412.93ZM304.188 1401.24V1400.24H303.188V1401.24H304.188ZM318.153 1401.24V1402.24H319.153V1401.24H318.153ZM318.153 1386.3H319.153V1385.3H318.153V1386.3ZM304.188 1386.3H303.188V1387.3H304.188V1386.3ZM304.188 1374.6V1373.6H303.188V1374.6H304.188ZM318.929 1374.6V1375.6H319.929V1374.6H318.929ZM318.929 1359.66H319.929V1358.66H318.929V1359.66ZM304.188 1359.66H303.188V1360.66H304.188V1359.66ZM502.793 1324.88H304.188V1326.88H502.793V1324.88ZM503.793 1359.66V1325.88H501.793V1359.66H503.793ZM480.295 1360.66H502.793V1358.66H480.295V1360.66ZM481.295 1374.6V1359.66H479.295V1374.6H481.295ZM502.793 1373.6H480.295V1375.6H502.793V1373.6ZM503.793 1386.3V1374.6H501.793V1386.3H503.793ZM480.295 1387.3H502.793V1385.3H480.295V1387.3ZM481.295 1401.24V1386.3H479.295V1401.24H481.295ZM502.793 1400.24H480.295V1402.24H502.793V1400.24ZM503.793 1412.93V1401.24H501.793V1412.93H503.793ZM480.295 1413.93H502.793V1411.93H480.295V1413.93ZM481.295 1427.87V1412.93H479.295V1427.87H481.295ZM502.793 1426.87H480.295V1428.87H502.793V1426.87ZM503.793 1461.65V1427.87H501.793V1461.65H503.793ZM304.188 1462.65H502.793V1460.65H304.188V1462.65ZM303.188 1427.87V1461.65H305.188V1427.87H303.188ZM318.929 1426.87H304.188V1428.87H318.929V1426.87ZM317.929 1412.93V1427.87H319.929V1412.93H317.929ZM304.188 1413.93H318.929V1411.93H304.188V1413.93ZM303.188 1401.24V1412.93H305.188V1401.24H303.188ZM318.153 1400.24H304.188V1402.24H318.153V1400.24ZM317.153 1386.3V1401.24H319.153V1386.3H317.153ZM304.188 1387.3H318.153V1385.3H304.188V1387.3ZM303.188 1374.6V1386.3H305.188V1374.6H303.188ZM318.929 1373.6H304.188V1375.6H318.929V1373.6ZM317.929 1359.66V1374.6H319.929V1359.66H317.929ZM304.188 1360.66H318.929V1358.66H304.188V1360.66ZM303.188 1325.88V1359.66H305.188V1325.88H303.188Z" fill="#F0F0F0" mask="url(#path-62-inside-9_2713_6490)"/>
<path d="M241 1495L277 1463H529L561 1495V1571H241V1495Z" stroke="#F0F0F0"/>
</svg>
