<svg width="779" height="959" viewBox="0 0 779 959" fill="none" xmlns="http://www.w3.org/2000/svg">
<path fill-rule="evenodd" clip-rule="evenodd" d="M269.761 1L182.678 59.0549L135.509 157.022L110.11 218.706L52.0549 552.521L12.1421 762.97V784.741L0.743503 958H777.741V762.97L687.03 218.706L607.204 77.197L516.494 1H269.761Z" fill="#F0F0F0"/>
<path d="M182.678 59.0549L182.427 58.6775L182.323 58.7463L182.27 58.8581L182.678 59.0549ZM269.761 1V0.546446H269.623L269.509 0.622621L269.761 1ZM135.509 157.022L135.1 156.826L135.094 156.838L135.089 156.85L135.509 157.022ZM110.11 218.706L109.69 218.533L109.671 218.579L109.663 218.628L110.11 218.706ZM52.0549 552.521L52.5005 552.606L52.5017 552.599L52.0549 552.521ZM12.1421 762.97L11.6965 762.886L11.6886 762.927V762.97H12.1421ZM12.1421 784.741L12.5947 784.77L12.5957 784.756V784.741H12.1421ZM0.743503 958L0.290927 957.97L0.259129 958.454H0.743503V958ZM777.741 958V958.454H778.194V958H777.741ZM777.741 762.97H778.194V762.933L778.188 762.896L777.741 762.97ZM687.03 218.706L687.477 218.631L687.464 218.552L687.425 218.483L687.03 218.706ZM607.204 77.197L607.6 76.9742L607.559 76.9026L607.496 76.8497L607.204 77.197ZM516.494 1L516.785 0.652712L516.659 0.546446H516.494V1ZM182.93 59.4322L270.012 1.37738L269.509 0.622621L182.427 58.6775L182.93 59.4322ZM135.917 157.219L183.087 59.2516L182.27 58.8581L135.1 156.826L135.917 157.219ZM110.529 218.878L135.928 157.195L135.089 156.85L109.69 218.533L110.529 218.878ZM52.5017 552.599L110.557 218.783L109.663 218.628L51.608 552.443L52.5017 552.599ZM12.5878 763.055L52.5005 552.606L51.6093 552.437L11.6965 762.886L12.5878 763.055ZM12.5957 784.741V762.97H11.6886V784.741H12.5957ZM1.19608 958.03L12.5947 784.77L11.6896 784.711L0.290927 957.97L1.19608 958.03ZM0.743503 958.454H777.741V957.546H0.743503V958.454ZM777.287 762.97V958H778.194V762.97H777.287ZM686.583 218.78L777.293 763.045L778.188 762.896L687.477 218.631L686.583 218.78ZM606.809 77.4198L686.635 218.929L687.425 218.483L607.6 76.9742L606.809 77.4198ZM516.202 1.34729L606.913 77.5443L607.496 76.8497L516.785 0.652712L516.202 1.34729ZM269.761 1.45355H516.494V0.546446H269.761V1.45355Z" fill="black"/>
</svg>
