<svg width="786" height="1572" viewBox="0 0 786 1572" fill="none" xmlns="http://www.w3.org/2000/svg">
<path d="M189.678 87.0549L276.761 29H523.494L614.204 105.197L694.03 246.706L784.741 790.97V1088.5L570.663 1484H229.591L1 1088.5L19.1421 812.741V790.97L59.0549 580.521L117.11 246.706L142.509 185.022L189.678 87.0549Z" fill="#F0F0F0" stroke="black" stroke-width="0.907107"/>
<rect x="258.5" y="0.5" width="23" height="19" fill="#F0F0F0" stroke="black"/>
<rect x="282.5" y="0.5" width="23" height="19" fill="#F0F0F0" stroke="black"/>
<rect x="306.5" y="0.5" width="23" height="19" fill="#F0F0F0" stroke="black"/>
<rect x="330.5" y="0.5" width="23" height="19" fill="#F0F0F0" stroke="black"/>
<rect x="354.5" y="0.5" width="23" height="19" fill="#F0F0F0" stroke="black"/>
<rect x="378.5" y="0.5" width="23" height="19" fill="#F0F0F0" stroke="black"/>
<rect x="402.5" y="0.5" width="23" height="19" fill="#F0F0F0" stroke="black"/>
<rect x="426.5" y="0.5" width="23" height="19" fill="#F0F0F0" stroke="black"/>
<rect x="450.5" y="0.5" width="23" height="19" fill="#F0F0F0" stroke="black"/>
<rect x="474.5" y="0.5" width="23" height="19" fill="#F0F0F0" stroke="black"/>
<rect x="498.5" y="0.5" width="23" height="19" fill="#F0F0F0" stroke="black"/>
<rect x="270.5" y="20.5" width="239" height="17" fill="#F0F0F0" stroke="black"/>
<mask id="path-14-inside-1_2051_5351" fill="white">
<path fill-rule="evenodd" clip-rule="evenodd" d="M347 38H318V51H328V59H336V51H347V38Z"/>
</mask>
<path fill-rule="evenodd" clip-rule="evenodd" d="M347 38H318V51H328V59H336V51H347V38Z" fill="#F0F0F0"/>
<path d="M318 38V37H317V38H318ZM347 38H348V37H347V38ZM318 51H317V52H318V51ZM328 51H329V50H328V51ZM328 59H327V60H328V59ZM336 59V60H337V59H336ZM336 51V50H335V51H336ZM347 51V52H348V51H347ZM318 39H347V37H318V39ZM319 51V38H317V51H319ZM328 50H318V52H328V50ZM329 59V51H327V59H329ZM336 58H328V60H336V58ZM335 51V59H337V51H335ZM347 50H336V52H347V50ZM346 38V51H348V38H346Z" fill="black" mask="url(#path-14-inside-1_2051_5351)"/>
<mask id="path-16-inside-2_2051_5351" fill="white">
<path fill-rule="evenodd" clip-rule="evenodd" d="M387 38H358V51H368V59H376V51H387V38Z"/>
</mask>
<path fill-rule="evenodd" clip-rule="evenodd" d="M387 38H358V51H368V59H376V51H387V38Z" fill="#F0F0F0"/>
<path d="M358 38V37H357V38H358ZM387 38H388V37H387V38ZM358 51H357V52H358V51ZM368 51H369V50H368V51ZM368 59H367V60H368V59ZM376 59V60H377V59H376ZM376 51V50H375V51H376ZM387 51V52H388V51H387ZM358 39H387V37H358V39ZM359 51V38H357V51H359ZM368 50H358V52H368V50ZM369 59V51H367V59H369ZM376 58H368V60H376V58ZM375 51V59H377V51H375ZM387 50H376V52H387V50ZM386 38V51H388V38H386Z" fill="black" mask="url(#path-16-inside-2_2051_5351)"/>
<mask id="path-18-inside-3_2051_5351" fill="white">
<path fill-rule="evenodd" clip-rule="evenodd" d="M426 38H397V51H407V59H415V51H426V38Z"/>
</mask>
<path fill-rule="evenodd" clip-rule="evenodd" d="M426 38H397V51H407V59H415V51H426V38Z" fill="#F0F0F0"/>
<path d="M397 38V37H396V38H397ZM426 38H427V37H426V38ZM397 51H396V52H397V51ZM407 51H408V50H407V51ZM407 59H406V60H407V59ZM415 59V60H416V59H415ZM415 51V50H414V51H415ZM426 51V52H427V51H426ZM397 39H426V37H397V39ZM398 51V38H396V51H398ZM407 50H397V52H407V50ZM408 59V51H406V59H408ZM415 58H407V60H415V58ZM414 51V59H416V51H414ZM426 50H415V52H426V50ZM425 38V51H427V38H425Z" fill="black" mask="url(#path-18-inside-3_2051_5351)"/>
<mask id="path-20-inside-4_2051_5351" fill="white">
<path fill-rule="evenodd" clip-rule="evenodd" d="M465 38H436V51H446V59H454V51H465V38Z"/>
</mask>
<path fill-rule="evenodd" clip-rule="evenodd" d="M465 38H436V51H446V59H454V51H465V38Z" fill="#F0F0F0"/>
<path d="M436 38V37H435V38H436ZM465 38H466V37H465V38ZM436 51H435V52H436V51ZM446 51H447V50H446V51ZM446 59H445V60H446V59ZM454 59V60H455V59H454ZM454 51V50H453V51H454ZM465 51V52H466V51H465ZM436 39H465V37H436V39ZM437 51V38H435V51H437ZM446 50H436V52H446V50ZM447 59V51H445V59H447ZM454 58H446V60H454V58ZM453 51V59H455V51H453ZM465 50H454V52H465V50ZM464 38V51H466V38H464Z" fill="black" mask="url(#path-20-inside-4_2051_5351)"/>
<mask id="path-22-inside-5_2051_5351" fill="white">
<path fill-rule="evenodd" clip-rule="evenodd" d="M505 38H476V51H486V59H494V51H505V38Z"/>
</mask>
<path fill-rule="evenodd" clip-rule="evenodd" d="M505 38H476V51H486V59H494V51H505V38Z" fill="#F0F0F0"/>
<path d="M476 38V37H475V38H476ZM505 38H506V37H505V38ZM476 51H475V52H476V51ZM486 51H487V50H486V51ZM486 59H485V60H486V59ZM494 59V60H495V59H494ZM494 51V50H493V51H494ZM505 51V52H506V51H505ZM476 39H505V37H476V39ZM477 51V38H475V51H477ZM486 50H476V52H486V50ZM487 59V51H485V59H487ZM494 58H486V60H494V58ZM493 51V59H495V51H493ZM505 50H494V52H505V50ZM504 38V51H506V38H504Z" fill="black" mask="url(#path-22-inside-5_2051_5351)"/>
<mask id="path-24-inside-6_2051_5351" fill="white">
<path fill-rule="evenodd" clip-rule="evenodd" d="M311 38H282V51H292V59H300V51H311V38Z"/>
</mask>
<path fill-rule="evenodd" clip-rule="evenodd" d="M311 38H282V51H292V59H300V51H311V38Z" fill="#F0F0F0"/>
<path d="M282 38V37H281V38H282ZM311 38H312V37H311V38ZM282 51H281V52H282V51ZM292 51H293V50H292V51ZM292 59H291V60H292V59ZM300 59V60H301V59H300ZM300 51V50H299V51H300ZM311 51V52H312V51H311ZM282 39H311V37H282V39ZM283 51V38H281V51H283ZM292 50H282V52H292V50ZM293 59V51H291V59H293ZM300 58H292V60H300V58ZM299 51V59H301V51H299ZM311 50H300V52H311V50ZM310 38V51H312V38H310Z" fill="black" mask="url(#path-24-inside-6_2051_5351)"/>
<mask id="path-26-inside-7_2051_5351" fill="white">
<path fill-rule="evenodd" clip-rule="evenodd" d="M210 206H137V341H335V206H263V236H210V206Z"/>
</mask>
<path fill-rule="evenodd" clip-rule="evenodd" d="M210 206H137V341H335V206H263V236H210V206Z" fill="#F0F0F0"/>
<path d="M137 206V205H136V206H137ZM210 206H211V205H210V206ZM137 341H136V342H137V341ZM335 341V342H336V341H335ZM335 206H336V205H335V206ZM263 206V205H262V206H263ZM263 236V237H264V236H263ZM210 236H209V237H210V236ZM137 207H210V205H137V207ZM138 341V206H136V341H138ZM335 340H137V342H335V340ZM334 206V341H336V206H334ZM263 207H335V205H263V207ZM262 206V236H264V206H262ZM263 235H210V237H263V235ZM211 236V206H209V236H211Z" fill="black" mask="url(#path-26-inside-7_2051_5351)"/>
<rect x="261.5" y="206.5" width="73" height="33" fill="#F0F0F0" stroke="black"/>
<line x1="318.5" y1="206" x2="318.5" y2="240" stroke="black"/>
<mask id="path-30-inside-8_2051_5351" fill="white">
<path fill-rule="evenodd" clip-rule="evenodd" d="M374 210H338V329H218V365H338H374V329V210Z"/>
</mask>
<path fill-rule="evenodd" clip-rule="evenodd" d="M374 210H338V329H218V365H338H374V329V210Z" fill="#F0F0F0"/>
<path d="M338 210V209H337V210H338ZM374 210H375V209H374V210ZM338 329V330H339V329H338ZM218 329V328H217V329H218ZM218 365H217V366H218V365ZM374 365V366H375V365H374ZM338 211H374V209H338V211ZM339 329V210H337V329H339ZM218 330H338V328H218V330ZM219 365V329H217V365H219ZM338 364H218V366H338V364ZM374 364H338V366H374V364ZM373 329V365H375V329H373ZM373 210V329H375V210H373Z" fill="black" mask="url(#path-30-inside-8_2051_5351)"/>
<rect x="278.5" y="341.5" width="47" height="23" fill="#F0F0F0" stroke="black"/>
<rect x="137.5" y="311.5" width="80" height="53" fill="#F0F0F0" stroke="black"/>
<rect x="447" y="206" width="5" height="161" fill="#322424"/>
<rect x="519" y="206" width="5" height="161" fill="#322424"/>
<rect x="450.5" y="206.5" width="68" height="16" fill="#F0F0F0" stroke="black"/>
<rect x="450.5" y="223.5" width="68" height="16" fill="#F0F0F0" stroke="black"/>
<rect x="450.5" y="240.5" width="68" height="16" fill="#F0F0F0" stroke="black"/>
<rect x="452" y="257" width="67" height="17" fill="#F0F0F0"/>
<rect x="452.5" y="274.5" width="66" height="10" fill="#F0F0F0" stroke="black"/>
<rect x="452.5" y="285.5" width="66" height="17" fill="#F0F0F0" stroke="black"/>
<rect x="452.5" y="302.5" width="66" height="11" fill="#F0F0F0" stroke="black"/>
<line x1="465.5" y1="314" x2="465.5" y2="367" stroke="black"/>
<line x1="503.5" y1="314" x2="503.5" y2="367" stroke="black"/>
<line x1="465" y1="336.5" x2="503" y2="336.5" stroke="black"/>
<line x1="465" y1="348.5" x2="503" y2="348.5" stroke="black"/>
<path d="M567 200.5L584 181.5H599L616 197V216L599 234.5H584L567 216V200.5Z" fill="#F0F0F0" stroke="black"/>
<path d="M575.5 173.5C576.5 177.833 578.4 187 578 189L567 199.5H564.5L555 193.5L552.5 184L564.5 173.5H575.5Z" fill="#F0F0F0" stroke="black"/>
<path d="M609.166 243.379C607.899 239.117 605.432 230.086 605.707 228.065L616.033 216.901L618.528 216.746L628.383 222.143L631.469 231.47L620.145 242.695L609.166 243.379Z" fill="#F0F0F0" stroke="black"/>
<path d="M626.744 189.927C622.504 191.268 613.517 193.89 611.491 193.65L600.151 183.518L599.953 181.026L605.18 171.08L614.451 167.834L625.871 178.962L626.744 189.927Z" fill="#F0F0F0" stroke="black"/>
<path d="M553.919 221.345C558.214 220.191 567.308 217.967 569.321 218.296L580.205 228.916L580.293 231.415L574.634 241.122L565.229 243.957L554.31 232.338L553.919 221.345Z" fill="#F0F0F0" stroke="black"/>
<path d="M566.5 296.5L583.5 277.5H598.5L615.5 293V312L598.5 330.5H583.5L566.5 312V296.5Z" fill="#F0F0F0" stroke="black"/>
<path d="M575 269.5C576 273.833 577.9 283 577.5 285L566.5 295.5H564L554.5 289.5L552 280L564 269.5H575Z" fill="#F0F0F0" stroke="black"/>
<path d="M608.666 339.379C607.399 335.117 604.932 326.086 605.207 324.065L615.533 312.901L618.028 312.746L627.883 318.143L630.969 327.47L619.645 338.695L608.666 339.379Z" fill="#F0F0F0" stroke="black"/>
<path d="M626.244 285.927C622.004 287.268 613.017 289.89 610.991 289.65L599.651 279.518L599.453 277.026L604.68 267.08L613.951 263.834L625.371 274.962L626.244 285.927Z" fill="#F0F0F0" stroke="black"/>
<path d="M553.419 317.345C557.714 316.191 566.808 313.967 568.821 314.296L579.705 324.916L579.793 327.415L574.134 337.122L564.729 339.957L553.81 328.338L553.419 317.345Z" fill="#F0F0F0" stroke="black"/>
<rect x="139.5" y="367.5" width="232" height="155" fill="#F0F0F0" stroke="black" stroke-width="5"/>
<rect x="137.5" y="365.5" width="80" height="25" fill="#F0F0F0" stroke="black"/>
<rect x="218.5" y="365.5" width="80" height="25" fill="#F0F0F0" stroke="black"/>
<rect x="137.5" y="391.5" width="80" height="91" fill="#F0F0F0" stroke="black"/>
<rect x="160.5" y="391.5" width="35" height="23" fill="#F0F0F0" stroke="black"/>
<mask id="path-62-inside-9_2051_5351" fill="white">
<path fill-rule="evenodd" clip-rule="evenodd" d="M278 391H244V405H254L254 415H268V405H278V391Z"/>
</mask>
<path fill-rule="evenodd" clip-rule="evenodd" d="M278 391H244V405H254L254 415H268V405H278V391Z" fill="#F0F0F0"/>
<path d="M244 391V390H243V391H244ZM278 391H279V390H278V391ZM244 405H243V406H244V405ZM254 405L255 405L255 404H254V405ZM254 415L253 415L253 416H254V415ZM268 415V416H269V415H268ZM268 405V404H267V405H268ZM278 405V406H279V405H278ZM244 392H278V390H244V392ZM245 405V391H243V405H245ZM254 404H244V406H254V404ZM255 415L255 405L253 405L253 415L255 415ZM268 414H254V416H268V414ZM267 405V415H269V405H267ZM278 404H268V406H278V404ZM277 391V405H279V391H277Z" fill="black" mask="url(#path-62-inside-9_2051_5351)"/>
<rect x="299.75" y="365.75" width="73.5" height="78.5" fill="#F0F0F0" stroke="black" stroke-width="1.5"/>
<line x1="302.572" y1="364.514" x2="370.572" y2="444.514" stroke="black" stroke-width="1.5"/>
<line x1="370.572" y1="365.486" x2="302.572" y2="445.486" stroke="black" stroke-width="1.5"/>
<rect x="302.5" y="445.5" width="67" height="16" fill="#F0F0F0" stroke="black"/>
<rect x="358.5" y="469.5" width="15" height="55" fill="#F0F0F0" stroke="black"/>
<rect x="449.5" y="357.5" width="232" height="155" fill="#F0F0F0" stroke="black" stroke-width="5"/>
<rect x="447.5" y="355.5" width="80" height="25" fill="#F0F0F0" stroke="black"/>
<rect x="528.5" y="355.5" width="80" height="25" fill="#F0F0F0" stroke="black"/>
<rect x="447.5" y="381.5" width="80" height="91" fill="#F0F0F0" stroke="black"/>
<rect x="470.5" y="381.5" width="35" height="23" fill="#F0F0F0" stroke="black"/>
<mask id="path-74-inside-10_2051_5351" fill="white">
<path fill-rule="evenodd" clip-rule="evenodd" d="M588 381H554V395H564L564 405H578V395H588V381Z"/>
</mask>
<path fill-rule="evenodd" clip-rule="evenodd" d="M588 381H554V395H564L564 405H578V395H588V381Z" fill="#F0F0F0"/>
<path d="M554 381V380H553V381H554ZM588 381H589V380H588V381ZM554 395H553V396H554V395ZM564 395L565 395L565 394H564V395ZM564 405L563 405L563 406H564V405ZM578 405V406H579V405H578ZM578 395V394H577V395H578ZM588 395V396H589V395H588ZM554 382H588V380H554V382ZM555 395V381H553V395H555ZM564 394H554V396H564V394ZM565 405L565 395L563 395L563 405L565 405ZM578 404H564V406H578V404ZM577 395V405H579V395H577ZM588 394H578V396H588V394ZM587 381V395H589V381H587Z" fill="black" mask="url(#path-74-inside-10_2051_5351)"/>
<rect x="609.75" y="355.75" width="73.5" height="78.5" fill="#F0F0F0" stroke="black" stroke-width="1.5"/>
<line x1="612.571" y1="354.514" x2="680.571" y2="434.514" stroke="black" stroke-width="1.5"/>
<line x1="680.571" y1="355.486" x2="612.571" y2="435.486" stroke="black" stroke-width="1.5"/>
<rect x="612.5" y="435.5" width="67" height="16" fill="#F0F0F0" stroke="black"/>
<rect x="668.5" y="459.5" width="15" height="55" fill="#F0F0F0" stroke="black"/>
<rect x="139.5" y="527.5" width="232" height="155" fill="#F0F0F0" stroke="black" stroke-width="5"/>
<rect x="137.5" y="525.5" width="80" height="25" fill="#F0F0F0" stroke="black"/>
<rect x="218.5" y="525.5" width="80" height="25" fill="#F0F0F0" stroke="black"/>
<rect x="137.5" y="551.5" width="80" height="91" fill="#F0F0F0" stroke="black"/>
<rect x="160.5" y="551.5" width="35" height="23" fill="#F0F0F0" stroke="black"/>
<mask id="path-86-inside-11_2051_5351" fill="white">
<path fill-rule="evenodd" clip-rule="evenodd" d="M278 551H244V565H254L254 575H268V565H278V551Z"/>
</mask>
<path fill-rule="evenodd" clip-rule="evenodd" d="M278 551H244V565H254L254 575H268V565H278V551Z" fill="#F0F0F0"/>
<path d="M244 551V550H243V551H244ZM278 551H279V550H278V551ZM244 565H243V566H244V565ZM254 565L255 565L255 564H254V565ZM254 575L253 575L253 576H254V575ZM268 575V576H269V575H268ZM268 565V564H267V565H268ZM278 565V566H279V565H278ZM244 552H278V550H244V552ZM245 565V551H243V565H245ZM254 564H244V566H254V564ZM255 575L255 565L253 565L253 575L255 575ZM268 574H254V576H268V574ZM267 565V575H269V565H267ZM278 564H268V566H278V564ZM277 551V565H279V551H277Z" fill="black" mask="url(#path-86-inside-11_2051_5351)"/>
<rect x="299.75" y="525.75" width="73.5" height="78.5" fill="#F0F0F0" stroke="black" stroke-width="1.5"/>
<line x1="302.572" y1="524.514" x2="370.572" y2="604.514" stroke="black" stroke-width="1.5"/>
<line x1="370.572" y1="525.486" x2="302.572" y2="605.486" stroke="black" stroke-width="1.5"/>
<rect x="302.5" y="605.5" width="67" height="16" fill="#F0F0F0" stroke="black"/>
<rect x="358.5" y="629.5" width="15" height="55" fill="#F0F0F0" stroke="black"/>
<rect x="449.5" y="517.5" width="232" height="155" fill="#F0F0F0" stroke="black" stroke-width="5"/>
<rect x="447.5" y="515.5" width="80" height="25" fill="#F0F0F0" stroke="black"/>
<rect x="528.5" y="515.5" width="80" height="25" fill="#F0F0F0" stroke="black"/>
<rect x="447.5" y="541.5" width="80" height="91" fill="#F0F0F0" stroke="black"/>
<rect x="470.5" y="541.5" width="35" height="23" fill="#F0F0F0" stroke="black"/>
<mask id="path-98-inside-12_2051_5351" fill="white">
<path fill-rule="evenodd" clip-rule="evenodd" d="M588 541H554V555H564L564 565H578V555H588V541Z"/>
</mask>
<path fill-rule="evenodd" clip-rule="evenodd" d="M588 541H554V555H564L564 565H578V555H588V541Z" fill="#F0F0F0"/>
<path d="M554 541V540H553V541H554ZM588 541H589V540H588V541ZM554 555H553V556H554V555ZM564 555L565 555L565 554H564V555ZM564 565L563 565L563 566H564V565ZM578 565V566H579V565H578ZM578 555V554H577V555H578ZM588 555V556H589V555H588ZM554 542H588V540H554V542ZM555 555V541H553V555H555ZM564 554H554V556H564V554ZM565 565L565 555L563 555L563 565L565 565ZM578 564H564V566H578V564ZM577 555V565H579V555H577ZM588 554H578V556H588V554ZM587 541V555H589V541H587Z" fill="black" mask="url(#path-98-inside-12_2051_5351)"/>
<rect x="609.75" y="515.75" width="73.5" height="78.5" fill="#F0F0F0" stroke="black" stroke-width="1.5"/>
<line x1="612.571" y1="514.514" x2="680.571" y2="594.514" stroke="black" stroke-width="1.5"/>
<line x1="680.571" y1="515.486" x2="612.571" y2="595.486" stroke="black" stroke-width="1.5"/>
<rect x="612.5" y="595.5" width="67" height="16" fill="#F0F0F0" stroke="black"/>
<rect x="668.5" y="619.5" width="15" height="55" fill="#F0F0F0" stroke="black"/>
<rect x="139.5" y="687.5" width="232" height="155" fill="#F0F0F0" stroke="black" stroke-width="5"/>
<rect x="137.5" y="685.5" width="80" height="25" fill="#F0F0F0" stroke="black"/>
<rect x="218.5" y="685.5" width="80" height="25" fill="#F0F0F0" stroke="black"/>
<rect x="137.5" y="711.5" width="80" height="91" fill="#F0F0F0" stroke="black"/>
<rect x="160.5" y="711.5" width="35" height="23" fill="#F0F0F0" stroke="black"/>
<mask id="path-110-inside-13_2051_5351" fill="white">
<path fill-rule="evenodd" clip-rule="evenodd" d="M278 711H244V725H254L254 735H268V725H278V711Z"/>
</mask>
<path fill-rule="evenodd" clip-rule="evenodd" d="M278 711H244V725H254L254 735H268V725H278V711Z" fill="#F0F0F0"/>
<path d="M244 711V710H243V711H244ZM278 711H279V710H278V711ZM244 725H243V726H244V725ZM254 725L255 725L255 724H254V725ZM254 735L253 735L253 736H254V735ZM268 735V736H269V735H268ZM268 725V724H267V725H268ZM278 725V726H279V725H278ZM244 712H278V710H244V712ZM245 725V711H243V725H245ZM254 724H244V726H254V724ZM255 735L255 725L253 725L253 735L255 735ZM268 734H254V736H268V734ZM267 725V735H269V725H267ZM278 724H268V726H278V724ZM277 711V725H279V711H277Z" fill="black" mask="url(#path-110-inside-13_2051_5351)"/>
<rect x="299.75" y="685.75" width="73.5" height="78.5" fill="#F0F0F0" stroke="black" stroke-width="1.5"/>
<line x1="302.572" y1="684.514" x2="370.572" y2="764.514" stroke="black" stroke-width="1.5"/>
<line x1="370.572" y1="685.486" x2="302.572" y2="765.486" stroke="black" stroke-width="1.5"/>
<rect x="302.5" y="765.5" width="67" height="16" fill="#F0F0F0" stroke="black"/>
<rect x="358.5" y="789.5" width="15" height="55" fill="#F0F0F0" stroke="black"/>
<rect x="449.5" y="677.5" width="232" height="155" fill="#F0F0F0" stroke="black" stroke-width="5"/>
<rect x="447.5" y="675.5" width="80" height="25" fill="#F0F0F0" stroke="black"/>
<rect x="528.5" y="675.5" width="80" height="25" fill="#F0F0F0" stroke="black"/>
<rect x="447.5" y="701.5" width="80" height="91" fill="#F0F0F0" stroke="black"/>
<rect x="470.5" y="701.5" width="35" height="23" fill="#F0F0F0" stroke="black"/>
<mask id="path-122-inside-14_2051_5351" fill="white">
<path fill-rule="evenodd" clip-rule="evenodd" d="M588 701H554V715H564L564 725H578V715H588V701Z"/>
</mask>
<path fill-rule="evenodd" clip-rule="evenodd" d="M588 701H554V715H564L564 725H578V715H588V701Z" fill="#F0F0F0"/>
<path d="M554 701V700H553V701H554ZM588 701H589V700H588V701ZM554 715H553V716H554V715ZM564 715L565 715L565 714H564V715ZM564 725L563 725L563 726H564V725ZM578 725V726H579V725H578ZM578 715V714H577V715H578ZM588 715V716H589V715H588ZM554 702H588V700H554V702ZM555 715V701H553V715H555ZM564 714H554V716H564V714ZM565 725L565 715L563 715L563 725L565 725ZM578 724H564V726H578V724ZM577 715V725H579V715H577ZM588 714H578V716H588V714ZM587 701V715H589V701H587Z" fill="black" mask="url(#path-122-inside-14_2051_5351)"/>
<rect x="609.75" y="675.75" width="73.5" height="78.5" fill="#F0F0F0" stroke="black" stroke-width="1.5"/>
<line x1="612.571" y1="674.514" x2="680.571" y2="754.514" stroke="black" stroke-width="1.5"/>
<line x1="680.571" y1="675.486" x2="612.571" y2="755.486" stroke="black" stroke-width="1.5"/>
<rect x="612.5" y="755.5" width="67" height="16" fill="#F0F0F0" stroke="black"/>
<rect x="668.5" y="779.5" width="15" height="55" fill="#F0F0F0" stroke="black"/>
<rect x="141.5" y="847.5" width="232" height="135" fill="#F0F0F0" stroke="black" stroke-width="5"/>
<rect x="139.5" y="845.5" width="80" height="21.75" fill="#F0F0F0" stroke="black"/>
<rect x="220.5" y="845.5" width="80" height="21.75" fill="#F0F0F0" stroke="black"/>
<rect x="139.5" y="868.25" width="80" height="79.5" fill="#F0F0F0" stroke="black"/>
<rect x="162.5" y="868.25" width="35" height="20" fill="#F0F0F0" stroke="black"/>
<mask id="path-134-inside-15_2051_5351" fill="white">
<path fill-rule="evenodd" clip-rule="evenodd" d="M280 867.75H246V880H256L256 888.75H270V880H280V867.75Z"/>
</mask>
<path fill-rule="evenodd" clip-rule="evenodd" d="M280 867.75H246V880H256L256 888.75H270V880H280V867.75Z" fill="#F0F0F0"/>
<path d="M246 867.75V866.75H245V867.75H246ZM280 867.75H281V866.75H280V867.75ZM246 880H245V881H246V880ZM256 880L257 880L257 879H256V880ZM256 888.75L255 888.75L255 889.75H256V888.75ZM270 888.75V889.75H271V888.75H270ZM270 880V879H269V880H270ZM280 880V881H281V880H280ZM246 868.75H280V866.75H246V868.75ZM247 880V867.75H245V880H247ZM256 879H246V881H256V879ZM257 888.75L257 880L255 880L255 888.75L257 888.75ZM270 887.75H256V889.75H270V887.75ZM269 880V888.75H271V880H269ZM280 879H270V881H280V879ZM279 867.75V880H281V867.75H279Z" fill="black" mask="url(#path-134-inside-15_2051_5351)"/>
<rect x="301.75" y="845.75" width="73.5" height="68.5" fill="#F0F0F0" stroke="black" stroke-width="1.5"/>
<line y1="-0.75" x2="97.591" y2="-0.75" transform="matrix(0.696786 0.717279 -0.802401 0.596786 304 845)" stroke="black" stroke-width="1.5"/>
<line y1="-0.75" x2="97.591" y2="-0.75" transform="matrix(-0.696786 0.717279 -0.802401 -0.596786 372 845)" stroke="black" stroke-width="1.5"/>
<rect x="304.5" y="915.5" width="67" height="13.875" fill="#F0F0F0" stroke="black"/>
<rect x="360.5" y="936.5" width="15" height="48" fill="#F0F0F0" stroke="black"/>
<rect x="451.5" y="837.5" width="232" height="135" fill="#F0F0F0" stroke="black" stroke-width="5"/>
<rect x="449.5" y="835.5" width="80" height="21.75" fill="#F0F0F0" stroke="black"/>
<rect x="530.5" y="835.5" width="80" height="21.75" fill="#F0F0F0" stroke="black"/>
<rect x="449.5" y="858.25" width="80" height="79.5" fill="#F0F0F0" stroke="black"/>
<rect x="472.5" y="858.25" width="35" height="20" fill="#F0F0F0" stroke="black"/>
<mask id="path-146-inside-16_2051_5351" fill="white">
<path fill-rule="evenodd" clip-rule="evenodd" d="M590 857.75H556V870H566L566 878.75H580V870H590V857.75Z"/>
</mask>
<path fill-rule="evenodd" clip-rule="evenodd" d="M590 857.75H556V870H566L566 878.75H580V870H590V857.75Z" fill="#F0F0F0"/>
<path d="M556 857.75V856.75H555V857.75H556ZM590 857.75H591V856.75H590V857.75ZM556 870H555V871H556V870ZM566 870L567 870L567 869H566V870ZM566 878.75L565 878.75L565 879.75H566V878.75ZM580 878.75V879.75H581V878.75H580ZM580 870V869H579V870H580ZM590 870V871H591V870H590ZM556 858.75H590V856.75H556V858.75ZM557 870V857.75H555V870H557ZM566 869H556V871H566V869ZM567 878.75L567 870L565 870L565 878.75L567 878.75ZM580 877.75H566V879.75H580V877.75ZM579 870V878.75H581V870H579ZM590 869H580V871H590V869ZM589 857.75V870H591V857.75H589Z" fill="black" mask="url(#path-146-inside-16_2051_5351)"/>
<rect x="611.75" y="835.75" width="73.5" height="68.5" fill="#F0F0F0" stroke="black" stroke-width="1.5"/>
<line y1="-0.75" x2="97.591" y2="-0.75" transform="matrix(0.696786 0.717279 -0.802401 0.596786 614 835)" stroke="black" stroke-width="1.5"/>
<line y1="-0.75" x2="97.591" y2="-0.75" transform="matrix(-0.696786 0.717279 -0.802401 -0.596786 682 835)" stroke="black" stroke-width="1.5"/>
<rect x="614.5" y="905.5" width="67" height="13.875" fill="#F0F0F0" stroke="black"/>
<rect x="670.5" y="926.5" width="15" height="48" fill="#F0F0F0" stroke="black"/>
<rect x="141.5" y="987.5" width="232" height="135" fill="#F0F0F0" stroke="black" stroke-width="5"/>
<rect x="139.5" y="985.5" width="80" height="21.75" fill="#F0F0F0" stroke="black"/>
<rect x="220.5" y="985.5" width="80" height="21.75" fill="#F0F0F0" stroke="black"/>
<rect x="139.5" y="1008.25" width="80" height="79.5" fill="#F0F0F0" stroke="black"/>
<rect x="162.5" y="1008.25" width="35" height="20" fill="#F0F0F0" stroke="black"/>
<mask id="path-158-inside-17_2051_5351" fill="white">
<path fill-rule="evenodd" clip-rule="evenodd" d="M280 1007.75H246V1020H256L256 1028.75H270V1020H280V1007.75Z"/>
</mask>
<path fill-rule="evenodd" clip-rule="evenodd" d="M280 1007.75H246V1020H256L256 1028.75H270V1020H280V1007.75Z" fill="#F0F0F0"/>
<path d="M246 1007.75V1006.75H245V1007.75H246ZM280 1007.75H281V1006.75H280V1007.75ZM246 1020H245V1021H246V1020ZM256 1020L257 1020L257 1019H256V1020ZM256 1028.75L255 1028.75L255 1029.75H256V1028.75ZM270 1028.75V1029.75H271V1028.75H270ZM270 1020V1019H269V1020H270ZM280 1020V1021H281V1020H280ZM246 1008.75H280V1006.75H246V1008.75ZM247 1020V1007.75H245V1020H247ZM256 1019H246V1021H256V1019ZM257 1028.75L257 1020L255 1020L255 1028.75L257 1028.75ZM270 1027.75H256V1029.75H270V1027.75ZM269 1020V1028.75H271V1020H269ZM280 1019H270V1021H280V1019ZM279 1007.75V1020H281V1007.75H279Z" fill="black" mask="url(#path-158-inside-17_2051_5351)"/>
<rect x="301.75" y="985.75" width="73.5" height="68.5" fill="#F0F0F0" stroke="black" stroke-width="1.5"/>
<line y1="-0.75" x2="97.591" y2="-0.75" transform="matrix(0.696786 0.717279 -0.802401 0.596786 304 985)" stroke="black" stroke-width="1.5"/>
<line y1="-0.75" x2="97.591" y2="-0.75" transform="matrix(-0.696786 0.717279 -0.802401 -0.596786 372 985)" stroke="black" stroke-width="1.5"/>
<rect x="304.5" y="1055.5" width="67" height="13.875" fill="#F0F0F0" stroke="black"/>
<rect x="360.5" y="1076.5" width="15" height="48" fill="#F0F0F0" stroke="black"/>
<rect x="451.5" y="977.5" width="232" height="135" fill="#F0F0F0" stroke="black" stroke-width="5"/>
<rect x="449.5" y="975.5" width="80" height="21.75" fill="#F0F0F0" stroke="black"/>
<rect x="530.5" y="975.5" width="80" height="21.75" fill="#F0F0F0" stroke="black"/>
<rect x="449.5" y="998.25" width="80" height="79.5" fill="#F0F0F0" stroke="black"/>
<rect x="472.5" y="998.25" width="35" height="20" fill="#F0F0F0" stroke="black"/>
<mask id="path-170-inside-18_2051_5351" fill="white">
<path fill-rule="evenodd" clip-rule="evenodd" d="M590 997.75H556V1010H566L566 1018.75H580V1010H590V997.75Z"/>
</mask>
<path fill-rule="evenodd" clip-rule="evenodd" d="M590 997.75H556V1010H566L566 1018.75H580V1010H590V997.75Z" fill="#F0F0F0"/>
<path d="M556 997.75V996.75H555V997.75H556ZM590 997.75H591V996.75H590V997.75ZM556 1010H555V1011H556V1010ZM566 1010L567 1010L567 1009H566V1010ZM566 1018.75L565 1018.75L565 1019.75H566V1018.75ZM580 1018.75V1019.75H581V1018.75H580ZM580 1010V1009H579V1010H580ZM590 1010V1011H591V1010H590ZM556 998.75H590V996.75H556V998.75ZM557 1010V997.75H555V1010H557ZM566 1009H556V1011H566V1009ZM567 1018.75L567 1010L565 1010L565 1018.75L567 1018.75ZM580 1017.75H566V1019.75H580V1017.75ZM579 1010V1018.75H581V1010H579ZM590 1009H580V1011H590V1009ZM589 997.75V1010H591V997.75H589Z" fill="black" mask="url(#path-170-inside-18_2051_5351)"/>
<rect x="611.75" y="975.75" width="73.5" height="68.5" fill="#F0F0F0" stroke="black" stroke-width="1.5"/>
<line y1="-0.75" x2="97.591" y2="-0.75" transform="matrix(0.696786 0.717279 -0.802401 0.596786 614 975)" stroke="black" stroke-width="1.5"/>
<line y1="-0.75" x2="97.591" y2="-0.75" transform="matrix(-0.696786 0.717279 -0.802401 -0.596786 682 975)" stroke="black" stroke-width="1.5"/>
<rect x="614.5" y="1045.5" width="67" height="13.875" fill="#F0F0F0" stroke="black"/>
<rect x="670.5" y="1066.5" width="15" height="48" fill="#F0F0F0" stroke="black"/>
<line x1="49" y1="1126.5" x2="124" y2="1126.5" stroke="black"/>
<rect x="63.5" y="1113.5" width="49" height="18" fill="#251E1E" stroke="black"/>
<line x1="690" y1="1126.5" x2="755" y2="1126.5" stroke="black"/>
<rect x="702.633" y="1113.5" width="42.3333" height="18" fill="#251E1E" stroke="black"/>
<rect x="385" y="1123" width="51" height="7" fill="#251E1E"/>
<mask id="path-182-inside-19_2051_5351" fill="white">
<path fill-rule="evenodd" clip-rule="evenodd" d="M146 1223V1293H167.568V1269.39L203 1269.39V1245.77H167.568V1223H146Z"/>
</mask>
<path fill-rule="evenodd" clip-rule="evenodd" d="M146 1223V1293H167.568V1269.39L203 1269.39V1245.77H167.568V1223H146Z" fill="#F0F0F0"/>
<path d="M146 1293H145V1294H146V1293ZM146 1223V1222H145V1223H146ZM167.568 1293V1294H168.568V1293H167.568ZM167.568 1269.39L167.568 1268.39L166.568 1268.39V1269.39H167.568ZM203 1269.39L203 1270.39L204 1270.39V1269.39H203ZM203 1245.77H204V1244.77H203V1245.77ZM167.568 1245.77H166.568V1246.77H167.568V1245.77ZM167.568 1223H168.568V1222H167.568V1223ZM147 1293V1223H145V1293H147ZM167.568 1292H146V1294H167.568V1292ZM166.568 1269.39V1293H168.568V1269.39H166.568ZM203 1268.39L167.568 1268.39L167.568 1270.39L203 1270.39L203 1268.39ZM202 1245.77V1269.39H204V1245.77H202ZM167.568 1246.77H203V1244.77H167.568V1246.77ZM166.568 1223V1245.77H168.568V1223H166.568ZM146 1224H167.568V1222H146V1224Z" fill="black" mask="url(#path-182-inside-19_2051_5351)"/>
<mask id="path-184-inside-20_2051_5351" fill="white">
<path fill-rule="evenodd" clip-rule="evenodd" d="M644 1289V1219H622.432V1242.61L587 1242.61V1266.23H622.432V1289H644Z"/>
</mask>
<path fill-rule="evenodd" clip-rule="evenodd" d="M644 1289V1219H622.432V1242.61L587 1242.61V1266.23H622.432V1289H644Z" fill="#F0F0F0"/>
<path d="M644 1219H645V1218H644V1219ZM644 1289V1290H645V1289H644ZM622.432 1219V1218H621.432V1219H622.432ZM622.432 1242.61L622.432 1243.61L623.432 1243.61V1242.61H622.432ZM587 1242.61L587 1241.61L586 1241.61V1242.61H587ZM587 1266.23H586V1267.23H587V1266.23ZM622.432 1266.23H623.432V1265.23H622.432V1266.23ZM622.432 1289H621.432V1290H622.432V1289ZM643 1219V1289H645V1219H643ZM622.432 1220H644V1218H622.432V1220ZM623.432 1242.61V1219H621.432V1242.61H623.432ZM587 1243.61L622.432 1243.61L622.432 1241.61L587 1241.61L587 1243.61ZM588 1266.23V1242.61H586V1266.23H588ZM622.432 1265.23H587V1267.23H622.432V1265.23ZM623.432 1289V1266.23H621.432V1289H623.432ZM644 1288H622.432V1290H644V1288Z" fill="black" mask="url(#path-184-inside-20_2051_5351)"/>
<path d="M22 1229L48 1165H120L132 1229H22Z" fill="#D9D9D9" stroke="black" stroke-width="2"/>
<path d="M38 1383L28 1308H138L128 1383H38Z" fill="#D9D9D9" stroke="black" stroke-width="2"/>
<path d="M43 1443V1384H118V1443H43Z" fill="#D9D9D9" stroke="black" stroke-width="2"/>
<rect x="12.5" y="1229.5" width="23" height="77" fill="#D9D9D9" stroke="black"/>
<rect x="36.5" y="1229.5" width="23" height="77" fill="#D9D9D9" stroke="black"/>
<rect x="60.5" y="1229.5" width="23" height="77" fill="#D9D9D9" stroke="black"/>
<rect x="84.5" y="1229.5" width="23" height="77" fill="#D9D9D9" stroke="black"/>
<rect x="108.5" y="1229.5" width="15" height="77" fill="#D9D9D9" stroke="black"/>
<rect x="124.5" y="1229.5" width="21" height="77" fill="#D9D9D9" stroke="black"/>
<path d="M657 1229L683 1165H755L767 1229H657Z" fill="#D9D9D9" stroke="black" stroke-width="2"/>
<path d="M673 1383L663 1308H773L763 1383H673Z" fill="#D9D9D9" stroke="black" stroke-width="2"/>
<path d="M678 1443V1384H753V1443H678Z" fill="#D9D9D9" stroke="black" stroke-width="2"/>
<rect x="647.5" y="1229.5" width="23" height="77" fill="#D9D9D9" stroke="black"/>
<rect x="671.5" y="1229.5" width="23" height="77" fill="#D9D9D9" stroke="black"/>
<rect x="695.5" y="1229.5" width="23" height="77" fill="#D9D9D9" stroke="black"/>
<rect x="719.5" y="1229.5" width="23" height="77" fill="#D9D9D9" stroke="black"/>
<rect x="743.5" y="1229.5" width="15" height="77" fill="#D9D9D9" stroke="black"/>
<rect x="759.5" y="1229.5" width="21" height="77" fill="#D9D9D9" stroke="black"/>
<path d="M508 1244.02H291.552V1233.63H508V1244.02Z" fill="#D9D9D9" stroke="black"/>
<path d="M290 1233.63C328.618 1203.72 426.127 1161.86 507.224 1233.63H290Z" fill="#D9D9D9" stroke="black"/>
<rect x="303.689" y="1244.52" width="194.502" height="9.39422" fill="#D9D9D9" stroke="black"/>
<rect x="290.5" y="1254.92" width="217" height="70.4603" fill="#D9D9D9" stroke="black"/>
<path d="M388.027 1283.98C388.027 1289.24 384.939 1294.05 379.835 1297.58C374.735 1301.1 367.66 1303.29 359.822 1303.29C351.984 1303.29 344.91 1301.1 339.809 1297.58C334.706 1294.05 331.618 1289.24 331.618 1283.98C331.618 1278.72 334.706 1273.9 339.809 1270.38C344.91 1266.86 351.984 1264.66 359.822 1264.66C367.66 1264.66 374.735 1266.86 379.835 1270.38C384.939 1273.9 388.027 1278.72 388.027 1283.98Z" fill="#D9D9D9" stroke="black"/>
<path d="M464.831 1283.98C464.831 1289.24 461.743 1294.05 456.64 1297.58C451.539 1301.1 444.465 1303.29 436.627 1303.29C428.788 1303.29 421.714 1301.1 416.613 1297.58C411.51 1294.05 408.422 1289.24 408.422 1283.98C408.422 1278.72 411.51 1273.9 416.613 1270.38C421.714 1266.86 428.788 1264.66 436.627 1264.66C444.465 1264.66 451.539 1266.86 456.64 1270.38C461.743 1273.9 464.831 1278.72 464.831 1283.98Z" fill="#D9D9D9" stroke="black"/>
<rect x="340.927" y="1314.69" width="12.1886" height="10.6935" fill="#D9D9D9" stroke="black"/>
<rect x="393.682" y="1314.69" width="12.1886" height="10.6935" fill="#D9D9D9" stroke="black"/>
<rect x="446.436" y="1314.69" width="12.1886" height="10.6935" fill="#D9D9D9" stroke="black"/>
<mask id="path-213-inside-21_2051_5351" fill="white">
<path fill-rule="evenodd" clip-rule="evenodd" d="M303.189 1325.88H501.794V1359.66H479.295V1374.6H501.794V1386.3H479.295V1401.24H501.794V1412.93H479.295V1427.87H501.794V1461.65H303.189V1427.87H317.929V1412.93H303.189V1401.24H317.153V1386.3H303.189V1374.6H317.929V1359.66H303.189V1325.88Z"/>
</mask>
<path fill-rule="evenodd" clip-rule="evenodd" d="M303.189 1325.88H501.794V1359.66H479.295V1374.6H501.794V1386.3H479.295V1401.24H501.794V1412.93H479.295V1427.87H501.794V1461.65H303.189V1427.87H317.929V1412.93H303.189V1401.24H317.153V1386.3H303.189V1374.6H317.929V1359.66H303.189V1325.88Z" fill="#D9D9D9"/>
<path d="M501.794 1325.88H502.794V1324.88H501.794V1325.88ZM303.189 1325.88V1324.88H302.189V1325.88H303.189ZM501.794 1359.66V1360.66H502.794V1359.66H501.794ZM479.295 1359.66V1358.66H478.295V1359.66H479.295ZM479.295 1374.6H478.295V1375.6H479.295V1374.6ZM501.794 1374.6H502.794V1373.6H501.794V1374.6ZM501.794 1386.3V1387.3H502.794V1386.3H501.794ZM479.295 1386.3V1385.3H478.295V1386.3H479.295ZM479.295 1401.24H478.295V1402.24H479.295V1401.24ZM501.794 1401.24H502.794V1400.24H501.794V1401.24ZM501.794 1412.93V1413.93H502.794V1412.93H501.794ZM479.295 1412.93V1411.93H478.295V1412.93H479.295ZM479.295 1427.87H478.295V1428.87H479.295V1427.87ZM501.794 1427.87H502.794V1426.87H501.794V1427.87ZM501.794 1461.65V1462.65H502.794V1461.65H501.794ZM303.189 1461.65H302.189V1462.65H303.189V1461.65ZM303.189 1427.87V1426.87H302.189V1427.87H303.189ZM317.929 1427.87V1428.87H318.929V1427.87H317.929ZM317.929 1412.93H318.929V1411.93H317.929V1412.93ZM303.189 1412.93H302.189V1413.93H303.189V1412.93ZM303.189 1401.24V1400.24H302.189V1401.24H303.189ZM317.153 1401.24V1402.24H318.153V1401.24H317.153ZM317.153 1386.3H318.153V1385.3H317.153V1386.3ZM303.189 1386.3H302.189V1387.3H303.189V1386.3ZM303.189 1374.6V1373.6H302.189V1374.6H303.189ZM317.929 1374.6V1375.6H318.929V1374.6H317.929ZM317.929 1359.66H318.929V1358.66H317.929V1359.66ZM303.189 1359.66H302.189V1360.66H303.189V1359.66ZM501.794 1324.88H303.189V1326.88H501.794V1324.88ZM502.794 1359.66V1325.88H500.794V1359.66H502.794ZM479.295 1360.66H501.794V1358.66H479.295V1360.66ZM480.295 1374.6V1359.66H478.295V1374.6H480.295ZM501.794 1373.6H479.295V1375.6H501.794V1373.6ZM502.794 1386.3V1374.6H500.794V1386.3H502.794ZM479.295 1387.3H501.794V1385.3H479.295V1387.3ZM480.295 1401.24V1386.3H478.295V1401.24H480.295ZM501.794 1400.24H479.295V1402.24H501.794V1400.24ZM502.794 1412.93V1401.24H500.794V1412.93H502.794ZM479.295 1413.93H501.794V1411.93H479.295V1413.93ZM480.295 1427.87V1412.93H478.295V1427.87H480.295ZM501.794 1426.87H479.295V1428.87H501.794V1426.87ZM502.794 1461.65V1427.87H500.794V1461.65H502.794ZM303.189 1462.65H501.794V1460.65H303.189V1462.65ZM302.189 1427.87V1461.65H304.189V1427.87H302.189ZM317.929 1426.87H303.189V1428.87H317.929V1426.87ZM316.929 1412.93V1427.87H318.929V1412.93H316.929ZM303.189 1413.93H317.929V1411.93H303.189V1413.93ZM302.189 1401.24V1412.93H304.189V1401.24H302.189ZM317.153 1400.24H303.189V1402.24H317.153V1400.24ZM316.153 1386.3V1401.24H318.153V1386.3H316.153ZM303.189 1387.3H317.153V1385.3H303.189V1387.3ZM302.189 1374.6V1386.3H304.189V1374.6H302.189ZM317.929 1373.6H303.189V1375.6H317.929V1373.6ZM316.929 1359.66V1374.6H318.929V1359.66H316.929ZM303.189 1360.66H317.929V1358.66H303.189V1360.66ZM302.189 1325.88V1359.66H304.189V1325.88H302.189Z" fill="black" mask="url(#path-213-inside-21_2051_5351)"/>
<path d="M240 1495L276 1463H528L560 1495V1571H240V1495Z" fill="#D9D9D9" stroke="black"/>
<line x1="373.5" y1="364.993" x2="375.511" y2="1125.99" stroke="black" stroke-width="5"/>
<line x1="685.5" y1="354.993" x2="687.511" y2="1115.99" stroke="black" stroke-width="5"/>
<line x1="137" y1="362.5" x2="374" y2="362.5" stroke="black" stroke-width="5"/>
<line x1="447" y1="354.5" x2="684" y2="354.5" stroke="black" stroke-width="5"/>
<line x1="449" y1="1127.5" x2="686" y2="1127.5" stroke="black" stroke-width="5"/>
<line x1="139.5" y1="364.993" x2="141.524" y2="1121.99" stroke="black" stroke-width="5"/>
<line x1="449.5" y1="356.993" x2="451.524" y2="1113.99" stroke="black" stroke-width="5"/>
</svg>
