<svg width="33" height="7" viewBox="0 0 33 7" fill="none" xmlns="http://www.w3.org/2000/svg">
<rect width="32.02" height="6.95" fill="black"/>
<path fill-rule="evenodd" clip-rule="evenodd" d="M0 5.81987L0 6.94531H1.06804L0.972168 6.87086L8.54571 -0.000100136L7.29777 -0.000100136L0 5.81987ZM5.05701 6.94531H3.01755L10.6717 0.00124884L10.6699 -0.000100136H12.7126L5.05701 6.94531ZM7.18446 6.94531L9.01453 6.94531L16.6701 -0.000100136H14.6136L14.7356 0.0946403L7.18446 6.94531ZM13.3317 6.94531H11.142L18.6932 0.0946403L18.5712 -0.000100136H20.9873L13.3317 6.94531ZM15.4591 6.94531H17.6345L17.2681 6.66073L24.61 -0.000100136H22.8883L23.0103 0.0946403L15.4591 6.94531ZM21.251 6.94531H19.0818L26.7374 -0.000100136H28.9066L21.251 6.94531ZM23.3784 6.94531H25.124L32.0182 0.690689V-0.000100136H30.7983L30.9253 0.0985317L23.3784 6.94531ZM28.972 6.94531H27.2515L32.0182 2.62078V4.18169L28.972 6.94531ZM31.0994 6.94531H32.0182V6.11178L31.0994 6.94531ZM5.03062 -0.000100136H3.01851L0 2.44815L0 4.01181L5.03062 -0.000100136Z" fill="#F0F0F0"/>
</svg>
