<svg width="70" height="50" viewBox="0 0 70 50" fill="none" xmlns="http://www.w3.org/2000/svg">
<path fill-rule="evenodd" clip-rule="evenodd" d="M1.46447 1.46447C0 2.92893 0 5.28595 0 10V40C0 44.714 0 47.0711 1.46447 48.5355C2.92893 50 5.28595 50 10 50H61.6851L70 38.937V10C70 5.28595 70 2.92893 68.5355 1.46447C67.0711 0 64.714 0 60 0H10C5.28595 0 2.92893 0 1.46447 1.46447Z" fill="#5B13EC"/>
<rect x="22.6094" y="12.9141" width="5.11765" height="5.11765" transform="rotate(3.99128 22.6094 12.9141)" fill="#111111"/>
<rect x="19.3555" y="8.91797" width="5.11765" height="5.11765" transform="rotate(3.99128 19.3555 8.91797)" fill="#111111"/>
<rect x="27.3184" y="17.2539" width="5.11765" height="5.11765" transform="rotate(3.99128 27.3184 17.2539)" fill="#111111"/>
<rect x="32.0273" y="21.5898" width="5.11765" height="5.11765" transform="rotate(3.99128 32.0273 21.5898)" fill="#111111"/>
<rect x="36.668" y="26.9258" width="5.11765" height="5.11765" transform="rotate(3.99128 36.668 26.9258)" fill="#111111"/>
<rect x="41.377" y="31.2656" width="5.11765" height="5.11765" transform="rotate(3.99128 41.377 31.2656)" fill="#111111"/>
<rect x="46.3555" y="34.918" width="5.11765" height="5.11765" transform="rotate(3.99128 46.3555 34.918)" fill="#111111"/>
<rect x="45.8105" y="12.5273" width="5.11765" height="5.11765" transform="rotate(93.9913 45.8105 12.5273)" fill="#111111"/>
<rect x="49.2891" y="9.09375" width="5.11765" height="5.11765" transform="rotate(90 49.2891 9.09375)" fill="#111111"/>
<rect x="41.4707" y="17.2344" width="5.11765" height="5.11765" transform="rotate(93.9913 41.4707 17.2344)" fill="#111111"/>
<rect x="37.1328" y="21.9453" width="5.11765" height="5.11765" transform="rotate(93.9913 37.1328 21.9453)" fill="#111111"/>
<rect x="31.7969" y="26.5859" width="5.11765" height="5.11765" transform="rotate(93.9913 31.7969 26.5859)" fill="#111111"/>
<rect x="27.459" y="31.2969" width="5.11765" height="5.11765" transform="rotate(93.9913 27.459 31.2969)" fill="#111111"/>
<rect x="22.4629" y="35.2773" width="5.11765" height="5.11765" transform="rotate(93.9913 22.4629 35.2773)" fill="#111111"/>
</svg>
