<svg width="38" height="38" viewBox="0 0 38 38" fill="none" xmlns="http://www.w3.org/2000/svg">
<mask id="mask0_1875_4827" style="mask-type:alpha" maskUnits="userSpaceOnUse" x="0" y="0" width="38" height="38">
<rect width="37.5" height="37.5" fill="#D9D9D9"/>
</mask>
<g mask="url(#mask0_1875_4827)">
<path d="M37.5 18.8646C37.5 8.44594 29.1054 0 18.7501 0C8.39466 0 0 8.44594 0 18.8646C0 28.2805 6.85662 36.0847 15.8203 37.5V24.3177H11.0596V18.8646H15.8203V14.7085C15.8203 9.98054 18.6196 7.36898 22.9024 7.36898C24.9539 7.36898 27.0996 7.73741 27.0996 7.73741V12.3799H24.7354C22.4061 12.3799 21.6797 13.834 21.6797 15.3259V18.8646H26.8799L26.0486 24.3177H21.6797V37.5C30.6435 36.0847 37.5 28.2805 37.5 18.8646Z" fill="#F0F0F0"/>
</g>
</svg>
