<svg width="50" height="50" viewBox="0 0 50 50" fill="none" xmlns="http://www.w3.org/2000/svg">
<mask id="path-1-inside-1_1098_3855" fill="white">
<path fill-rule="evenodd" clip-rule="evenodd" d="M5 0C2.23858 0 0 2.23858 0 5V45C0 47.7614 2.23858 50 5 50H40.7877L50 39.6172V5C50 2.23858 47.7614 0 45 0H5Z"/>
</mask>
<path fill-rule="evenodd" clip-rule="evenodd" d="M5 0C2.23858 0 0 2.23858 0 5V45C0 47.7614 2.23858 50 5 50H40.7877L50 39.6172V5C50 2.23858 47.7614 0 45 0H5Z" fill="#5B13EC" fill-opacity="0.4"/>
<path d="M40.7877 50V52H41.6869L42.2837 51.3274L40.7877 50ZM50 39.6172L51.496 40.9446L52 40.3766V39.6172H50ZM2 5C2 3.34315 3.34315 2 5 2V-2C1.13401 -2 -2 1.13401 -2 5H2ZM2 45V5H-2V45H2ZM5 48C3.34315 48 2 46.6569 2 45H-2C-2 48.866 1.13401 52 5 52V48ZM40.7877 48H5V52H40.7877V48ZM42.2837 51.3274L51.496 40.9446L48.504 38.2898L39.2917 48.6726L42.2837 51.3274ZM48 5V39.6172H52V5H48ZM45 2C46.6569 2 48 3.34315 48 5H52C52 1.13401 48.866 -2 45 -2V2ZM5 2H45V-2H5V2Z" fill="#5B13EC" mask="url(#path-1-inside-1_1098_3855)"/>
<rect x="19.2861" y="13.3359" width="9.28571" height="10.8333" fill="#5B13EC"/>
<rect x="10" y="24.168" width="9.28571" height="10.8333" fill="#5B13EC"/>
<rect x="28.5713" y="24.168" width="9.28571" height="10.8333" fill="#5B13EC"/>
</svg>
