<svg width="669" height="93" viewBox="0 0 669 93" fill="none" xmlns="http://www.w3.org/2000/svg">
<path fill-rule="evenodd" clip-rule="evenodd" d="M669 15.1255L669 0L646.628 -9.77905e-07L648.688 1.02539L490.497 93L516.63 93L669 15.1255ZM563.416 -4.6152e-06L606.001 -2.75378e-06L446.045 93L403.461 93L563.416 -4.6152e-06ZM518.965 -6.55824e-06L480.731 -8.22949e-06L320.776 93L363.555 93L361.106 91.781L518.965 -6.55824e-06ZM390.529 -1.21723e-05L436.28 -1.01725e-05L278.421 91.781L280.87 93L230.574 93L390.529 -1.21723e-05ZM346.078 -1.41154e-05L300.514 -1.6107e-05L308.196 3.82324L154.817 93L190.668 93L188.219 91.781L346.078 -1.41154e-05ZM225.128 -1.94022e-05L270.321 -1.74268e-05L110.365 93L65.1728 93L225.128 -1.94022e-05ZM180.677 -2.13453e-05L144.159 -2.29415e-05L-3.66369e-06 83.8155L-4.06516e-06 93L25.3329 93L22.8483 91.7634L180.677 -2.13453e-05ZM63.7271 -2.64573e-05L99.7073 -2.48846e-05L-2.53399e-06 57.971L-1.61958e-06 37.0516L63.7271 -2.64573e-05ZM19.2758 -2.84003e-05L0 -2.92429e-05L-4.8988e-07 11.2071L19.2758 -2.84003e-05ZM564 93L605.971 93L669 60.238L669 39.3359L564 93Z" fill="#F0F0F0"/>
</svg>
