<svg width="38" height="38" viewBox="0 0 38 38" fill="none" xmlns="http://www.w3.org/2000/svg">
<mask id="mask0_1875_4824" style="mask-type:alpha" maskUnits="userSpaceOnUse" x="0" y="0" width="38" height="38">
<rect width="37.5" height="37.5" fill="#D9D9D9"/>
</mask>
<g mask="url(#mask0_1875_4824)">
<path d="M36.7171 6.79042C36.4998 5.67609 36.0852 4.66084 35.5135 3.84278C34.9417 3.02472 34.2322 2.43153 33.4534 2.12054C30.5304 1.00003 18.7667 1.00003 18.7667 1.00003C18.7667 1.00003 7.03264 0.977667 4.07998 2.12054C3.30119 2.43153 2.59164 3.02472 2.01992 3.84278C1.44819 4.66084 1.03361 5.67609 0.816266 6.79042C0.262186 11.0723 -0.0109782 15.4189 0.000337614 19.7735C-0.00883903 24.1117 0.264316 28.4417 0.816266 32.7074C1.03361 33.8217 1.44819 34.837 2.01992 35.655C2.59164 36.4731 3.30119 37.0663 4.07998 37.3773C6.99981 38.5 18.7667 38.5 18.7667 38.5C18.7667 38.5 30.4992 38.5 33.4534 37.3773C34.2322 37.0663 34.9417 36.4731 35.5135 35.655C36.0852 34.837 36.4998 33.8217 36.7171 32.7074C37.2575 28.4401 37.5192 24.1102 37.4986 19.7735C37.5213 15.4204 37.2597 11.0738 36.7171 6.79042ZM15.0122 27.8049V11.7175L24.8033 19.7735L15.0122 27.8049Z" fill="#F0F0F0"/>
</g>
</svg>
